<?xml version="1.0" encoding="UTF-8"?>
<svg id="Capa_1" xmlns="http://www.w3.org/2000/svg" width="200.1" height="200.1" version="1.1" viewBox="0 0 200.1 200.1">
  <!-- Generator: Adobe Illustrator 29.5.1, SVG Export Plug-In . SVG Version: 2.1.0 Build 141)  -->
  <defs>
    <style>
      .st0 {
        fill: #94d8ff;
      }

      .st1 {
        fill: #333;
      }
    </style>
  </defs>
  <rect class="st0" x="-11.4" y="-11.4" width="223" height="223"/>
  <path class="st1" d="M51.6,32.8c7.3,6.8,14.7,15.8,14,26.4-.2,3.8-1.6,7.3-3.7,10.5-3,4.6-7.7,7.7-13.1,8.6,8.9-8.2,3.2-22.9-5.4-29.1l-.8-.6c.3,3.2.4,5.9-1.3,8.7-1.3,2.2-3,4.1-3.9,6.6-2,5-.6,10.9,3.6,14.3-5.4-.9-10.2-4.1-13.1-8.6-3.8-5.8-4.8-13.2-2.2-19.6,2.7-7.4,10.3-12.6,11.7-20.7.3-2,.3-4,0-6,5.3,2.4,10.1,5.5,14.4,9.4h0Z"/>
  <g>
    <path class="st1" d="M29.6,123c-1.4,0-2.6-.3-3.7-.9-1-.6-1.8-1.4-2.4-2.5-.6-1.1-.9-2.3-.9-3.6s.2-2,.5-2.8c.3-.9.8-1.6,1.4-2.2.6-.6,1.3-1.1,2.2-1.5s1.8-.5,2.8-.5c1.6,0,2.9.3,3.9,1s1.8,1.7,2.4,3l-2.7,1c-.4-.8-1-1.3-1.5-1.7-.6-.4-1.3-.5-2.1-.5s-1.4.2-2,.5c-.6.4-1.1.8-1.4,1.5-.3.6-.5,1.4-.5,2.2s.2,1.6.5,2.2c.3.6.8,1.1,1.4,1.5s1.3.5,2,.5,1.5-.2,2.1-.5c.6-.3,1.1-.9,1.5-1.7l2.7,1c-.5,1.3-1.3,2.3-2.4,3s-2.3,1-3.9,1Z"/>
    <path class="st1" d="M36.6,115.9c0-1,.2-2,.5-2.8.3-.9.8-1.6,1.4-2.2.6-.6,1.4-1.1,2.2-1.5.9-.3,1.8-.5,2.8-.5s2,.2,2.8.5,1.6.8,2.2,1.5c.6.6,1.1,1.4,1.5,2.2.3.9.5,1.8.5,2.8s-.2,2-.5,2.8c-.3.9-.8,1.6-1.5,2.2-.6.6-1.4,1.1-2.2,1.5-.9.3-1.8.5-2.8.5s-2-.2-2.8-.5c-.9-.3-1.6-.8-2.2-1.5-.6-.6-1.1-1.4-1.4-2.2-.3-.9-.5-1.8-.5-2.8ZM39.6,115.9c0,.8.2,1.6.5,2.2s.8,1.1,1.4,1.5c.6.3,1.3.5,2.1.5s1.5-.2,2.1-.5c.6-.3,1.1-.8,1.4-1.5s.5-1.4.5-2.2-.2-1.6-.5-2.2c-.3-.6-.8-1.1-1.4-1.5-.6-.3-1.3-.5-2.1-.5s-1.5.2-2.1.5c-.6.3-1.1.8-1.4,1.5s-.5,1.4-.5,2.2Z"/>
    <path class="st1" d="M61.3,122.7l-7.5-10.1,1.3-.3v10.4h-2.9v-13.6h2.7l7.3,9.9-1.1.2v-10.1h2.9v13.6h-2.6Z"/>
    <path class="st1" d="M69.9,122.7l-4.6-13.6h3l3.9,11.6h-1.1l3.9-11.6h2.9l-4.6,13.6h-3.3Z"/>
    <path class="st1" d="M81.1,111.9l1-1.2v10.4l-1.1-1.2h6.9v2.8h-8.7v-13.6h8.7v2.8h-6.8ZM81.2,117.3v-2.8h5.6v2.8h-5.6Z"/>
    <path class="st1" d="M99.1,122.7l-7.5-10.1,1.3-.3v10.4h-2.9v-13.6h2.7l7.3,9.9-1.1.2v-10.1h2.9v13.6h-2.6Z"/>
    <path class="st1" d="M107,122.7h-2.9v-13.6h2.9v13.6Z"/>
    <path class="st1" d="M108.6,115.9c0-1,.2-2,.5-2.8.3-.9.8-1.6,1.4-2.2.6-.6,1.4-1.1,2.2-1.5.9-.3,1.8-.5,2.8-.5s2,.2,2.8.5c.9.3,1.6.8,2.2,1.5.6.6,1.1,1.4,1.5,2.2.3.9.5,1.8.5,2.8s-.2,2-.5,2.8c-.3.9-.8,1.6-1.5,2.2-.6.6-1.4,1.1-2.2,1.5-.9.3-1.8.5-2.8.5s-2-.2-2.8-.5c-.9-.3-1.6-.8-2.2-1.5-.6-.6-1.1-1.4-1.4-2.2-.3-.9-.5-1.8-.5-2.8ZM111.6,115.9c0,.8.2,1.6.5,2.2s.8,1.1,1.4,1.5c.6.3,1.3.5,2.1.5s1.5-.2,2.1-.5c.6-.3,1.1-.8,1.4-1.5s.5-1.4.5-2.2-.2-1.6-.5-2.2c-.3-.6-.8-1.1-1.4-1.5-.6-.3-1.3-.5-2.1-.5s-1.5.2-2.1.5c-.6.3-1.1.8-1.4,1.5s-.5,1.4-.5,2.2Z"/>
    <path class="st1" d="M29.6,145c-1.4,0-2.6-.3-3.6-.9-1-.6-1.9-1.4-2.4-2.5s-.9-2.2-.9-3.6.2-2,.5-2.9c.3-.9.8-1.6,1.4-2.3.6-.6,1.3-1.1,2.2-1.5.8-.3,1.8-.5,2.8-.5,1.6,0,2.9.3,3.9,1,1,.7,1.8,1.6,2.4,2.8l-2.7,1.1c-.4-.7-1-1.2-1.5-1.6-.6-.3-1.3-.5-2-.5s-1.4.2-2,.5c-.6.4-1.1.9-1.4,1.5-.3.6-.5,1.4-.5,2.3s.2,1.6.5,2.2c.3.6.8,1.1,1.4,1.5.6.4,1.3.5,2,.5s1.3-.1,1.9-.4c.5-.3,1-.6,1.3-1.1.3-.5.5-1.1.6-1.8l.8,1h-4.8v-2.6h6.6c0,.2,0,.4.1.7,0,.2,0,.5,0,.7,0,.9-.2,1.8-.5,2.5-.4.8-.8,1.4-1.4,2-.6.6-1.3,1-2.1,1.3s-1.6.4-2.5.4Z"/>
    <path class="st1" d="M36,144.7l4.8-13.6h3.2l4.6,13.6h-3l-3.7-11.6h1l-4,11.6h-2.9ZM38.9,139.5h6.4v2.7h-6.4v-2.7Z"/>
    <path class="st1" d="M54.3,145.1c-.8,0-1.5-.1-2.2-.3-.7-.2-1.3-.6-1.8-1.1-.5-.5-1-1.1-1.4-1.8l2.3-1.4c.4.6.9,1.1,1.4,1.5.6.3,1.2.5,1.9.5s1.1-.1,1.4-.4c.3-.3.5-.6.5-1s0-.5-.2-.7-.4-.4-.8-.6c-.4-.2-.9-.3-1.6-.5-1.1-.3-2-.6-2.6-1-.6-.4-1.1-.9-1.4-1.4-.3-.6-.4-1.2-.4-1.8s.2-1.5.6-2.1c.4-.6,1-1.1,1.7-1.5.7-.4,1.6-.5,2.6-.5s2.1.2,2.9.7c.8.5,1.4,1,1.9,1.8l-2.3,1.6c-.3-.5-.8-.8-1.2-1s-1-.3-1.4-.3-1,.1-1.3.3c-.3.2-.5.5-.5.9s.2.7.5.9c.3.2.9.5,1.9.7,1.1.3,2,.6,2.7,1s1.2.9,1.5,1.4c.3.6.5,1.2.5,2s-.2,1.5-.6,2.1c-.4.6-1,1.1-1.7,1.5-.7.4-1.6.5-2.7.5Z"/>
    <path class="st1" d="M31.7,166.7h-8.3v-13.6h2.9v11.9l-.7-1.1h6.1v2.8Z"/>
    <path class="st1" d="M36.3,166.7h-2.9v-13.6h2.9v13.6Z"/>
    <path class="st1" d="M44.8,167c-1.4,0-2.6-.3-3.7-.9-1-.6-1.8-1.4-2.4-2.5-.6-1.1-.9-2.3-.9-3.6s.2-2,.5-2.8c.3-.9.8-1.6,1.4-2.2.6-.6,1.3-1.1,2.2-1.5s1.8-.5,2.8-.5c1.6,0,2.9.3,3.9,1s1.8,1.7,2.4,3l-2.7,1c-.4-.8-1-1.3-1.5-1.7-.6-.4-1.3-.5-2.1-.5s-1.4.2-2,.5c-.6.4-1.1.8-1.4,1.5-.3.6-.5,1.4-.5,2.2s.2,1.6.5,2.2c.3.6.8,1.1,1.4,1.5s1.3.5,2,.5,1.5-.2,2.1-.5c.6-.3,1.1-.9,1.5-1.7l2.7,1c-.5,1.3-1.3,2.3-2.4,3s-2.3,1-3.9,1Z"/>
    <path class="st1" d="M58.1,167c-1.2,0-2.2-.2-3-.7-.8-.4-1.4-1.1-1.9-2s-.6-2-.6-3.3v-8h2.9v8c0,.9.2,1.7.7,2.2.4.5,1.1.8,2,.8s1.5-.3,1.9-.8c.4-.5.7-1.3.7-2.2v-8h2.9v8c0,1.3-.2,2.4-.6,3.3-.4.9-1.1,1.5-1.9,2-.8.4-1.8.7-3,.7Z"/>
    <path class="st1" d="M64.4,166.7l4.8-13.6h3.2l4.6,13.6h-3l-3.7-11.6h1l-4,11.6h-2.9ZM67.3,161.5h6.4v2.7h-6.4v-2.7Z"/>
    <path class="st1" d="M78.2,166.7v-13.6h4.8c1.4,0,2.6.3,3.6.8s1.8,1.3,2.4,2.3c.6,1,.8,2.2.8,3.7s-.3,2.7-.8,3.7c-.6,1-1.3,1.8-2.4,2.3-1,.5-2.2.8-3.7.8h-4.7ZM81.2,165l-1.2-1.1h2.8c.8,0,1.5-.1,2.1-.4.6-.3,1.1-.7,1.4-1.3.3-.6.5-1.3.5-2.3s-.2-1.7-.5-2.3c-.3-.6-.8-1-1.4-1.3-.6-.3-1.3-.4-2.1-.4h-2.9l1.3-.9v9.9Z"/>
    <path class="st1" d="M90.8,159.9c0-1,.2-2,.5-2.8.3-.9.8-1.6,1.4-2.2.6-.6,1.4-1.1,2.2-1.5.9-.3,1.8-.5,2.8-.5s2,.2,2.8.5c.9.3,1.6.8,2.2,1.5.6.6,1.1,1.4,1.5,2.2s.5,1.8.5,2.8-.2,2-.5,2.8c-.3.9-.8,1.6-1.5,2.2-.6.6-1.4,1.1-2.2,1.5-.9.3-1.8.5-2.8.5s-2-.2-2.8-.5c-.9-.3-1.6-.8-2.2-1.5-.6-.6-1.1-1.4-1.4-2.2-.3-.9-.5-1.8-.5-2.8ZM93.7,159.9c0,.8.2,1.6.5,2.2s.8,1.1,1.4,1.5c.6.3,1.3.5,2.1.5s1.5-.2,2.1-.5c.6-.3,1.1-.8,1.4-1.5.3-.6.5-1.4.5-2.2s-.2-1.6-.5-2.2c-.3-.6-.8-1.1-1.4-1.5-.6-.3-1.3-.5-2.1-.5s-1.5.2-2.1.5c-.6.3-1.1.8-1.4,1.5s-.5,1.4-.5,2.2Z"/>
  </g>
</svg>