<?xml version="1.0" encoding="UTF-8"?>
<svg id="Capa_1" xmlns="http://www.w3.org/2000/svg" width="200.1" height="200.1" version="1.1" viewBox="0 0 200.1 200.1">
  <!-- Generator: Adobe Illustrator 29.5.1, SVG Export Plug-In . SVG Version: 2.1.0 Build 141)  -->
  <defs>
    <style>
      .st0 {
        fill: #333;
      }

      .st1 {
        fill: #ceebef;
      }
    </style>
  </defs>
  <rect class="st1" x="-11.4" y="-11.4" width="223" height="223"/>
  <g>
    <path class="st0" d="M28.2,53.4l4.3-4.3c2.6-5.7,5.4-10.4,8.3-14.3h-6.5l-12,20,6.1,1.6v-3h-.1Z"/>
    <path class="st0" d="M47.2,72.4h-3l1.6,6.1,20-12v-6.5c-3.7,2.9-8.5,5.7-14.3,8.2l-4.3,4.3Z"/>
    <path class="st0" d="M25.8,66.3c-3.4,3.4-3.4,9.2-3.4,9.9v2.1h2.1c.7,0,6.7,0,9.9-3.4,2.3-2.3,2.3-6.2,0-8.7-2.3-2.3-6.2-2.3-8.7,0Z"/>
    <circle class="st0" cx="56.2" cy="44.4" r="2.1"/>
    <path class="st0" d="M76.4,25.5l-.4-.9-.9-.4c-.1,0-6.2-2.1-14.3.5,2.3,7.9,7.4,13,15,15.1,2.7-8.1.6-14.1.5-14.3h.1Z"/>
    <path class="st0" d="M47.9,65.7l-13-13-2.5,2.5v5l7.8,7.8h5l2.5-2.5h.1Z"/>
    <path class="st0" d="M57,26.3c-6.4,3.3-13.7,9.8-19.8,22.8l14.3,14.3c12.9-6.1,19.5-13.2,22.7-19.6-8.7-2.6-14.5-8.4-17.3-17.4h.1ZM56.2,50.9c-3.5,0-6.3-2.8-6.3-6.3s2.8-6.3,6.3-6.3,6.3,2.8,6.3,6.3-2.8,6.3-6.3,6.3Z"/>
  </g>
  <g>
    <path class="st0" d="M25.4,111.9l1-1.2v10.4l-1.1-1.2h6.9v2.8h-8.7v-13.6h8.7v2.8h-6.8ZM25.4,117.3v-2.8h5.6v2.8h-5.6Z"/>
    <path class="st0" d="M33.4,122.7l2.4-13.6h2.6l3.3,9.3h-.1l3.3-9.3h2.6l2.4,13.6h-2.9l-.9-6.1c-.1-.8-.2-1.6-.3-2.4-.1-.8-.2-1.6-.2-2.4h.8c-.2.9-.4,1.7-.6,2.5-.2.8-.4,1.6-.7,2.3l-2.1,6h-2.3l-2.1-6c-.3-.8-.5-1.6-.7-2.3s-.4-1.6-.6-2.5h.8c0,.8-.1,1.6-.2,2.4,0,.8-.2,1.6-.3,2.4l-.9,6.1h-2.9Z"/>
    <path class="st0" d="M53.7,116.1h2.4c.7,0,1.3-.2,1.7-.5.4-.4.6-.9.6-1.5s-.2-1.2-.6-1.6c-.4-.4-1-.5-1.7-.5h-2.5l.7-.7v11.5h-2.9v-13.6h4.9c1,0,1.9.2,2.7.6.8.4,1.3,1,1.8,1.7.4.7.6,1.6.6,2.6s-.2,1.9-.6,2.6-1,1.3-1.8,1.7c-.8.4-1.7.6-2.7.6h-2.7v-2.8Z"/>
    <path class="st0" d="M71.3,122.7h-8.3v-13.6h2.9v11.9l-.7-1.1h6.1v2.8Z"/>
    <path class="st0" d="M74.8,111.9l1-1.2v10.4l-1.1-1.2h6.9v2.8h-8.7v-13.6h8.7v2.8h-6.8ZM74.9,117.3v-2.8h5.6v2.8h-5.6Z"/>
    <path class="st0" d="M82.8,115.9c0-1,.2-2,.5-2.8.3-.9.8-1.6,1.4-2.2.6-.6,1.4-1.1,2.2-1.5.9-.3,1.8-.5,2.8-.5s2,.2,2.8.5c.9.3,1.6.8,2.2,1.5.6.6,1.1,1.4,1.5,2.2.3.9.5,1.8.5,2.8s-.2,2-.5,2.8c-.3.9-.8,1.6-1.5,2.2-.6.6-1.4,1.1-2.2,1.5-.9.3-1.8.5-2.8.5s-2-.2-2.8-.5c-.9-.3-1.6-.8-2.2-1.5-.6-.6-1.1-1.4-1.4-2.2-.3-.9-.5-1.8-.5-2.8ZM85.8,115.9c0,.8.2,1.6.5,2.2s.8,1.1,1.4,1.5c.6.3,1.3.5,2.1.5s1.5-.2,2.1-.5c.6-.3,1.1-.8,1.4-1.5s.5-1.4.5-2.2-.2-1.6-.5-2.2c-.3-.6-.8-1.1-1.4-1.5-.6-.3-1.3-.5-2.1-.5s-1.5.2-2.1.5c-.6.3-1.1.8-1.4,1.5s-.5,1.4-.5,2.2Z"/>
    <path class="st0" d="M29.6,145c-1.4,0-2.6-.3-3.7-.9-1-.6-1.8-1.4-2.4-2.5-.6-1.1-.8-2.3-.8-3.6s.2-2,.5-2.8.8-1.6,1.4-2.2c.6-.6,1.3-1.1,2.2-1.5s1.8-.5,2.8-.5c1.6,0,2.9.3,3.9,1,1,.7,1.8,1.7,2.4,3l-2.7,1c-.4-.8-1-1.3-1.5-1.7-.6-.4-1.3-.5-2.1-.5s-1.4.2-2,.5c-.6.4-1.1.8-1.4,1.5-.3.6-.5,1.4-.5,2.2s.2,1.6.5,2.2c.3.6.8,1.1,1.4,1.5.6.3,1.3.5,2,.5s1.5-.2,2.1-.5c.6-.3,1.1-.9,1.5-1.7l2.7,1c-.5,1.3-1.3,2.3-2.4,3-1,.7-2.3,1-3.9,1Z"/>
    <path class="st0" d="M35.9,144.7l4.8-13.6h3.2l4.6,13.6h-3l-3.7-11.6h1l-4,11.6h-2.9ZM38.9,139.5h6.4v2.7h-6.4v-2.7Z"/>
    <path class="st0" d="M52,138.1h2.4c.7,0,1.3-.2,1.7-.5.4-.4.6-.9.6-1.5s-.2-1.2-.6-1.6c-.4-.4-1-.5-1.7-.5h-2.5l.7-.7v11.5h-2.9v-13.6h4.9c1,0,1.9.2,2.7.6.8.4,1.3,1,1.8,1.7.4.7.6,1.6.6,2.6s-.2,1.9-.6,2.6-1,1.3-1.8,1.7c-.8.4-1.7.6-2.7.6h-2.7v-2.8Z"/>
    <path class="st0" d="M58.7,144.7l4.8-13.6h3.2l4.6,13.6h-3l-3.7-11.6h1l-4,11.6h-2.9ZM61.7,139.5h6.4v2.7h-6.4v-2.7Z"/>
    <path class="st0" d="M78.2,145c-1.4,0-2.6-.3-3.7-.9-1-.6-1.8-1.4-2.4-2.5-.6-1.1-.8-2.3-.8-3.6s.2-2,.5-2.8.8-1.6,1.4-2.2c.6-.6,1.3-1.1,2.2-1.5s1.8-.5,2.8-.5c1.6,0,2.9.3,3.9,1,1,.7,1.8,1.7,2.4,3l-2.7,1c-.4-.8-1-1.3-1.5-1.7-.6-.4-1.3-.5-2.1-.5s-1.4.2-2,.5c-.6.4-1.1.8-1.4,1.5-.3.6-.5,1.4-.5,2.2s.2,1.6.5,2.2c.3.6.8,1.1,1.4,1.5.6.3,1.3.5,2,.5s1.5-.2,2.1-.5c.6-.3,1.1-.9,1.5-1.7l2.7,1c-.5,1.3-1.3,2.3-2.4,3-1,.7-2.3,1-3.9,1Z"/>
    <path class="st0" d="M88.9,144.7h-2.9v-13.6h2.9v13.6Z"/>
    <path class="st0" d="M90.3,133.9v-2.8h11.1v2.8h-11.1ZM94.4,144.7v-12.2h2.9v12.2h-2.9Z"/>
    <path class="st0" d="M100,144.7l4.8-13.6h3.2l4.6,13.6h-3l-3.7-11.6h1l-4,11.6h-2.9ZM103,139.5h6.4v2.7h-6.4v-2.7Z"/>
    <path class="st0" d="M25.4,155.9l1-1.2v10.4l-1.1-1.2h6.9v2.8h-8.7v-13.6h8.7v2.8h-6.8ZM25.4,161.3v-2.8h5.6v2.8h-5.6Z"/>
    <path class="st0" d="M33.4,166.7l2.4-13.6h2.6l3.3,9.3h-.1l3.3-9.3h2.6l2.4,13.6h-2.9l-.9-6.1c-.1-.8-.2-1.6-.3-2.4-.1-.8-.2-1.6-.2-2.4h.8c-.2.9-.4,1.7-.6,2.5-.2.8-.4,1.6-.7,2.3l-2.1,6h-2.3l-2.1-6c-.3-.8-.5-1.6-.7-2.3s-.4-1.6-.6-2.5h.8c0,.8-.1,1.6-.2,2.4,0,.8-.2,1.6-.3,2.4l-.9,6.1h-2.9Z"/>
    <path class="st0" d="M53.7,160.1h2.4c.7,0,1.3-.2,1.7-.5.4-.4.6-.9.6-1.5s-.2-1.2-.6-1.6c-.4-.4-1-.5-1.7-.5h-2.5l.7-.7v11.5h-2.9v-13.6h4.9c1,0,1.9.2,2.7.6.8.4,1.3,1,1.8,1.7.4.7.6,1.6.6,2.6s-.2,1.9-.6,2.6-1,1.3-1.8,1.7c-.8.4-1.7.6-2.7.6h-2.7v-2.8Z"/>
    <path class="st0" d="M63,166.7v-13.6h5c1,0,1.8.2,2.6.6s1.4.9,1.8,1.6c.4.7.7,1.5.7,2.5s-.2,1.8-.7,2.5c-.4.7-1.1,1.2-1.8,1.6s-1.6.6-2.6.6h-2.7v-2.8h2.5c.7,0,1.3-.2,1.7-.5.4-.3.6-.8.6-1.4s-.2-1.1-.6-1.4c-.4-.3-1-.5-1.7-.5h-2.5l.7-.7v11.5h-2.9ZM70.1,166.7l-2.9-5.5h3.2l2.9,5.5h-3.2Z"/>
    <path class="st0" d="M76.9,155.9l1-1.2v10.4l-1.1-1.2h6.9v2.8h-8.7v-13.6h8.7v2.8h-6.8ZM77,161.3v-2.8h5.6v2.8h-5.6Z"/>
    <path class="st0" d="M94.8,166.7l-7.5-10.1,1.3-.3v10.4h-2.9v-13.6h2.7l7.3,9.9-1.1.2v-10.1h2.9v13.6h-2.6Z"/>
    <path class="st0" d="M99.9,166.7v-13.6h4.8c1.4,0,2.6.3,3.7.8,1,.5,1.8,1.3,2.4,2.3.6,1,.8,2.2.8,3.7s-.3,2.7-.8,3.7c-.6,1-1.3,1.8-2.4,2.3-1,.5-2.2.8-3.7.8h-4.7ZM102.8,165l-1.2-1.1h2.8c.8,0,1.5-.1,2.1-.4.6-.3,1.1-.7,1.4-1.3.3-.6.5-1.3.5-2.3s-.2-1.7-.5-2.3c-.3-.6-.8-1-1.4-1.3-.6-.3-1.3-.4-2.1-.4h-2.9l1.3-.9v9.9Z"/>
    <path class="st0" d="M115,155.9l1-1.2v10.4l-1.1-1.2h6.9v2.8h-8.7v-13.6h8.7v2.8h-6.8ZM115,161.3v-2.8h5.6v2.8h-5.6Z"/>
  </g>
</svg>