<?xml version="1.0" encoding="UTF-8"?>
<svg id="Capa_1" xmlns="http://www.w3.org/2000/svg" width="200.1" height="200.1" version="1.1" viewBox="0 0 200.1 200.1">
  <!-- Generator: Adobe Illustrator 29.5.1, SVG Export Plug-In . SVG Version: 2.1.0 Build 141)  -->
  <defs>
    <style>
      .st0 {
        fill: #fff;
      }

      .st1 {
        fill: #1a1e21;
      }
    </style>
  </defs>
  <rect class="st1" x="-22.1" y="-22.1" width="244.4" height="244.4"/>
  <g>
    <path class="st0" d="M31,123.1c-1.7,0-3.2-.4-4.5-1.1s-2.2-1.7-2.9-3c-.7-1.3-1-2.7-1-4.4s.2-2.4.6-3.4c.4-1,1-1.9,1.7-2.7.7-.8,1.6-1.3,2.6-1.8s2.2-.6,3.4-.6c2,0,3.6.4,4.8,1.3,1.3.9,2.2,2.2,2.8,3.9l-3.8,1.6c-.4-.9-.9-1.5-1.5-2-.6-.5-1.4-.7-2.3-.7s-1.4.2-2,.5c-.6.3-1.1.8-1.4,1.5-.3.6-.5,1.4-.5,2.3s.2,1.7.5,2.3c.3.6.8,1.1,1.4,1.5.6.3,1.3.5,2,.5s1.7-.2,2.3-.7c.6-.5,1.1-1.1,1.5-2l3.8,1.6c-.6,1.7-1.5,3.1-2.8,3.9-1.3.9-2.9,1.3-4.8,1.3Z"/>
    <path class="st0" d="M39,114.6c0-1.2.2-2.4.6-3.4.4-1,1-1.9,1.7-2.7.7-.8,1.6-1.3,2.6-1.8s2.2-.6,3.4-.6,2.4.2,3.4.6c1,.4,1.9,1,2.7,1.8s1.3,1.7,1.7,2.7.6,2.2.6,3.4-.2,2.4-.6,3.4-1,1.9-1.7,2.7c-.7.8-1.6,1.3-2.7,1.8-1,.4-2.2.6-3.4.6s-2.4-.2-3.4-.6c-1-.4-1.9-1-2.6-1.8-.7-.8-1.3-1.7-1.7-2.7-.4-1-.6-2.2-.6-3.4ZM43.5,114.6c0,.9.2,1.7.5,2.3.3.6.8,1.1,1.4,1.4.6.3,1.3.5,2,.5s1.5-.2,2.1-.5c.6-.3,1.1-.8,1.4-1.4s.5-1.4.5-2.3-.2-1.7-.5-2.3-.8-1.1-1.4-1.4c-.6-.3-1.3-.5-2.1-.5s-1.4.2-2,.5c-.6.3-1.1.8-1.4,1.4-.3.6-.5,1.4-.5,2.3Z"/>
    <path class="st0" d="M67.5,122.7l-7.7-10.9,1.6-.4v11.3h-4.3v-16.3h4.1l7.7,10.9-1.6.4v-11.3h4.4v16.3h-4.1Z"/>
    <path class="st0" d="M72.8,110.6v-4.2h13.6v4.2h-13.6ZM77.4,122.7v-14.8h4.4v14.8h-4.4Z"/>
    <path class="st0" d="M84.1,122.7l5.8-16.3h4.3l5.3,16.3h-4.4l-3.9-13.4h1.7l-4.5,13.4h-4.3ZM88,116.3h6.8v4h-6.8v-4Z"/>
    <path class="st0" d="M107.4,123.1c-1.7,0-3.2-.4-4.5-1.1s-2.2-1.7-2.9-3c-.7-1.3-1-2.7-1-4.4s.2-2.4.6-3.4c.4-1,1-1.9,1.7-2.7.7-.8,1.6-1.3,2.6-1.8s2.2-.6,3.4-.6c2,0,3.6.4,4.8,1.3,1.3.9,2.2,2.2,2.8,3.9l-3.8,1.6c-.4-.9-.9-1.5-1.5-2-.6-.5-1.4-.7-2.3-.7s-1.4.2-2,.5c-.6.3-1.1.8-1.4,1.5-.3.6-.5,1.4-.5,2.3s.2,1.7.5,2.3c.3.6.8,1.1,1.4,1.5.6.3,1.3.5,2,.5s1.7-.2,2.3-.7c.6-.5,1.1-1.1,1.5-2l3.8,1.6c-.6,1.7-1.5,3.1-2.8,3.9-1.3.9-2.9,1.3-4.8,1.3Z"/>
    <path class="st0" d="M115.4,110.6v-4.2h13.6v4.2h-13.6ZM120,122.7v-14.8h4.4v14.8h-4.4Z"/>
    <path class="st0" d="M129.1,114.6c0-1.2.2-2.4.6-3.4.4-1,1-1.9,1.7-2.7.7-.8,1.6-1.3,2.6-1.8s2.2-.6,3.4-.6,2.4.2,3.4.6c1,.4,1.9,1,2.7,1.8s1.3,1.7,1.7,2.7.6,2.2.6,3.4-.2,2.4-.6,3.4-1,1.9-1.7,2.7c-.7.8-1.6,1.3-2.7,1.8-1,.4-2.2.6-3.4.6s-2.4-.2-3.4-.6c-1-.4-1.9-1-2.6-1.8-.7-.8-1.3-1.7-1.7-2.7-.4-1-.6-2.2-.6-3.4ZM133.5,114.6c0,.9.2,1.7.5,2.3.3.6.8,1.1,1.4,1.4.6.3,1.3.5,2,.5s1.5-.2,2.1-.5c.6-.3,1.1-.8,1.4-1.4s.5-1.4.5-2.3-.2-1.7-.5-2.3-.8-1.1-1.4-1.4c-.6-.3-1.3-.5-2.1-.5s-1.4.2-2,.5c-.6.3-1.1.8-1.4,1.4-.3.6-.5,1.4-.5,2.3Z"/>
    <path class="st0" d="M22.5,145.7l2.8-16.3h3.9l3.5,10.6h-.4l3.5-10.6h3.9l2.8,16.3h-4.3l-1-6.9c-.1-.9-.2-1.7-.3-2.6-.1-.9-.2-1.7-.3-2.6h1.2c-.2.8-.4,1.7-.6,2.6-.2.9-.4,1.7-.7,2.6l-2.3,6.9h-3.4l-2.3-6.9c-.3-.8-.5-1.7-.7-2.6-.2-.9-.4-1.7-.6-2.6h1.3c-.1.9-.2,1.8-.3,2.6s-.2,1.7-.3,2.6l-1,6.9h-4.3Z"/>
    <path class="st0" d="M50.6,146.1c-1.6,0-2.9-.3-3.9-.9-1-.6-1.8-1.4-2.3-2.5-.5-1.1-.7-2.5-.7-4.2v-9.1h4.4v9.5c0,.9.2,1.7.6,2.2.4.5,1,.8,1.9.8s1.5-.3,1.9-.8c.4-.5.6-1.2.6-2.2v-9.5h4.4v9.1c0,1.7-.2,3.1-.7,4.2-.5,1.1-1.2,2-2.2,2.5-1,.6-2.3.9-3.9.9Z"/>
    <path class="st0" d="M69.8,145.7l-7.7-10.9,1.6-.4v11.3h-4.3v-16.3h4.1l7.7,10.9-1.6.4v-11.3h4.4v16.3h-4.1Z"/>
    <path class="st0" d="M80.1,145.7h-4.3v-16.3h4.3v16.3Z"/>
    <path class="st0" d="M89.8,146.1c-1.7,0-3.2-.4-4.5-1.1s-2.2-1.7-2.9-3c-.7-1.3-1-2.7-1-4.4s.2-2.4.6-3.4c.4-1,1-1.9,1.7-2.7.7-.8,1.6-1.3,2.6-1.8s2.2-.6,3.4-.6c2,0,3.6.4,4.8,1.3,1.3.9,2.2,2.2,2.8,3.9l-3.8,1.6c-.4-.9-.9-1.5-1.5-2-.6-.5-1.4-.7-2.3-.7s-1.4.2-2,.5c-.6.3-1.1.8-1.4,1.5-.3.6-.5,1.4-.5,2.3s.2,1.7.5,2.3c.3.6.8,1.1,1.4,1.5.6.3,1.3.5,2,.5s1.7-.2,2.3-.7c.6-.5,1.1-1.1,1.5-2l3.8,1.6c-.6,1.7-1.5,3.1-2.8,3.9-1.3.9-2.9,1.3-4.8,1.3Z"/>
    <path class="st0" d="M102.9,145.7h-4.3v-16.3h4.3v16.3Z"/>
    <path class="st0" d="M108.2,137.6h2.6c.7,0,1.3-.2,1.7-.5.4-.3.6-.8.6-1.5s-.2-1.2-.6-1.5c-.4-.3-.9-.5-1.7-.5h-2.6l1.1-.9v13.1h-4.3v-16.3h6c1.3,0,2.4.2,3.4.7,1,.5,1.7,1.2,2.3,2.1.5.9.8,2.1.8,3.4s-.3,2.5-.8,3.4c-.5.9-1.3,1.6-2.3,2.1-1,.5-2.1.7-3.4.7h-2.7v-4.2Z"/>
    <path class="st0" d="M115.3,145.7l5.8-16.3h4.3l5.3,16.3h-4.4l-3.9-13.4h1.7l-4.5,13.4h-4.3ZM119.3,139.3h6.8v4h-6.8v-4Z"/>
    <path class="st0" d="M142.1,145.7h-10.3v-16.3h4.3v14.2l-1.3-2h7.3v4.2Z"/>
  </g>
  <g>
    <path class="st0" d="M48.6,53.7c2.9,1.2,6.2,1.1,9.1-.1.8-.3,1.2-1.3.8-2-.3-.8-1.3-1.2-2-.8h0c-4.5,1.9-9.7-.1-11.6-4.6-1.9-4.5.1-9.7,4.6-11.6s9.7.1,11.6,4.6c.5,1.1.7,2.3.7,3.5v1.1h0c0,0,0,0,0,0,0,1.1-.7,2-1.8,2.1-.9,0-1.7-.8-1.7-1.7,0,0,0,0,0,0v-5c0-.9-.7-1.6-1.6-1.6h0c-.4,0-.7.1-1,.4-2.5-1.6-5.8-.8-7.4,1.7-1.6,2.5-.8,5.8,1.7,7.4,1.9,1.2,4.2,1.1,6-.2.9,1.3,2.4,2.1,4,2.1,2.8-.2,4.9-2.5,4.8-5.3h0v-1.1c0-6.6-5.4-11.9-11.9-11.9-6.6,0-11.9,5.4-11.9,11.9,0,4.9,3,9.3,7.5,11.1h0ZM53,44.8c-1.3,0-2.3-1-2.3-2.3,0-1.3,1-2.3,2.3-2.3,1.2,0,2.3,1,2.3,2.3,0,1.3-1,2.3-2.3,2.3,0,0,0,0,0,0Z"/>
    <path class="st0" d="M83.3,44.5c-.2-.7-.6-1.3-1-1.9l-8.3-10v-2.9c0-3.1-2.6-5.7-5.7-5.7h-30.4c-3.1,0-5.7,2.6-5.7,5.7v3l-8.3,10c-.9,1-1.3,2.3-1.3,3.6v29c0,5.4,4.4,9.8,9.8,9.8h41.5c2.6,0,5-1,6.8-2.8h0c1.9-1.9,3-4.4,3-7.1v-29c0-.6,0-1.1-.3-1.7,0,0,0,0,0-.1ZM79.3,79.1l-18.5-16.1,19.8-15.1v27.3c0,1.4-.4,2.7-1.2,3.8ZM79.8,44.6l-5.9,4.5v-11.5l5.9,7.1ZM37.8,27.1h30.4c1.4,0,2.6,1.2,2.6,2.6v21.7l-12.5,9.5-1.9-1.7c-2-1.7-4.9-1.7-6.8,0l-1.9,1.6-12.5-9.5v-21.7c0-1.4,1.2-2.6,2.6-2.6ZM26.7,79.1c-.8-1.1-1.2-2.5-1.2-3.8v-27.3l19.8,15.1-18.5,16.1ZM32.1,49l-5.9-4.5,5.9-7v11.5ZM53,82h-20.7c-1.1,0-2.2-.3-3.2-.8l22.5-19.5c.8-.7,2-.7,2.8,0l22.5,19.5c-1,.5-2.1.8-3.2.8h-20.7Z"/>
  </g>
</svg>