<?xml version="1.0" encoding="utf-8"?>
<!-- Generator: Adobe Illustrator 16.0.0, SVG Export Plug-In . SVG Version: 6.00 Build 0)  -->
<!DOCTYPE svg PUBLIC "-//W3C//DTD SVG 1.1//EN" "http://www.w3.org/Graphics/SVG/1.1/DTD/svg11.dtd">
<svg version="1.1" id="Capa_1" xmlns="http://www.w3.org/2000/svg" xmlns:xlink="http://www.w3.org/1999/xlink" x="0px" y="0px"
	 width="191.991px" height="61.087px" viewBox="-367.001 164.667 191.991 61.087"
	 enable-background="new -367.001 164.667 191.991 61.087" xml:space="preserve">
<g>
	<polygon fill="#FFFFFF" points="-337.284,183.556 -339.471,183.556 -350.461,195.14 -339.471,206.725 -337.284,206.725 
		-343.618,195.14 	"/>
	<polygon fill="#FFFFFF" points="-314.003,206.725 -311.813,206.725 -300.827,195.14 -311.813,183.556 -314.003,183.556 
		-307.666,195.14 	"/>
	<polygon fill="#99CEAF" points="-313.879,183.105 -313.879,180.916 -325.435,169.93 -336.99,180.916 -336.99,183.105 
		-325.435,176.771 	"/>
	<polygon fill="#99CEAF" points="-336.99,207.313 -336.99,209.502 -325.435,220.491 -313.879,209.502 -313.879,207.313 
		-325.435,213.649 	"/>
	<g>
		<path fill="#FFFFFF" d="M-294.575,182.313c0.523,1.029,1.485,1.727,2.855,1.727c1.583,0,1.925-0.93,1.925-1.482
			c0-1.027-0.93-1.417-2.318-1.938c-1.827-0.687-3.26-1.438-3.26-3.444c0-1.875,1.597-3.066,3.524-3.066
			c1.729,0,2.838,0.799,3.506,1.843l-1.452,0.995c-0.407-0.637-1.042-1.012-2.022-1.012c-0.897,0-1.55,0.509-1.55,1.206
			c0,1.045,0.912,1.226,2.576,1.912c2.073,0.83,3.035,1.709,3.035,3.455c0,1.928-1.304,3.361-3.979,3.361
			c-2.171,0-3.67-1.027-4.373-2.595L-294.575,182.313z"/>
		<path fill="#FFFFFF" d="M-286.08,174.285h2.04v6.819c0,2.023,1.054,2.902,2.603,2.902c1.534,0,2.587-0.879,2.587-2.902v-6.819
			h2.039v7.03c0,3.034-2.064,4.536-4.625,4.536c-2.577,0-4.643-1.502-4.643-4.536V174.285z"/>
		<path fill="#FFFFFF" d="M-273.89,182.313c0.521,1.029,1.484,1.727,2.854,1.727c1.582,0,1.924-0.93,1.924-1.482
			c0-1.027-0.929-1.417-2.315-1.938c-1.827-0.687-3.263-1.438-3.263-3.444c0-1.875,1.599-3.066,3.525-3.066
			c1.728,0,2.836,0.799,3.508,1.843l-1.452,0.995c-0.412-0.637-1.045-1.012-2.024-1.012c-0.897,0-1.548,0.509-1.548,1.206
			c0,1.045,0.914,1.226,2.577,1.912c2.071,0.83,3.035,1.709,3.035,3.455c0,1.928-1.307,3.361-3.979,3.361
			c-2.172,0-3.671-1.027-4.375-2.595L-273.89,182.313z"/>
		<path fill="#FFFFFF" d="M-263.465,176.139h-3.153v-1.854h8.342v1.854h-3.15v9.453h-2.038V176.139L-263.465,176.139z"/>
		<path fill="#FFFFFF" d="M-254.299,174.285h1.729l4.749,11.307h-2.153l-0.933-2.225h-5.057l-0.931,2.225h-2.153L-254.299,174.285z
			 M-251.541,181.699l-1.893-4.631l-1.894,4.631H-251.541z"/>
		<path fill="#FFFFFF" d="M-246.045,174.285h2.041v11.307h-2.041V174.285z"/>
		<path fill="#FFFFFF" d="M-241.41,174.285h1.71l6.074,7.911v-7.911h1.854v11.307h-1.599l-6.187-7.964v7.964h-1.853V174.285z"/>
		<path fill="#FFFFFF" d="M-225.329,174.285h1.733l4.745,11.307h-2.153l-0.931-2.225h-5.06l-0.931,2.225h-2.154L-225.329,174.285z
			 M-222.571,181.699l-1.891-4.631l-1.895,4.631H-222.571z"/>
		<path fill="#FFFFFF" d="M-217.129,174.285h4.019c1.779,0,3.182,1.231,3.182,2.913c0,1.094-0.537,1.946-1.452,2.289
			c1.5,0.274,2.283,1.364,2.283,2.784c0,1.923-1.468,3.321-3.457,3.321h-4.575V174.285z M-213.388,178.918
			c0.865,0,1.472-0.604,1.472-1.422c0-0.749-0.605-1.355-1.452-1.355h-1.72v2.78h1.7V178.918z M-212.896,183.738
			c1.028,0,1.777-0.662,1.777-1.591c0-0.914-0.733-1.561-1.794-1.561h-2.174v3.151H-212.896z"/>
		<path fill="#FFFFFF" d="M-207.12,174.285h2.039v9.453h4.449v1.854h-6.489v-11.307H-207.12z"/>
		<path fill="#FFFFFF" d="M-198.778,174.285h7.228v1.854h-5.189v2.779h4.818v1.855h-4.818v2.965h5.189v1.854h-7.228V174.285z"/>
		<path fill="#FFFFFF" d="M-293.123,191.709h-2.967v-1.854h8.156v1.854h-3.151v9.64h-2.038V191.709z"/>
		<path fill="#FFFFFF" d="M-286.266,189.856h4.349c2.023,0,3.688,1.59,3.688,3.647c0,1.5-0.849,2.765-2.069,3.271l2.758,4.575
			h-2.301l-2.433-4.076h-0.032h-1.917v4.076h-2.04v-11.494H-286.266z M-282.127,195.418c1.107,0,1.875-0.794,1.875-1.888
			c0-1.043-0.735-1.821-1.713-1.821h-2.262v3.705h2.1V195.418z"/>
		<path fill="#FFFFFF" d="M-272.487,189.856h1.73l4.747,11.492h-2.155l-0.929-2.225h-5.057l-0.931,2.225h-2.153L-272.487,189.856z
			 M-269.729,197.271l-1.894-4.634l-1.893,4.634H-269.729z"/>
		<path fill="#FFFFFF" d="M-264.395,189.856h1.809l5.978,7.977v-7.977h2.037v11.492h-1.688l-6.098-8.084v8.084h-2.038
			L-264.395,189.856L-264.395,189.856z"/>
		<path fill="#FFFFFF" d="M-251.461,197.947c0.523,1.027,1.484,1.729,2.857,1.729c1.583,0,1.922-0.931,1.922-1.484
			c0-1.027-0.927-1.418-2.313-1.942c-1.828-0.682-3.264-1.436-3.264-3.44c0-1.879,1.6-3.07,3.524-3.07
			c1.73,0,2.838,0.801,3.505,1.847l-1.452,0.995c-0.405-0.635-1.04-1.01-2.021-1.01c-0.899,0-1.55,0.506-1.55,1.206
			c0,1.045,0.912,1.224,2.576,1.91c2.072,0.831,3.036,1.711,3.036,3.457c0,1.925-1.302,3.36-3.98,3.36
			c-2.172,0-3.67-1.027-4.373-2.594L-251.461,197.947z"/>
		<path fill="#FFFFFF" d="M-242.892,189.856h4.414c1.813,0,3.705,1.416,3.705,3.715c0,2.173-1.811,3.7-3.705,3.7h-2.376v4.077
			h-2.037V189.856z M-238.574,195.418c0.816,0,1.779-0.589,1.779-1.847c0-1.286-0.962-1.858-1.779-1.858h-2.279v3.705H-238.574z"/>
		<path fill="#FFFFFF" d="M-227.546,189.737c3.346,0,6.02,2.563,6.02,5.908s-2.674,5.889-6.02,5.889
			c-3.33,0-6.003-2.544-6.003-5.889S-230.876,189.737-227.546,189.737z M-227.546,199.692c2.268,0,3.996-1.762,3.996-4.044
			c0-2.27-1.728-4.063-3.996-4.063c-2.269,0-3.999,1.776-3.999,4.063C-231.545,197.947-229.815,199.692-227.546,199.692z"/>
		<path fill="#FFFFFF" d="M-219.723,189.856h4.509c2.024,0,3.688,1.59,3.688,3.647c0,1.5-0.848,2.765-2.072,3.271l2.758,4.575
			h-2.301l-2.43-4.076h-0.036h-2.079v4.076h-2.038V189.856z M-215.427,195.418c1.111,0,1.878-0.794,1.878-1.888
			c0-1.043-0.734-1.821-1.714-1.821h-2.422v3.705h2.258V195.418z"/>
		<path fill="#FFFFFF" d="M-207.49,191.709h-3.151v-1.854h8.342v1.854h-3.151v9.64h-2.038v-9.64H-207.49z"/>
		<path fill="#FFFFFF" d="M-291.327,205.613h1.728l4.748,11.306h-2.155l-0.93-2.226h-5.057l-0.929,2.226h-2.154L-291.327,205.613z
			 M-288.57,213.023l-1.893-4.63l-1.892,4.63H-288.57z"/>
		<path fill="#FFFFFF" d="M-285.798,205.613h1.991l2.301,7.633l2.349-7.633h1.532l2.35,7.633l2.316-7.633h1.975l-3.393,11.306
			h-1.615l-2.399-7.633l-2.414,7.633h-1.597L-285.798,205.613z"/>
		<path fill="#FFFFFF" d="M-267.236,205.613h1.73l4.747,11.306h-2.153l-0.929-2.226h-5.057l-0.931,2.226h-2.151L-267.236,205.613z
			 M-264.479,213.023l-1.893-4.63l-1.893,4.63H-264.479z"/>
		<path fill="#FFFFFF" d="M-259.204,205.613h4.497c2.024,0,3.689,1.529,3.689,3.582c0,1.502-0.85,2.703-2.072,3.207l2.755,4.517
			h-2.299l-2.432-4.077h-0.032h-2.066v4.077h-2.04V205.613z M-254.917,210.986c1.109,0,1.876-0.7,1.876-1.791
			c0-1.045-0.734-1.729-1.714-1.729h-2.409v3.521H-254.917z"/>
		<path fill="#FFFFFF" d="M-248.826,205.613h4.136c3.848,0,5.969,2.351,5.969,5.678c0,3.345-2.105,5.628-5.956,5.628h-4.151v-11.306
			H-248.826z M-244.822,215.067c2.986,0,4.061-1.609,4.061-3.776c0-2.219-1.075-3.825-4.077-3.825h-1.949v7.602H-244.822z"/>
	</g>
</g>
</svg>
