<?xml version="1.0" encoding="UTF-8"?>
<svg id="Capa_1" xmlns="http://www.w3.org/2000/svg" width="200.1" height="200.1" version="1.1" viewBox="0 0 200.1 200.1">
  <!-- Generator: Adobe Illustrator 29.5.1, SVG Export Plug-In . SVG Version: 2.1.0 Build 141)  -->
  <defs>
    <style>
      .st0 {
        fill: #fff;
      }

      .st1 {
        fill: #2c83ec;
      }
    </style>
  </defs>
  <rect class="st1" x="-11.4" y="-11.4" width="223" height="223"/>
  <path class="st0" d="M71.3,23.5H28.7c-3.5,0-6.4,2.9-6.4,6.4v31.1c0,3.5,2.9,6.4,6.4,6.4h13.9v9.8c0,.7.5,1.3,1.1,1.6.2,0,.5.1.6.1.5,0,.8-.1,1.2-.5l11.1-11.1h14.9c3.5,0,6.4-2.9,6.4-6.4v-31.1c0-3.5-2.9-6.4-6.4-6.4h-.1ZM48.8,43.2h2.3c3.5,0,6.4,2.9,6.4,6.4s-2.3,5.8-5.3,6.3v2.4c0,1.2-1,2.3-2.3,2.3s-2.3-1-2.3-2.3v-2.3h-3c-1.2,0-2.3-1-2.3-2.3s1-2.3,2.3-2.3h6.4c1.1,0,1.9-.8,1.9-1.9s-.8-1.9-1.9-1.9h-2.3c-3.5,0-6.4-2.9-6.4-6.4s2.3-5.8,5.3-6.3v-2.4c0-1.2,1-2.3,2.3-2.3s2.3,1,2.3,2.3v2.3h3c1.2,0,2.3,1,2.3,2.3s-1,2.3-2.3,2.3h-6.4c-1.1,0-1.9.8-1.9,1.9s.8,1.9,1.9,1.9Z"/>
  <g>
    <path class="st0" d="M22.4,111.9v-2.8h11.1v2.8h-11.1ZM26.5,122.7v-12.2h2.9v12.2h-2.9Z"/>
    <path class="st0" d="M34.9,122.7v-13.6h5c1,0,1.8.2,2.6.6.8.4,1.4.9,1.8,1.6.4.7.7,1.5.7,2.5s-.2,1.8-.7,2.5-1.1,1.2-1.8,1.6c-.8.4-1.6.6-2.6.6h-2.7v-2.8h2.5c.7,0,1.3-.2,1.7-.5.4-.3.6-.8.6-1.4s-.2-1.1-.6-1.4c-.4-.3-1-.5-1.7-.5h-2.5l.7-.7v11.5h-2.9ZM42,122.7l-2.9-5.5h3.2l2.9,5.5h-3.2Z"/>
    <path class="st0" d="M45.7,122.7l4.8-13.6h3.2l4.6,13.6h-3l-3.7-11.6h1l-4,11.6h-2.9ZM48.7,117.5h6.4v2.7h-6.4v-2.7ZM52.1,107.9l-1.4-1.4,3.2-2.9,1.4,1.4-3.2,3Z"/>
    <path class="st0" d="M59,122.7l2.4-13.6h2.6l3.3,9.3h-.1l3.3-9.3h2.6l2.4,13.6h-2.9l-.9-6.1c-.1-.8-.2-1.6-.3-2.4s-.2-1.6-.2-2.4h.8c-.2.9-.4,1.7-.6,2.5s-.4,1.6-.7,2.3l-2.1,6h-2.3l-2.1-6c-.3-.8-.5-1.6-.7-2.3-.2-.8-.4-1.6-.6-2.5h.8c0,.8-.1,1.6-.2,2.4,0,.8-.2,1.6-.3,2.4l-.9,6.1h-2.9Z"/>
    <path class="st0" d="M80,122.7h-2.9v-13.6h2.9v13.6Z"/>
    <path class="st0" d="M81.4,111.9v-2.8h11.1v2.8h-11.1ZM85.4,122.7v-12.2h2.9v12.2h-2.9Z"/>
    <path class="st0" d="M95.8,111.9l1-1.2v10.4l-1.1-1.2h6.9v2.8h-8.7v-13.6h8.7v2.8h-6.8ZM95.8,117.3v-2.8h5.6v2.8h-5.6Z"/>
    <path class="st0" d="M109.2,123.1c-.8,0-1.5-.1-2.2-.3-.7-.2-1.3-.6-1.8-1.1-.5-.5-1-1.1-1.4-1.8l2.3-1.4c.4.6.9,1.1,1.4,1.5.6.3,1.2.5,1.9.5s1.1-.1,1.4-.4c.3-.3.5-.6.5-1s0-.5-.2-.7-.4-.4-.8-.6c-.4-.2-.9-.3-1.6-.5-1.1-.3-2-.6-2.6-1-.6-.4-1.1-.9-1.4-1.4-.3-.6-.4-1.2-.4-1.8s.2-1.5.6-2.1c.4-.6,1-1.1,1.7-1.5.7-.4,1.6-.5,2.6-.5s2.1.2,2.9.7c.8.5,1.4,1,1.9,1.8l-2.3,1.6c-.3-.5-.8-.8-1.2-1s-1-.3-1.4-.3-1,.1-1.3.3c-.3.2-.5.5-.5.9s.2.7.5.9c.3.2.9.5,1.9.7,1.1.3,2,.6,2.7,1s1.2.9,1.5,1.4c.3.6.5,1.2.5,2s-.2,1.5-.6,2.1c-.4.6-1,1.1-1.7,1.5-.7.4-1.6.5-2.7.5Z"/>
    <path class="st0" d="M29,138.2h-1.4l3.6-7.1h3.1l-4.8,9.3.2-1.7v6h-2.9v-6l.2,1.7-4.8-9.3h3.2l3.6,7.1Z"/>
    <path class="st0" d="M43.1,138.1h2.4c.7,0,1.3-.2,1.7-.5.4-.4.6-.9.6-1.5s-.2-1.2-.6-1.6c-.4-.4-1-.5-1.7-.5h-2.5l.7-.7v11.5h-2.9v-13.6h4.9c1,0,1.9.2,2.7.6.8.4,1.4,1,1.8,1.7.4.7.6,1.6.6,2.6s-.2,1.9-.6,2.6-1,1.3-1.8,1.7c-.8.4-1.7.6-2.7.6h-2.7v-2.8Z"/>
    <path class="st0" d="M49.8,144.7l4.8-13.6h3.2l4.6,13.6h-3l-3.7-11.6h1l-4,11.6h-2.9ZM52.7,139.5h6.4v2.7h-6.4v-2.7Z"/>
    <path class="st0" d="M69.3,145c-1.4,0-2.6-.3-3.6-.9-1-.6-1.9-1.4-2.4-2.5s-.9-2.2-.9-3.6.2-2,.5-2.9c.3-.9.8-1.6,1.4-2.3.6-.6,1.3-1.1,2.2-1.5.8-.3,1.8-.5,2.8-.5,1.6,0,2.9.3,3.9,1,1,.7,1.8,1.6,2.4,2.8l-2.7,1.1c-.4-.7-1-1.2-1.5-1.6-.6-.3-1.3-.5-2-.5s-1.4.2-2,.5c-.6.4-1.1.9-1.4,1.5-.3.6-.5,1.4-.5,2.3s.2,1.6.5,2.2c.3.6.8,1.1,1.4,1.5.6.4,1.3.5,2,.5s1.3-.1,1.9-.4c.5-.3,1-.6,1.3-1.1.3-.5.5-1.1.6-1.8l.8,1h-4.8v-2.6h6.6c0,.2,0,.4.1.7,0,.2,0,.5,0,.7,0,.9-.2,1.8-.5,2.5-.4.8-.8,1.4-1.4,2-.6.6-1.3,1-2.1,1.3s-1.6.4-2.5.4Z"/>
    <path class="st0" d="M76.8,137.9c0-1,.2-2,.5-2.8.3-.9.8-1.6,1.4-2.2.6-.6,1.4-1.1,2.2-1.5.9-.3,1.8-.5,2.8-.5s2,.2,2.8.5,1.6.8,2.2,1.5c.6.6,1.1,1.4,1.5,2.2.3.9.5,1.8.5,2.8s-.2,2-.5,2.8c-.3.9-.8,1.6-1.5,2.2-.6.6-1.4,1.1-2.2,1.5-.9.3-1.8.5-2.8.5s-2-.2-2.8-.5c-.9-.3-1.6-.8-2.2-1.5-.6-.6-1.1-1.4-1.4-2.2-.3-.9-.5-1.8-.5-2.8ZM79.7,137.9c0,.8.2,1.6.5,2.2s.8,1.1,1.4,1.5c.6.3,1.3.5,2.1.5s1.5-.2,2.1-.5c.6-.3,1.1-.8,1.4-1.5s.5-1.4.5-2.2-.2-1.6-.5-2.2c-.3-.6-.8-1.1-1.4-1.5-.6-.3-1.3-.5-2.1-.5s-1.5.2-2.1.5c-.6.3-1.1.8-1.4,1.5s-.5,1.4-.5,2.2Z"/>
    <path class="st0" d="M97.1,145.1c-.8,0-1.5-.1-2.2-.3-.7-.2-1.3-.6-1.8-1.1-.5-.5-1-1.1-1.4-1.8l2.3-1.4c.4.6.9,1.1,1.4,1.5.6.3,1.2.5,1.9.5s1.1-.1,1.4-.4c.3-.3.5-.6.5-1s0-.5-.2-.7-.4-.4-.8-.6c-.4-.2-.9-.3-1.6-.5-1.1-.3-2-.6-2.6-1-.6-.4-1.1-.9-1.4-1.4-.3-.6-.4-1.2-.4-1.8s.2-1.5.6-2.1c.4-.6,1-1.1,1.7-1.5.7-.4,1.6-.5,2.6-.5s2.1.2,2.9.7c.8.5,1.4,1,1.9,1.8l-2.3,1.6c-.3-.5-.8-.8-1.2-1s-1-.3-1.4-.3-1,.1-1.3.3c-.3.2-.5.5-.5.9s.2.7.5.9c.3.2.9.5,1.9.7,1.1.3,2,.6,2.7,1s1.2.9,1.5,1.4c.3.6.5,1.2.5,2s-.2,1.5-.6,2.1c-.4.6-1,1.1-1.7,1.5-.7.4-1.6.5-2.7.5Z"/>
    <path class="st0" d="M22.7,159.9c0-1,.2-2,.5-2.8.3-.9.8-1.6,1.4-2.2.6-.6,1.4-1.1,2.2-1.5.9-.3,1.8-.5,2.8-.5s2,.2,2.8.5,1.6.8,2.2,1.5c.6.6,1.1,1.4,1.5,2.2.3.9.5,1.8.5,2.8s-.2,2-.5,2.8c-.3.9-.8,1.6-1.5,2.2-.6.6-1.4,1.1-2.2,1.5-.9.3-1.8.5-2.8.5s-2-.2-2.8-.5c-.9-.3-1.6-.8-2.2-1.5-.6-.6-1.1-1.4-1.4-2.2-.3-.9-.5-1.8-.5-2.8ZM25.7,159.9c0,.8.2,1.6.5,2.2s.8,1.1,1.4,1.5c.6.3,1.3.5,2.1.5s1.5-.2,2.1-.5c.6-.3,1.1-.8,1.4-1.5s.5-1.4.5-2.2-.2-1.6-.5-2.2c-.3-.6-.8-1.1-1.4-1.5-.6-.3-1.3-.5-2.1-.5s-1.5.2-2.1.5c-.6.3-1.1.8-1.4,1.5s-.5,1.4-.5,2.2Z"/>
    <path class="st0" d="M47.4,166.7l-7.5-10.1,1.3-.3v10.4h-2.9v-13.6h2.7l7.3,9.9-1.1.2v-10.1h2.9v13.6h-2.6Z"/>
    <path class="st0" d="M60.7,166.7h-8.3v-13.6h2.9v11.9l-.7-1.1h6.1v2.8Z"/>
    <path class="st0" d="M65.3,166.7h-2.9v-13.6h2.9v13.6Z"/>
    <path class="st0" d="M76.8,166.7l-7.5-10.1,1.3-.3v10.4h-2.9v-13.6h2.7l7.3,9.9-1.1.2v-10.1h2.9v13.6h-2.6Z"/>
    <path class="st0" d="M83.7,155.9l1-1.2v10.4l-1.1-1.2h6.9v2.8h-8.7v-13.6h8.7v2.8h-6.8ZM83.8,161.3v-2.8h5.6v2.8h-5.6Z"/>
  </g>
</svg>