<?xml version="1.0" encoding="UTF-8"?>
<svg id="Capa_1" xmlns="http://www.w3.org/2000/svg" width="200.1" height="200.1" version="1.1" viewBox="0 0 200.1 200.1">
  <!-- Generator: Adobe Illustrator 29.5.1, SVG Export Plug-In . SVG Version: 2.1.0 Build 141)  -->
  <defs>
    <style>
      .st0 {
        fill: #333;
      }

      .st1 {
        fill: #00a3e4;
      }
    </style>
  </defs>
  <rect class="st1" x="-11.4" y="-11.4" width="223" height="223"/>
  <g>
    <path class="st0" d="M29.6,123c-1.4,0-2.6-.3-3.7-.9-1-.6-1.8-1.4-2.4-2.5-.6-1.1-.9-2.3-.9-3.6s.2-2,.5-2.8c.3-.9.8-1.6,1.4-2.2.6-.6,1.3-1.1,2.2-1.5s1.8-.5,2.8-.5c1.6,0,2.9.3,3.9,1,1,.7,1.8,1.7,2.4,3l-2.7,1c-.4-.8-1-1.3-1.5-1.7-.6-.4-1.3-.5-2.1-.5s-1.4.2-2,.5c-.6.4-1.1.8-1.4,1.5-.3.6-.5,1.4-.5,2.2s.2,1.6.5,2.2.8,1.1,1.4,1.5c.6.3,1.3.5,2,.5s1.5-.2,2.1-.5c.6-.3,1.1-.9,1.5-1.7l2.7,1c-.5,1.3-1.3,2.3-2.4,3-1,.7-2.3,1-3.9,1Z"/>
    <path class="st0" d="M36.6,115.9c0-1,.2-2,.5-2.8.3-.9.8-1.6,1.4-2.2.6-.6,1.4-1.1,2.2-1.5.9-.3,1.8-.5,2.8-.5s2,.2,2.8.5c.9.3,1.6.8,2.2,1.5.6.6,1.1,1.4,1.5,2.2.3.9.5,1.8.5,2.8s-.2,2-.5,2.8c-.3.9-.8,1.6-1.5,2.2-.6.6-1.4,1.1-2.2,1.5-.9.3-1.8.5-2.8.5s-2-.2-2.8-.5c-.9-.3-1.6-.8-2.2-1.5-.6-.6-1.1-1.4-1.4-2.2-.3-.9-.5-1.8-.5-2.8ZM39.6,115.9c0,.8.2,1.6.5,2.2s.8,1.1,1.4,1.5c.6.3,1.3.5,2.1.5s1.5-.2,2.1-.5c.6-.3,1.1-.8,1.4-1.5s.5-1.4.5-2.2-.2-1.6-.5-2.2c-.3-.6-.8-1.1-1.4-1.5-.6-.3-1.3-.5-2.1-.5s-1.5.2-2.1.5c-.6.3-1.1.8-1.4,1.5s-.5,1.4-.5,2.2Z"/>
    <path class="st0" d="M61.3,122.7l-7.5-10.1,1.3-.3v10.4h-2.9v-13.6h2.7l7.3,9.9-1.1.2v-10.1h2.9v13.6h-2.6Z"/>
    <path class="st0" d="M72.5,123c-1.4,0-2.6-.3-3.7-.9-1-.6-1.8-1.4-2.4-2.5-.6-1.1-.8-2.3-.8-3.6s.2-2,.5-2.8.8-1.6,1.4-2.2c.6-.6,1.3-1.1,2.2-1.5s1.8-.5,2.8-.5c1.6,0,2.9.3,3.9,1,1,.7,1.8,1.7,2.4,3l-2.7,1c-.4-.8-1-1.3-1.5-1.7-.6-.4-1.3-.5-2.1-.5s-1.4.2-2,.5c-.6.4-1.1.8-1.4,1.5-.3.6-.5,1.4-.5,2.2s.2,1.6.5,2.2c.3.6.8,1.1,1.4,1.5.6.3,1.3.5,2,.5s1.5-.2,2.1-.5c.6-.3,1.1-.9,1.5-1.7l2.7,1c-.5,1.3-1.3,2.3-2.4,3-1,.7-2.3,1-3.9,1Z"/>
    <path class="st0" d="M85.8,123c-1.2,0-2.2-.2-3-.7-.8-.4-1.4-1.1-1.9-2s-.6-2-.6-3.3v-8h2.9v8c0,.9.2,1.7.7,2.2.4.5,1.1.8,2,.8s1.5-.3,1.9-.8c.4-.5.7-1.3.7-2.2v-8h2.9v8c0,1.3-.2,2.4-.6,3.3-.4.9-1.1,1.5-1.9,2-.8.4-1.8.7-3,.7Z"/>
    <path class="st0" d="M93.7,122.7v-13.6h5c1,0,1.8.2,2.6.6.8.4,1.4.9,1.8,1.6.4.7.7,1.5.7,2.5s-.2,1.8-.7,2.5c-.4.7-1.1,1.2-1.8,1.6-.8.4-1.6.6-2.6.6h-2.7v-2.8h2.5c.7,0,1.3-.2,1.7-.5.4-.3.6-.8.6-1.4s-.2-1.1-.6-1.4c-.4-.3-1-.5-1.7-.5h-2.5l.7-.7v11.5h-2.9ZM100.7,122.7l-2.9-5.5h3.2l2.9,5.5h-3.2Z"/>
    <path class="st0" d="M110,123.1c-.8,0-1.5-.1-2.2-.3-.7-.2-1.3-.6-1.8-1.1-.5-.5-1-1.1-1.4-1.8l2.3-1.4c.4.6.9,1.1,1.4,1.5.6.3,1.2.5,1.9.5s1.1-.1,1.4-.4c.3-.3.5-.6.5-1s0-.5-.2-.7c-.1-.2-.4-.4-.8-.6-.4-.2-.9-.3-1.6-.5-1.1-.3-2-.6-2.6-1-.6-.4-1.1-.9-1.4-1.4-.3-.6-.4-1.2-.4-1.8s.2-1.5.6-2.1c.4-.6,1-1.1,1.7-1.5.7-.4,1.6-.5,2.6-.5s2.1.2,2.9.7c.8.5,1.4,1,1.9,1.8l-2.3,1.6c-.3-.5-.8-.8-1.2-1-.5-.2-1-.3-1.5-.3s-1,.1-1.3.3c-.3.2-.5.5-.5.9s.2.7.5.9c.3.2.9.5,1.9.7,1.1.3,2,.6,2.7,1,.7.4,1.2.9,1.5,1.4.3.6.5,1.2.5,2s-.2,1.5-.6,2.1c-.4.6-1,1.1-1.7,1.5-.7.4-1.6.5-2.7.5Z"/>
    <path class="st0" d="M115.9,115.9c0-1,.2-2,.5-2.8s.8-1.6,1.5-2.2c.6-.6,1.4-1.1,2.2-1.5s1.8-.5,2.8-.5,2,.2,2.8.5c.9.3,1.6.8,2.2,1.5.6.6,1.1,1.4,1.5,2.2s.5,1.8.5,2.8-.2,2-.5,2.8c-.3.9-.8,1.6-1.5,2.2-.6.6-1.4,1.1-2.2,1.5-.9.3-1.8.5-2.8.5s-2-.2-2.8-.5c-.9-.3-1.6-.8-2.2-1.5-.6-.6-1.1-1.4-1.5-2.2-.3-.9-.5-1.8-.5-2.8ZM118.9,115.9c0,.8.2,1.6.5,2.2s.8,1.1,1.4,1.5,1.3.5,2.1.5,1.5-.2,2.1-.5,1.1-.8,1.4-1.5.5-1.4.5-2.2-.2-1.6-.5-2.2c-.3-.6-.8-1.1-1.4-1.5s-1.3-.5-2.1-.5-1.5.2-2.1.5-1.1.8-1.4,1.5-.5,1.4-.5,2.2Z"/>
    <path class="st0" d="M136.2,123.1c-.8,0-1.5-.1-2.2-.3-.7-.2-1.3-.6-1.8-1.1-.5-.5-1-1.1-1.4-1.8l2.3-1.4c.4.6.9,1.1,1.4,1.5.6.3,1.2.5,1.9.5s1.1-.1,1.4-.4c.3-.3.5-.6.5-1s0-.5-.2-.7c-.1-.2-.4-.4-.8-.6-.4-.2-.9-.3-1.6-.5-1.1-.3-2-.6-2.6-1-.6-.4-1.1-.9-1.4-1.4-.3-.6-.4-1.2-.4-1.8s.2-1.5.6-2.1,1-1.1,1.7-1.5c.7-.4,1.6-.5,2.6-.5s2.1.2,2.9.7,1.4,1,1.9,1.8l-2.3,1.6c-.3-.5-.8-.8-1.2-1-.5-.2-1-.3-1.4-.3s-1,.1-1.3.3c-.3.2-.5.5-.5.9s.2.7.5.9c.3.2.9.5,1.9.7,1.1.3,2,.6,2.7,1,.7.4,1.2.9,1.5,1.4.3.6.5,1.2.5,2s-.2,1.5-.6,2.1c-.4.6-1,1.1-1.7,1.5s-1.6.5-2.7.5Z"/>
    <path class="st0" d="M25.7,138.1h2.4c.7,0,1.3-.2,1.7-.5.4-.4.6-.9.6-1.5s-.2-1.2-.6-1.6c-.4-.4-1-.5-1.7-.5h-2.5l.7-.7v11.5h-2.9v-13.6h4.9c1,0,1.9.2,2.7.6.8.4,1.3,1,1.8,1.7.4.7.6,1.6.6,2.6s-.2,1.9-.6,2.6-1,1.3-1.8,1.7c-.8.4-1.7.6-2.7.6h-2.7v-2.8Z"/>
    <path class="st0" d="M40.4,145c-1.2,0-2.2-.2-3-.7-.8-.4-1.4-1.1-1.9-2s-.6-2-.6-3.3v-8h2.9v8c0,.9.2,1.7.7,2.2.4.5,1.1.8,2,.8s1.5-.3,1.9-.8c.4-.5.7-1.3.7-2.2v-8h2.9v8c0,1.3-.2,2.4-.6,3.3s-1,1.5-1.9,2c-.8.4-1.8.7-3,.7ZM40.3,129.9l-1.4-1.4,3.2-2.9,1.4,1.4-3.2,3Z"/>
    <path class="st0" d="M48.3,144.7v-13.6h4.9c1.1,0,2,.1,2.7.4.7.3,1.2.7,1.5,1.2.3.6.5,1.2.5,2.1s-.1,1.2-.4,1.7-.7.9-1.2,1.2c-.5.3-1.1.4-1.7.4v-.6c.8,0,1.5.1,2,.4.5.3.9.7,1.2,1.2.3.5.4,1.1.4,1.7,0,1.3-.4,2.2-1.2,2.9s-1.9,1-3.5,1h-5.2ZM51.2,132.6v10.5l-1-1.2h3.3c.5,0,.9-.1,1.2-.4.3-.3.5-.6.5-1s-.1-.8-.4-1.1c-.3-.2-.7-.4-1.2-.4h-3.4v-2.5h3.1c.5,0,.9-.1,1.2-.3.3-.2.4-.5.4-1s-.1-.7-.4-1c-.3-.2-.7-.4-1.2-.4h-3l1-1.3Z"/>
    <path class="st0" d="M68.4,144.7h-8.3v-13.6h2.9v11.9l-.7-1.1h6.1v2.8Z"/>
    <path class="st0" d="M72.9,144.7h-2.9v-13.6h2.9v13.6Z"/>
    <path class="st0" d="M81.4,145c-1.4,0-2.6-.3-3.7-.9-1-.6-1.8-1.4-2.4-2.5-.6-1.1-.8-2.3-.8-3.6s.2-2,.5-2.8.8-1.6,1.4-2.2c.6-.6,1.3-1.1,2.2-1.5s1.8-.5,2.8-.5c1.6,0,2.9.3,3.9,1,1,.7,1.8,1.7,2.4,3l-2.7,1c-.4-.8-1-1.3-1.5-1.7-.6-.4-1.3-.5-2.1-.5s-1.4.2-2,.5c-.6.4-1.1.8-1.4,1.5-.3.6-.5,1.4-.5,2.2s.2,1.6.5,2.2c.3.6.8,1.1,1.4,1.5.6.3,1.3.5,2,.5s1.5-.2,2.1-.5c.6-.3,1.1-.9,1.5-1.7l2.7,1c-.5,1.3-1.3,2.3-2.4,3-1,.7-2.3,1-3.9,1Z"/>
    <path class="st0" d="M88.4,137.9c0-1,.2-2,.5-2.8.3-.9.8-1.6,1.4-2.2.6-.6,1.4-1.1,2.2-1.5.9-.3,1.8-.5,2.8-.5s2,.2,2.8.5c.9.3,1.6.8,2.2,1.5.6.6,1.1,1.4,1.5,2.2.3.9.5,1.8.5,2.8s-.2,2-.5,2.8c-.3.9-.8,1.6-1.5,2.2-.6.6-1.4,1.1-2.2,1.5-.9.3-1.8.5-2.8.5s-2-.2-2.8-.5c-.9-.3-1.6-.8-2.2-1.5-.6-.6-1.1-1.4-1.4-2.2-.3-.9-.5-1.8-.5-2.8ZM91.4,137.9c0,.8.2,1.6.5,2.2s.8,1.1,1.4,1.5c.6.3,1.3.5,2.1.5s1.5-.2,2.1-.5c.6-.3,1.1-.8,1.4-1.5s.5-1.4.5-2.2-.2-1.6-.5-2.2c-.3-.6-.8-1.1-1.4-1.5-.6-.3-1.3-.5-2.1-.5s-1.5.2-2.1.5c-.6.3-1.1.8-1.4,1.5s-.5,1.4-.5,2.2Z"/>
    <path class="st0" d="M108.8,145.1c-.8,0-1.5-.1-2.2-.3-.7-.2-1.3-.6-1.8-1.1-.5-.5-1-1.1-1.4-1.8l2.3-1.4c.4.6.9,1.1,1.4,1.5.6.3,1.2.5,1.9.5s1.1-.1,1.4-.4c.3-.3.5-.6.5-1s0-.5-.2-.7c-.1-.2-.4-.4-.8-.6-.4-.2-.9-.3-1.6-.5-1.1-.3-2-.6-2.6-1-.6-.4-1.1-.9-1.4-1.4-.3-.6-.4-1.2-.4-1.8s.2-1.5.6-2.1c.4-.6,1-1.1,1.7-1.5.7-.4,1.6-.5,2.6-.5s2.1.2,2.9.7c.8.5,1.4,1,1.9,1.8l-2.3,1.6c-.3-.5-.8-.8-1.2-1-.5-.2-1-.3-1.5-.3s-1,.1-1.3.3c-.3.2-.5.5-.5.9s.2.7.5.9c.3.2.9.5,1.9.7,1.1.3,2,.6,2.7,1,.7.4,1.2.9,1.5,1.4.3.6.5,1.2.5,2s-.2,1.5-.6,2.1c-.4.6-1,1.1-1.7,1.5-.7.4-1.6.5-2.7.5Z"/>
  </g>
  <g>
    <g>
      <path class="st0" d="M54.5,29.8c0,2.3-1.9,4.1-4.1,4.1h-14.4c-2.3,0-4.1-1.8-4.1-4.1v-3c0-2.3,1.9-4.1,4.1-4.1h14.4c2.3,0,4.1,1.8,4.1,4.1v3ZM50.8,26.8c0-.2-.2-.4-.4-.4h-14.4c-.2,0-.4.2-.4.4v3c0,.2.2.4.4.4h14.4c.2,0,.4-.2.4-.4v-3Z"/>
      <g>
        <path class="st0" d="M43.9,53.2h13.4v3.8h-13.4v-3.8Z"/>
        <path class="st0" d="M43.9,41.9h13.4v3.8h-13.4v-3.8Z"/>
        <path class="st0" d="M43.9,64.6h6.3v3.8h-6.3v-3.8Z"/>
      </g>
    </g>
    <g>
      <path class="st0" d="M64.7,81.2c-6.6,0-11.9-5.3-11.9-11.9s5.3-11.9,11.9-11.9,11.9,5.3,11.9,11.9-5.3,11.9-11.9,11.9ZM64.7,61c-4.6,0-8.3,3.7-8.3,8.3s3.7,8.3,8.3,8.3,8.3-3.7,8.3-8.3-3.7-8.3-8.3-8.3Z"/>
      <path class="st0" d="M64.6,48.8h-3.8v-18c0-.4-.4-.7-.7-.7h-2.3v-3.8h2.3c2.4,0,4.5,2,4.5,4.5v18Z"/>
      <path class="st0" d="M60.8,51.5h3.8v3.3h-3.8v-3.3Z"/>
      <path class="st0" d="M50.9,78.1h-24.7c-2.4,0-4.4-2-4.4-4.4V30.8c0-2.4,2-4.5,4.4-4.5h2.8v3.8h-2.8c-.3,0-.6.3-.6.7v42.8c0,.4.3.7.6.7h24.7v3.8h0Z"/>
      <path class="st0" d="M62.4,73.1l-3.4-3.5,2.7-2.6,2.1,2.1,4.1-4.2,2.7,2.6-5.5,5.6c-.4.4-1.6,1.1-2.7,0h0Z"/>
    </g>
    <g>
      <path class="st0" d="M31.8,70.1l-3.7-4,2.8-2.5,2.3,2.5,5.4-5.9,2.8,2.5-6.8,7.4c-.4.4-1.7,1-2.8,0h0Z"/>
      <path class="st0" d="M31.8,58.8l-3.7-4,2.8-2.5,2.3,2.5,5.4-5.9,2.8,2.5-6.8,7.4c-.4.4-1.7,1-2.8,0Z"/>
      <path class="st0" d="M31.8,47.4l-3.7-4,2.8-2.5,2.3,2.5,5.4-5.9,2.8,2.5-6.8,7.4c-.4.4-1.7,1-2.8,0h0Z"/>
    </g>
  </g>
</svg>