<?xml version="1.0" encoding="utf-8"?>
<!-- Generator: Adobe Illustrator 24.0.2, SVG Export Plug-In . SVG Version: 6.00 Build 0)  -->
<svg version="1.1" id="Capa_1" xmlns="http://www.w3.org/2000/svg" xmlns:xlink="http://www.w3.org/1999/xlink" x="0px" y="0px"
	 width="495.8px" height="84.4px" viewBox="0 0 495.8 84.4" style="enable-background:new 0 0 495.8 84.4;" xml:space="preserve">
<style type="text/css">
	.st0{fill:#006B63;}
	.st1{fill:#FFFFFF;}
	.st2{clip-path:url(#SVGID_2_);}
	.st3{clip-path:url(#SVGID_4_);}
	.st4{clip-path:url(#SVGID_6_);}
	.st5{clip-path:url(#SVGID_8_);}
	.st6{clip-path:url(#SVGID_10_);}
	.st7{clip-path:url(#SVGID_12_);}
	.st8{clip-path:url(#SVGID_14_);}
	.st9{fill:#2CB1E6;}
</style>
<polygon class="st0" points="420.4,68.8 420.4,68.8 420.4,68.8 "/>
<path class="st1" d="M76.6,49v2.3c1,0.4,2.1,0.6,3.1,0.6c2.2,0,3.7-1,3.7-2.8c0-1.4-0.8-1.9-2.7-2.5l-3.1-0.9
	c-2-0.6-3.8-1.7-3.8-4.5c0-3.4,2.9-5.1,6.5-5.1c1.8,0,3.5,0.3,5.2,0.8v3.8h-2.6v-2.1c-0.8-0.3-1.7-0.4-2.6-0.4
	c-2.6,0-3.6,1.2-3.6,2.5c0,1.5,1.1,2,2.7,2.4l2.7,0.7c2,0.5,4.2,1.6,4.2,4.6c0,3.4-2.5,5.5-6.6,5.5c-2,0-3.9-0.3-5.8-0.9V49H76.6z"
	/>
<path class="st1" d="M87.4,51.8h1.5l6.3-15.3h3.1l5.8,15.3h1.5v2h-6.3v-2h1.6l-1.5-4.3h-6.1l-1.6,4.3h1.8v2h-6L87.4,51.8z M97,40.4
	c-0.2-0.5-0.3-1-0.4-1.6l0,0c-0.1,0.5-0.3,1.1-0.5,1.6l-1.9,4.9h4.6L97,40.4z"/>
<path class="st1" d="M106.5,51.8h1.7l0.1-13.2h-2.2v-2h4.5l8,10.4c0.5,0.7,1.3,1.8,1.7,2.6h0.1l-0.1-11h-1.9v-2h6v2h-1.7l-0.1,15.2
	h-2.3l-8.6-11.2c-0.5-0.6-0.9-1.2-1.2-1.8l0,0l0.1,11h1.9v2h-6L106.5,51.8z"/>
<path class="st1" d="M129.8,51.8h1.8l0.1-13.2h-4l-0.1,2.5h-2.5l0.1-4.5h15.7l0.1,4.5h-2.5l-0.1-2.5h-4l-0.1,13.2h2v2h-6.5
	L129.8,51.8z"/>
<path class="st1" d="M142.2,51.8h1.8l0.1-13.2h-1.9v-2h6.4v2h-1.8l-0.1,13.2h1.9v2h-6.4L142.2,51.8z"/>
<path class="st1" d="M149.5,51.8h1.5l6.3-15.3h3.1l5.8,15.3h1.5v2h-6.3v-2h1.6l-1.5-4.3h-6.1l-1.6,4.3h1.8v2h-6L149.5,51.8z
	 M159,40.4c-0.2-0.5-0.3-1-0.4-1.6l0,0c-0.1,0.5-0.3,1.1-0.5,1.6l-1.9,4.9h4.6L159,40.4z"/>
<path class="st1" d="M179.8,41.6v-2.8c-1-0.3-1.9-0.4-2.9-0.4c-4.1,0-6.3,2.5-6.3,6.8c0,3.9,2.4,6.7,5.9,6.7c1,0,2-0.1,2.9-0.3
	l0.1-3.8h-2v-2h6.4v2h-1.8l-0.1,5.5c-1.7,0.5-3.5,0.8-5.3,0.8c-6.3,0-9.2-3.8-9.2-8.8c0-5.4,3.6-9.1,9.4-9.1c1.8,0,3.7,0.3,5.4,0.9
	v4.4L179.8,41.6z"/>
<path class="st1" d="M193.6,36.2c5,0,8,3.3,8,8.6c0,4.6-2.7,9.2-8.5,9.2c-5,0-8.2-3.3-8.2-8.6S188.3,36.2,193.6,36.2z M193.2,51.8
	c4.6,0,5.3-4.4,5.3-6.8c0-3.1-1-6.5-5.1-6.5c-2.9,0-5.5,2-5.5,6.8C187.9,48.7,189.6,51.8,193.2,51.8z"/>
<path class="st1" d="M203.7,45.5h6.8V48h-6.8V45.5z"/>
<path class="st1" d="M225,41.6v-2.8c-1-0.3-1.9-0.4-2.9-0.4c-4.1,0-6.3,2.5-6.3,6.8c0,3.9,2.4,6.7,5.9,6.7c1,0,2-0.1,2.9-0.3v-3.8
	h-2v-2h6.4v2h-1.8v5.5c-1.7,0.5-3.5,0.8-5.3,0.8c-6.3,0-9.2-3.8-9.2-8.8c0-5.4,3.6-9.1,9.4-9.1c1.8,0,3.7,0.3,5.4,0.9v4.4L225,41.6z
	"/>
<path class="st1" d="M230,51.8h1.8l0.1-13.2H230v-2h6.4v2h-1.8l-0.1,13.2h5.1l0.2-2.9h2.3l-0.2,4.9h-12L230,51.8z"/>
<path class="st1" d="M243.5,51.8h1.5l6.3-15.3h3.1l5.8,15.3h1.5v2h-6.3v-2h1.6l-1.5-4.3h-6.1l-1.6,4.3h1.8v2h-6L243.5,51.8z
	 M253,40.4c-0.2-0.5-0.3-1-0.4-1.6h0c-0.1,0.5-0.3,1.1-0.5,1.6l-1.9,4.9h4.6L253,40.4z"/>
<path class="st1" d="M265.5,49v2.3c1,0.4,2.1,0.6,3.1,0.6c2.2,0,3.6-1,3.6-2.8c0-1.4-0.8-1.9-2.7-2.5l-3.1-0.9
	c-2-0.6-3.8-1.7-3.8-4.5c0-3.4,2.9-5.1,6.5-5.1c1.8,0,3.5,0.3,5.2,0.8v3.8h-2.6v-2.1c-0.8-0.3-1.7-0.4-2.6-0.4
	c-2.6,0-3.6,1.2-3.6,2.5c0,1.5,1.1,2,2.7,2.4L271,44c2,0.5,4.2,1.6,4.2,4.6c0,3.4-2.5,5.5-6.6,5.5c-2,0-3.9-0.3-5.8-0.9V49H265.5z"
	/>
<path class="st1" d="M289.3,41.6v-2.8c-1-0.3-1.9-0.4-2.9-0.4c-4.1,0-6.3,2.5-6.3,6.8c0,3.9,2.4,6.7,5.9,6.7c1,0,2-0.1,2.9-0.3
	l0-3.8h-2v-2h6.4v2h-1.8l0,5.5c-1.7,0.5-3.5,0.8-5.3,0.8c-6.3,0-9.2-3.8-9.2-8.8c0-5.4,3.6-9.1,9.4-9.1c1.8,0,3.7,0.3,5.4,0.9v4.4
	L289.3,41.6z"/>
<path class="st1" d="M303.1,36.2c5,0,8,3.3,8,8.6c0,4.6-2.7,9.2-8.5,9.2c-5,0-8.2-3.3-8.2-8.6S297.7,36.2,303.1,36.2z M302.7,51.8
	c4.6,0,5.3-4.4,5.3-6.8c0-3.1-1-6.5-5.1-6.5c-2.9,0-5.5,2-5.5,6.8C297.4,48.7,299.1,51.8,302.7,51.8z"/>
<path class="st1" d="M310.7,36.5h6.5v2h-1.7l3.7,11.1c0.2,0.6,0.3,1.2,0.5,1.8h0c0.1-0.6,0.3-1.2,0.5-1.8l3.1-8.3l-0.9-2.8h-1.7v-2
	h6.3v2h-1.7l3.4,10.9c0.2,0.6,0.3,1.4,0.5,2h0c0.2-0.7,0.3-1.4,0.6-2l3.8-10.9h-1.8v-2h6.2v2h-1.5l-5.8,15.3h-3.1l-3-9.2l0,0
	l-3.5,9.2h-3.1l-5.7-15.3h-1.5L310.7,36.5z"/>
<path class="st1" d="M345.2,51.8h1.7l0.1-13.2h-1.8v-2h7.7c3.5,0,5.2,2,5.2,4.6c0.2,2.3-1.6,4.4-3.9,4.6c-0.1,0-0.1,0-0.2,0l0,0
	c1,0.1,1.6,0.9,2.2,1.9l1.9,3.2c0.5,0.8,1,1,1.5,1h0.6v2h-1.6c-1.5,0-2.1-0.2-3.1-1.8l-2.4-4c-0.7-1.2-1.1-1.5-1.9-1.5h-1.5l0,5.3h2
	v2h-6.5L345.2,51.8z M351.9,44.3c2,0,3.3-1,3.3-2.9s-1.1-2.8-3.1-2.8h-2.3v5.7H351.9z"/>
<path class="st1" d="M369,36.2c5,0,8,3.3,8,8.6c0,4.6-2.7,9.2-8.5,9.2c-5,0-8.2-3.3-8.2-8.6S363.7,36.2,369,36.2z M368.6,51.8
	c4.6,0,5.3-4.4,5.3-6.8c0-3.1-1-6.5-5.1-6.5c-2.9,0-5.5,2-5.5,6.8C363.3,48.7,365,51.8,368.6,51.8z"/>
<path class="st1" d="M377.8,36.5h6.3v2h-1.8v8.7c0,1.3,0,2.7,1,3.6c0.8,0.8,2,1.1,3.1,1c1.7,0,2.5-0.2,3.3-1s1-1.8,1-3.5l0-8.7h-2
	v-2h6.3v2h-1.7v9.3c0.1,1.8-0.7,3.6-2.1,4.8c-1.5,1-3.3,1.5-5.1,1.4c-2.6,0-4.1-0.5-5.2-1.4s-1.6-2.6-1.6-4.8c0-3.3,0-6.3,0-9.3
	h-1.8L377.8,36.5z"/>
<path class="st1" d="M400,51.8h1.8l0.1-13.2h-4l-0.1,2.5h-2.5l0.1-4.5h15.7l0.1,4.5h-2.5l-0.1-2.5h-4l-0.1,13.2h2v2h-6.5L400,51.8z"
	/>
<path class="st1" d="M411.8,51.8h1.8l0.1-13.2h-2v-2h12.1l0.1,4.5h-2.3l-0.1-2.5h-5v5.3h4.9v2.2h-4.9l0,5.7h5.2l0.2-2.8h2.3
	l-0.2,4.8h-12.1L411.8,51.8z"/>
<path class="st1" d="M75,28.4h1.7l0.1-13.2H75v-2h7.7c3.6,0,5.2,2,5.2,4.6c0.2,2.3-1.6,4.4-3.9,4.6c-0.1,0-0.1,0-0.2,0l0,0
	c1,0.1,1.6,0.9,2.2,1.9l1.9,3.2c0.5,0.8,1,1,1.5,1h0.6v2h-1.6c-1.4,0-2.1-0.1-3.1-1.8l-2.4-4c-0.7-1.2-1.1-1.5-1.9-1.5h-1.5v5.3h2v2
	H75V28.4z M81.7,20.8c2,0,3.3-1,3.3-2.9s-1.1-2.8-3.1-2.8h-2.3v5.7H81.7z"/>
<path class="st1" d="M90.8,13.1h6.3v2h-1.8v8.7c0,1.3,0,2.7,1,3.6c0.8,0.8,2,1.1,3.1,1c1.7,0,2.5-0.2,3.3-1s1-1.8,1-3.5v-8.7h-2v-2
	h6.3v2h-1.7v9.3c0.1,1.8-0.6,3.6-1.9,4.9c-1.5,1-3.3,1.5-5.2,1.4c-2.6,0-4.1-0.5-5.2-1.4c-1.3-1-1.6-2.6-1.6-4.8c0-3.3,0-6.3,0-9.3
	h-1.8L90.8,13.1z"/>
<path class="st1" d="M114.1,28.4h1.8l0.1-13.2h-4l-0.1,2.5h-2.5l0.1-4.5h15.7l0.1,4.5h-2.5l-0.1-2.5h-4l-0.1,13.2h2v2H114
	L114.1,28.4z"/>
<path class="st1" d="M124.2,28.4h1.5l6.3-15.3h3.1l5.8,15.3h1.5v2H136v-2h1.6l-1.5-4.3H130l-1.6,4.3h1.8v2h-6L124.2,28.4z M133.7,17
	c-0.2-0.5-0.3-1-0.4-1.6h-0.1c-0.1,0.5-0.3,1.1-0.5,1.6l-1.9,4.9h4.6L133.7,17z"/>
<path class="st1" d="M154,25.6v2.3c1,0.4,2.1,0.6,3.1,0.6c2.2,0,3.7-1,3.7-2.8c0-1.4-0.8-1.9-2.7-2.5l-3.1-0.9
	c-2-0.6-3.8-1.7-3.8-4.5c0-3.4,2.9-5.1,6.5-5.1c1.8,0,3.5,0.3,5.2,0.8v3.8h-2.6v-2.1c-0.8-0.3-1.7-0.4-2.6-0.4
	c-2.6,0-3.6,1.2-3.6,2.5c0,1.5,1.1,2,2.7,2.4l2.7,0.7c2,0.5,4.2,1.6,4.2,4.6c0,3.4-2.5,5.5-6.6,5.5c-2,0-3.9-0.3-5.8-0.9v-4.2H154z"
	/>
<path class="st1" d="M165.4,28.4h1.5l6.3-15.3h3.1l5.8,15.3h1.5v2h-6.3v-2h1.6l-1.5-4.3h-6.1l-1.6,4.3h1.8v2h-6L165.4,28.4z
	 M174.9,17c-0.2-0.5-0.3-1-0.4-1.6l0,0c-0.1,0.5-0.3,1.1-0.5,1.6l-1.9,4.9h4.6L174.9,17z"/>
<path class="st1" d="M184.9,28.4h1.7l0.1-13.2h-2.2v-2h4.6l8,10.4c0.5,0.7,1.3,1.8,1.7,2.6l0,0l-0.1-11h-1.9v-2h6v2h-1.7L201,30.4
	h-2.3l-8.6-11.2c-0.5-0.6-0.9-1.2-1.2-1.8v0l0.1,11h1.9v2h-6L184.9,28.4z"/>
<path class="st1" d="M208.7,28.4h1.8l0.1-13.2h-4l-0.1,2.5H204l0.1-4.5h15.7l0.1,4.5h-2.5l-0.1-2.5h-3.9l-0.1,13.2h2v2h-6.6V28.4z"
	/>
<path class="st1" d="M221.5,28.4h1.8l0.1-13.2h-1.9v-2h6.4v2h-1.8l-0.1,13.2h1.9v2h-6.4L221.5,28.4z"/>
<path class="st1" d="M229.4,28.4h1.5l6.3-15.3h3.1l5.8,15.3h1.5v2h-6.3v-2h1.6l-1.5-4.3h-6.1l-1.6,4.3h1.8v2h-6L229.4,28.4z
	 M238.9,17c-0.2-0.5-0.3-1-0.4-1.6h-0.1c-0.1,0.5-0.3,1.1-0.5,1.6l-1.9,4.9h4.6L238.9,17z"/>
<path class="st1" d="M260.2,18.2v-2.8c-1-0.3-1.9-0.4-2.9-0.4c-4.1,0-6.3,2.5-6.3,6.8c0,3.9,2.4,6.7,5.9,6.7c1,0,2-0.1,2.9-0.3v-3.8
	h-2v-2h6.4v2h-1.8l0,5.5c-1.7,0.5-3.5,0.8-5.3,0.8c-6.3,0-9.2-3.8-9.2-8.8c0-5.4,3.6-9.1,9.4-9.1c1.8,0,3.7,0.3,5.4,0.9v4.4H260.2z"
	/>
<path class="st1" d="M274.5,12.8c5,0,8,3.3,8,8.6c0,4.6-2.7,9.2-8.5,9.2c-5,0-8.2-3.3-8.2-8.6S269.1,12.8,274.5,12.8z M274.1,28.4
	c4.6,0,5.3-4.4,5.3-6.8c0-3.1-1-6.5-5.1-6.5c-2.9,0-5.5,2-5.5,6.8C268.8,25.3,270.4,28.4,274.1,28.4z"/>
<path class="st1" d="M285.6,22.1h6.8v2.5h-6.8V22.1z"/>
<path class="st1" d="M307.3,18.2v-2.8c-1-0.3-1.9-0.4-2.9-0.4c-4.1,0-6.3,2.5-6.3,6.8c0,3.9,2.4,6.7,5.9,6.7c1,0,2-0.1,2.9-0.3v-3.8
	h-2v-2h6.4v2h-1.7v5.5c-1.7,0.5-3.5,0.8-5.3,0.8c-6.3,0-9.2-3.8-9.2-8.8c0-5.4,3.6-9.1,9.4-9.1c1.8,0,3.7,0.3,5.4,0.9v4.4H307.3z"/>
<path class="st1" d="M313.3,28.4h1.8l0.1-13.2h-1.9v-2h6.4v2h-1.8l-0.1,13.2h5.1l0.3-2.9h2.3l-0.3,4.9h-12L313.3,28.4z"/>
<path class="st1" d="M327.8,28.4h1.5l6.3-15.3h3.1l5.8,15.3h1.5v2h-6.3v-2h1.6l-1.5-4.3h-6.1l-1.6,4.3h1.8v2h-6L327.8,28.4z
	 M337.3,17c-0.2-0.5-0.3-1-0.5-1.6h0c-0.1,0.5-0.3,1.1-0.5,1.6l-1.9,4.9h4.6L337.3,17z"/>
<path class="st1" d="M350.8,25.6v2.3c1,0.4,2.1,0.6,3.1,0.6c2.2,0,3.7-1,3.7-2.8c0-1.4-0.8-1.9-2.7-2.5l-3.1-0.9
	c-2-0.6-3.8-1.7-3.8-4.5c0-3.4,2.9-5.1,6.5-5.1c1.8,0,3.5,0.3,5.2,0.8v3.8h-2.6v-2.1c-0.8-0.3-1.7-0.4-2.6-0.4
	c-2.6,0-3.6,1.2-3.6,2.5c0,1.5,1.1,2,2.7,2.4l2.7,0.7c2,0.5,4.2,1.6,4.2,4.6c0,3.4-2.5,5.5-6.6,5.5c-2,0-3.9-0.3-5.8-0.9v-4.2H350.8
	z"/>
<path class="st1" d="M375.1,18.2v-2.8c-1-0.3-1.9-0.4-2.9-0.4c-4.1,0-6.3,2.5-6.3,6.8c0,3.9,2.4,6.7,5.9,6.7c1,0,2-0.1,2.9-0.3
	l0-3.8h-2v-2h6.4v2h-1.8l0,5.5c-1.7,0.5-3.5,0.8-5.3,0.8c-6.3,0-9.2-3.8-9.2-8.8c0-5.4,3.6-9.1,9.4-9.1c1.8,0,3.7,0.3,5.4,0.9v4.4
	H375.1z"/>
<path class="st1" d="M389.9,12.8c5,0,8,3.3,8,8.6c0,4.6-2.7,9.2-8.5,9.2c-5,0-8.2-3.3-8.2-8.6S384.5,12.8,389.9,12.8z M389.5,28.4
	c4.6,0,5.3-4.4,5.3-6.8c0-3.1-1-6.5-5.1-6.5c-2.9,0-5.5,2-5.5,6.8C384.2,25.3,385.8,28.4,389.5,28.4z"/>
<path class="st1" d="M398,13.1h6.5v2h-1.7l3.7,11.1c0.2,0.6,0.3,1.2,0.5,1.8h0c0.1-0.6,0.3-1.2,0.5-1.8l3.1-8.3l-1-2.8h-1.7v-2h6.3
	v2h-1.7l3.4,10.9c0.2,0.6,0.3,1.4,0.5,2h0c0.2-0.7,0.3-1.4,0.6-2l3.8-10.9h-1.9v-2h6.2v2h-1.5l-5.8,15.3h-3l-3-9.2h0l-3.5,9.2h-3.1
	l-5.6-15.3h-1.5L398,13.1z"/>
<path class="st1" d="M76.2,69.9v9.3h-0.8v-9.3h-1.7v-0.8h4.2v0.8H76.2z"/>
<path class="st1" d="M83.5,79.2v-5.4c0-0.8-0.4-1.2-1-1.2s-1,0.4-1,1.2v5.4h-0.8V69.2h0.8v3.5c0.1-0.2,0.2-0.3,0.4-0.4
	c0.2-0.2,0.5-0.3,0.8-0.3c0.4,0,0.8,0.2,1.1,0.5c0.3,0.4,0.5,0.9,0.4,1.4v5.4L83.5,79.2z"/>
<path class="st1" d="M88.2,75.8c0,1.5,0,2.2,0.4,2.6c0.2,0.2,0.4,0.3,0.7,0.3c0.3,0,0.5-0.1,0.7-0.3c0.2-0.3,0.3-0.6,0.3-1h0.8
	c0,0.6-0.2,1.1-0.6,1.5c-0.4,0.3-0.8,0.5-1.3,0.5c-0.5,0-1-0.2-1.3-0.5c-0.5-0.5-0.6-1.5-0.6-3.2s0.1-2.7,0.6-3.2
	c0.3-0.4,0.8-0.5,1.3-0.5c0.5,0,1,0.2,1.3,0.5c0.5,0.6,0.6,1.6,0.6,3.3H88.2z M90,73c-0.2-0.2-0.4-0.3-0.7-0.3
	c-0.3,0-0.5,0.1-0.7,0.3c-0.3,0.3-0.3,0.9-0.3,2.2h2.1C90.4,73.9,90.3,73.3,90,73z"/>
<path class="st1" d="M101.6,81.7c-0.7,0.7-1.9,0.7-2.6,0c-0.4-0.4-0.5-1-0.5-1.5h0.8c0,0.4,0.1,0.7,0.3,1c0.2,0.2,0.4,0.3,0.7,0.3
	c0.3,0,0.5-0.1,0.7-0.3c0.3-0.3,0.3-0.8,0.3-1.7v-0.9c-0.1,0.2-0.2,0.3-0.4,0.4c-0.2,0.2-0.5,0.2-0.8,0.2c-0.4,0-0.8-0.2-1.1-0.5
	c-0.4-0.5-0.6-1.3-0.6-3.1s0.1-2.6,0.6-3.1c0.5-0.6,1.3-0.7,1.9-0.3c0.2,0.1,0.3,0.3,0.4,0.4V72h0.8v7.4
	C102.1,80.7,102,81.2,101.6,81.7z M101.3,73.9c0-0.4-0.1-0.7-0.3-1c-0.2-0.2-0.4-0.3-0.7-0.3c-0.3,0-0.5,0.1-0.7,0.3
	c-0.3,0.4-0.3,1.1-0.3,2.6s0,2.2,0.3,2.6c0.2,0.2,0.4,0.3,0.7,0.3c0.3,0,0.5-0.1,0.7-0.3c0.2-0.3,0.4-0.6,0.3-1V73.9z"/>
<path class="st1" d="M106.1,78.8c-0.4-0.4-0.6-0.9-0.5-1.5v-8.1h0.8v8.1c-0.1,0.6,0.3,1.1,0.9,1.2c0.1,0,0.2,0,0.3,0v0.7
	C107,79.3,106.5,79.1,106.1,78.8z"/>
<path class="st1" d="M113.2,78.8c-0.3,0.4-0.8,0.6-1.3,0.6c-0.5,0-1-0.2-1.3-0.6c-0.4-0.5-0.5-1.4-0.5-3.1s0.1-2.6,0.5-3.1
	c0.3-0.4,0.8-0.6,1.3-0.6c0.5,0,1,0.2,1.3,0.6c0.4,0.5,0.5,1.4,0.5,3.1S113.7,78.3,113.2,78.8z M112.6,73c-0.2-0.2-0.4-0.3-0.7-0.3
	c-0.3,0-0.5,0.1-0.7,0.3c-0.3,0.4-0.4,1.1-0.4,2.7s0,2.3,0.4,2.7c0.2,0.2,0.4,0.3,0.7,0.3c0.3,0,0.5-0.1,0.7-0.3
	c0.3-0.4,0.4-1.1,0.4-2.7S112.9,73.4,112.6,73z"/>
<path class="st1" d="M120.1,78.8c-0.3,0.3-0.7,0.5-1.1,0.5c-0.3,0-0.6-0.1-0.8-0.3c-0.2-0.1-0.3-0.3-0.4-0.4v0.6H117V69.2h0.8v3.4
	c0.1-0.2,0.2-0.3,0.4-0.4c0.2-0.2,0.5-0.2,0.8-0.2c0.4,0,0.8,0.2,1.1,0.5c0.4,0.5,0.5,1.4,0.5,3.2S120.5,78.3,120.1,78.8z M119.5,73
	c-0.2-0.2-0.4-0.3-0.7-0.3c-0.3,0-0.5,0.1-0.7,0.3c-0.2,0.3-0.4,0.6-0.3,1v3.5c0,0.4,0.1,0.7,0.3,1c0.2,0.2,0.4,0.3,0.7,0.3
	c0.3,0,0.5-0.1,0.7-0.3c0.3-0.4,0.4-1.1,0.4-2.7S119.8,73.4,119.5,73z"/>
<path class="st1" d="M126.3,79.2v-0.7c-0.1,0.2-0.2,0.3-0.4,0.5c-0.2,0.2-0.5,0.3-0.9,0.3c-0.4,0-0.8-0.2-1.1-0.5
	c-0.3-0.5-0.5-1-0.5-1.6c0-0.6,0.2-1.2,0.6-1.6c0.4-0.3,0.9-0.5,1.4-0.5h0.8v-1.3c0-0.8-0.3-1.2-1-1.2c-0.2,0-0.5,0.1-0.6,0.3
	c-0.2,0.3-0.4,0.6-0.3,1h-0.8c0-0.5,0.2-1.1,0.5-1.5c0.7-0.6,1.8-0.6,2.5,0c0.4,0.4,0.5,1,0.5,1.5v5.3L126.3,79.2z M126.3,75.8h-0.8
	c-0.3,0-0.6,0.1-0.9,0.3c-0.3,0.3-0.4,0.7-0.4,1.2c0,0.9,0.3,1.4,1,1.4s1-0.6,1-1.3L126.3,75.8z"/>
<path class="st1" d="M130.9,78.8c-0.4-0.4-0.6-0.9-0.5-1.5v-8.1h0.8v8.1c-0.1,0.6,0.3,1.1,0.9,1.2c0.1,0,0.2,0,0.3,0v0.7
	C131.8,79.3,131.3,79.1,130.9,78.8z"/>
<path class="st1" d="M142.7,78.8c-0.3,0.3-0.7,0.5-1.1,0.5c-0.3,0-0.6-0.1-0.8-0.3c-0.2-0.1-0.3-0.3-0.4-0.4v0.6h-0.8V69.2h0.8v3.4
	c0.1-0.2,0.2-0.3,0.4-0.4c0.2-0.2,0.5-0.2,0.8-0.2c0.4,0,0.8,0.2,1.1,0.5c0.4,0.5,0.5,1.4,0.5,3.2S143.1,78.3,142.7,78.8z M142.1,73
	c-0.2-0.2-0.4-0.3-0.7-0.3c-0.3,0-0.5,0.1-0.7,0.3c-0.2,0.3-0.4,0.6-0.3,1v3.5c0,0.4,0.1,0.7,0.3,1c0.2,0.2,0.4,0.3,0.7,0.3
	c0.3,0,0.5-0.1,0.7-0.3c0.3-0.4,0.4-1.1,0.4-2.7S142.4,73.4,142.1,73z"/>
<path class="st1" d="M148.6,72.7c-0.7-0.1-1.3,0.5-1.4,1.2c0,0.1,0,0.1,0,0.2v5.2h-0.8V72h0.8v0.8c0.3-0.6,0.9-0.9,1.6-0.9v0.7
	H148.6z"/>
<path class="st1" d="M151.5,70.4v-1h1v1H151.5z M151.6,79.2V72h0.8v7.2H151.6z"/>
<path class="st1" d="M158.5,79.2v-0.6c-0.1,0.2-0.2,0.3-0.4,0.4c-0.2,0.2-0.5,0.3-0.8,0.3c-0.4,0-0.8-0.2-1.1-0.5
	c-0.4-0.5-0.5-1.4-0.5-3.2s0.1-2.7,0.5-3.2c0.3-0.3,0.7-0.5,1.1-0.5c0.3,0,0.6,0.1,0.8,0.2c0.2,0.1,0.3,0.3,0.4,0.4v-3.4h0.8v10.1
	H158.5z M158.5,73.9c0-0.4-0.1-0.7-0.3-1c-0.2-0.2-0.4-0.3-0.7-0.3c-0.3,0-0.5,0.1-0.7,0.3c-0.3,0.4-0.4,1.1-0.4,2.7s0,2.3,0.4,2.7
	c0.2,0.2,0.4,0.3,0.7,0.3c0.3,0,0.5-0.1,0.7-0.3c0.2-0.3,0.4-0.6,0.3-1V73.9z"/>
<path class="st1" d="M165.5,81.7c-0.7,0.7-1.8,0.7-2.6,0c-0.4-0.4-0.5-1-0.5-1.5h0.8c0,0.4,0.1,0.7,0.3,1c0.2,0.2,0.4,0.3,0.7,0.3
	c0.3,0,0.5-0.1,0.7-0.3c0.3-0.3,0.3-0.8,0.3-1.7v-0.9c-0.1,0.2-0.2,0.3-0.4,0.4c-0.2,0.2-0.5,0.2-0.8,0.2c-0.4,0-0.8-0.2-1.1-0.5
	c-0.4-0.5-0.6-1.3-0.6-3.1s0.1-2.6,0.6-3.1c0.5-0.6,1.3-0.7,1.9-0.3c0.2,0.1,0.3,0.3,0.4,0.4V72h0.8v7.4
	C166.1,80.7,165.9,81.2,165.5,81.7z M165.3,73.9c0-0.4-0.1-0.7-0.3-1c-0.2-0.2-0.4-0.3-0.7-0.3c-0.3,0-0.5,0.1-0.7,0.3
	c-0.3,0.4-0.4,1.1-0.4,2.6s0,2.2,0.4,2.6c0.2,0.2,0.4,0.3,0.7,0.3c0.3,0,0.5-0.1,0.7-0.3c0.2-0.3,0.4-0.6,0.3-1V73.9z"/>
<path class="st1" d="M170.1,75.8c0,1.5,0.1,2.2,0.4,2.6c0.4,0.4,1,0.4,1.4,0c0,0,0,0,0,0c0.2-0.3,0.3-0.6,0.3-1h0.8
	c0,0.6-0.1,1.1-0.5,1.5c-0.4,0.3-0.8,0.5-1.3,0.5c-0.5,0-1-0.2-1.3-0.5c-0.5-0.5-0.6-1.5-0.6-3.2s0.1-2.7,0.6-3.2
	c0.3-0.4,0.8-0.5,1.3-0.5c0.5,0,1,0.2,1.3,0.5c0.5,0.6,0.6,1.6,0.6,3.3L170.1,75.8z M171.8,73c-0.2-0.2-0.4-0.3-0.7-0.3
	c-0.3,0-0.5,0.1-0.7,0.3c-0.3,0.3-0.3,0.9-0.4,2.2h2.1C172.2,73.9,172.1,73.3,171.8,73z"/>
<path class="st1" d="M183.5,78.8c-0.7,0.7-1.9,0.7-2.6,0c0,0,0,0,0,0c-0.4-0.5-0.5-1.4-0.5-3.1s0.1-2.6,0.5-3.1
	c0.7-0.7,1.8-0.8,2.6-0.1c0,0,0.1,0.1,0.1,0.1c0.4,0.5,0.5,1.4,0.5,3.1S184,78.3,183.5,78.8z M182.9,73c-0.2-0.2-0.4-0.3-0.7-0.3
	c-0.3,0-0.5,0.1-0.7,0.3c-0.3,0.4-0.4,1.1-0.4,2.7s0,2.3,0.4,2.7c0.2,0.2,0.4,0.3,0.7,0.3c0.3,0,0.5-0.1,0.7-0.3
	c0.3-0.4,0.4-1.1,0.4-2.7S183.2,73.4,182.9,73L182.9,73z"/>
<path class="st1" d="M188.3,72.7v6.5h-0.8v-6.5h-0.9v-0.6h0.9v-1c0-0.5,0.2-1.1,0.5-1.5c0.4-0.3,1-0.5,1.5-0.5v0.7
	c-0.6-0.1-1.1,0.3-1.2,0.9c0,0.1,0,0.2,0,0.3v1h1.2v0.6H188.3z"/>
<path class="st1" d="M197.2,78.8c-0.4-0.4-0.6-0.9-0.5-1.5v-8.1h0.8v8.1c-0.1,0.6,0.3,1.1,0.9,1.2c0.1,0,0.2,0,0.3,0v0.7
	C198.1,79.3,197.6,79.1,197.2,78.8z"/>
<path class="st1" d="M204.4,78.8c-0.7,0.7-1.9,0.7-2.6,0c0,0,0,0,0,0c-0.4-0.5-0.5-1.4-0.5-3.1s0.1-2.6,0.5-3.1
	c0.7-0.7,1.8-0.8,2.6-0.1c0,0,0.1,0.1,0.1,0.1c0.4,0.5,0.5,1.4,0.5,3.1S204.8,78.3,204.4,78.8z M203.7,73c-0.2-0.2-0.4-0.3-0.7-0.3
	c-0.3,0-0.5,0.1-0.7,0.3c-0.3,0.4-0.4,1.1-0.4,2.7s0,2.3,0.4,2.7c0.2,0.2,0.4,0.3,0.7,0.3c0.3,0,0.5-0.1,0.7-0.3
	c0.3-0.4,0.4-1.1,0.4-2.7S204.1,73.4,203.7,73z"/>
<path class="st1" d="M211,78.9c-0.8,0.7-1.9,0.6-2.6-0.1c-0.4-0.5-0.5-1.4-0.5-3.1s0.1-2.6,0.5-3.1c0.3-0.4,0.8-0.6,1.3-0.6
	c0.5,0,0.9,0.1,1.3,0.4c0.4,0.4,0.6,1,0.5,1.6h-0.8c0-0.4-0.1-0.7-0.3-1c-0.2-0.2-0.4-0.3-0.7-0.3c-0.3,0-0.5,0.1-0.7,0.3
	c-0.3,0.4-0.4,1.1-0.4,2.7s0,2.3,0.4,2.7c0.2,0.2,0.5,0.3,0.7,0.3c0.3,0,0.5-0.1,0.7-0.3c0.2-0.3,0.3-0.6,0.3-1h0.8
	C211.5,77.9,211.3,78.5,211,78.9z"/>
<path class="st1" d="M217.1,79.2v-0.7c-0.1,0.2-0.2,0.3-0.4,0.5c-0.2,0.2-0.6,0.3-0.9,0.3c-0.4,0-0.8-0.2-1.1-0.5
	c-0.3-0.5-0.5-1-0.5-1.6c0-0.6,0.2-1.2,0.6-1.6c0.4-0.3,0.9-0.5,1.4-0.5h0.8v-1.3c0-0.8-0.3-1.2-1-1.2c-0.2,0-0.5,0.1-0.6,0.3
	c-0.2,0.3-0.4,0.6-0.3,1h-0.8c0-0.5,0.2-1.1,0.5-1.5c0.7-0.6,1.8-0.6,2.5,0c0.4,0.4,0.5,1,0.5,1.5v5.3L217.1,79.2z M217.1,75.8h-0.8
	c-0.3,0-0.6,0.1-0.9,0.3c-0.3,0.3-0.4,0.7-0.4,1.2c0,0.9,0.3,1.4,1,1.4s1-0.6,1-1.3L217.1,75.8z"/>
<path class="st1" d="M221.7,78.8c-0.4-0.4-0.6-0.9-0.5-1.5v-8.1h0.8v8.1c-0.1,0.6,0.3,1.1,0.9,1.2c0.1,0,0.2,0,0.3,0v0.7
	C222.6,79.3,222.1,79.1,221.7,78.8z"/>
<path class="st1" d="M233.2,81.7c-0.7,0.7-1.9,0.7-2.6,0c-0.4-0.4-0.5-1-0.5-1.5h0.8c0,0.4,0.1,0.7,0.3,1c0.2,0.2,0.4,0.3,0.7,0.3
	c0.3,0,0.5-0.1,0.7-0.3c0.3-0.3,0.3-0.8,0.3-1.7v-0.9c-0.1,0.2-0.2,0.3-0.4,0.4c-0.2,0.2-0.5,0.2-0.8,0.2c-0.4,0-0.8-0.2-1.1-0.5
	c-0.4-0.5-0.6-1.3-0.6-3.1s0.1-2.6,0.6-3.1c0.5-0.6,1.3-0.7,1.9-0.3c0.2,0.1,0.3,0.3,0.4,0.4V72h0.8v7.4
	C233.8,80.7,233.6,81.2,233.2,81.7z M233,73.9c0-0.4-0.1-0.7-0.3-1c-0.2-0.2-0.4-0.3-0.7-0.3c-0.3,0-0.5,0.1-0.7,0.3
	c-0.3,0.4-0.4,1.1-0.4,2.6s0,2.2,0.4,2.6c0.2,0.2,0.4,0.3,0.7,0.3c0.3,0,0.5-0.1,0.7-0.3c0.2-0.3,0.4-0.6,0.3-1V73.9z"/>
<path class="st1" d="M240.1,78.8c-0.3,0.4-0.8,0.6-1.3,0.6c-0.5,0-1-0.2-1.3-0.6c-0.4-0.5-0.5-1.4-0.5-3.1s0.1-2.6,0.5-3.1
	c0.3-0.4,0.8-0.6,1.3-0.6c0.5,0,1,0.2,1.3,0.6c0.4,0.5,0.5,1.4,0.5,3.1S240.6,78.3,240.1,78.8z M239.5,73c-0.2-0.2-0.4-0.3-0.7-0.3
	c-0.3,0-0.5,0.1-0.7,0.3c-0.3,0.4-0.4,1.1-0.4,2.7s0,2.3,0.4,2.7c0.2,0.2,0.4,0.3,0.7,0.3c0.3,0,0.5-0.1,0.7-0.3
	c0.3-0.4,0.4-1.1,0.4-2.7S239.9,73.4,239.5,73L239.5,73z"/>
<path class="st1" d="M245.6,79.2h-0.8l-1.7-7.2h0.9l1.2,5.9l1.2-5.9h0.9L245.6,79.2z"/>
<path class="st1" d="M250.4,75.8c0,1.5,0,2.2,0.4,2.6c0.2,0.2,0.4,0.3,0.7,0.3c0.3,0,0.5-0.1,0.7-0.3c0.2-0.3,0.3-0.6,0.3-1h0.8
	c0,0.6-0.2,1.1-0.5,1.5c-0.4,0.3-0.8,0.5-1.3,0.5c-0.5,0-1-0.2-1.3-0.5c-0.5-0.5-0.6-1.5-0.6-3.2s0.1-2.7,0.6-3.2
	c0.3-0.4,0.8-0.5,1.3-0.5c0.5,0,1,0.2,1.3,0.5c0.5,0.6,0.6,1.6,0.6,3.3L250.4,75.8z M252.2,73c-0.2-0.2-0.4-0.3-0.7-0.3
	c-0.3,0-0.5,0.1-0.7,0.3c-0.3,0.3-0.3,0.9-0.4,2.2h2.2C252.6,73.9,252.5,73.3,252.2,73z"/>
<path class="st1" d="M258.7,72.7c-0.7-0.1-1.3,0.5-1.4,1.2c0,0.1,0,0.1,0,0.2v5.2h-0.8V72h0.8v0.8c0.3-0.6,0.9-0.9,1.6-0.9v0.7
	H258.7z"/>
<path class="st1" d="M264.4,79.2v-5.4c0-0.8-0.4-1.2-1-1.2s-1,0.4-1,1.2v5.4h-0.8V72h0.8v0.6c0.1-0.2,0.2-0.3,0.4-0.4
	c0.2-0.2,0.5-0.3,0.8-0.3c0.4,0,0.8,0.2,1.1,0.5c0.3,0.4,0.5,0.9,0.4,1.4v5.4L264.4,79.2z"/>
<path class="st1" d="M274.2,79.2v-5.4c0-0.8-0.4-1.2-1-1.2s-1,0.4-1,1.2v5.4h-0.8v-5.4c0-0.8-0.4-1.2-1-1.2s-1,0.4-1,1.2v5.4h-0.8
	V72h0.8v0.6c0.1-0.2,0.2-0.3,0.4-0.4c0.2-0.2,0.5-0.2,0.8-0.3c0.5,0,1.1,0.3,1.4,0.8c0.1-0.2,0.3-0.4,0.5-0.5
	c0.3-0.2,0.6-0.2,0.9-0.3c0.5,0,0.9,0.1,1.2,0.5c0.3,0.4,0.5,0.9,0.4,1.4v5.4L274.2,79.2z"/>
<path class="st1" d="M278.9,75.8c0,1.5,0,2.2,0.4,2.6c0.2,0.2,0.4,0.3,0.7,0.3c0.3,0,0.5-0.1,0.7-0.3c0.2-0.3,0.3-0.6,0.3-1h0.8
	c0,0.6-0.2,1.1-0.5,1.5c-0.4,0.3-0.8,0.5-1.3,0.5c-0.5,0-1-0.2-1.3-0.5c-0.5-0.5-0.6-1.5-0.6-3.2s0.1-2.7,0.6-3.2
	c0.3-0.4,0.8-0.5,1.3-0.5c0.5,0,1,0.2,1.3,0.5c0.5,0.6,0.6,1.6,0.6,3.3L278.9,75.8z M280.7,73c-0.2-0.2-0.4-0.3-0.7-0.3
	c-0.3,0-0.5,0.1-0.7,0.3c-0.3,0.3-0.3,0.9-0.4,2.2h2.1C281,73.9,281,73.3,280.7,73z"/>
<path class="st1" d="M287.7,79.2v-5.4c0-0.8-0.4-1.2-1-1.2s-1,0.4-1,1.2v5.4H285V72h0.8v0.6c0.1-0.2,0.2-0.3,0.4-0.4
	c0.6-0.4,1.4-0.3,2,0.2c0.3,0.4,0.5,0.9,0.4,1.4v5.4L287.7,79.2z"/>
<path class="st1" d="M292.7,78.8c-0.4-0.4-0.6-0.9-0.5-1.5v-4.6h-0.9v-0.6h0.9v-2.2h0.8v2.2h1.2v0.6h-1.2v4.6c0,0.9,0.5,1.2,1.3,1.2
	v0.7C293.7,79.3,293.1,79.1,292.7,78.8z"/>
<path class="st1" d="M299.9,78.8c-0.4,0.4-0.9,0.6-1.4,0.6c-0.5,0-1-0.2-1.3-0.5c-0.4-0.4-0.6-1-0.6-1.6h0.8c0,0.4,0.1,0.8,0.4,1.1
	c0.2,0.2,0.5,0.3,0.8,0.3c0.3,0,0.6-0.1,0.8-0.3c0.2-0.2,0.3-0.6,0.3-0.9c0-0.3-0.1-0.5-0.2-0.8c-0.2-0.3-0.4-0.5-0.7-0.6l-0.9-0.5
	c-0.4-0.2-0.7-0.5-0.9-0.8c-0.1-0.3-0.2-0.6-0.2-0.9c0-0.5,0.2-1,0.6-1.4c0.3-0.3,0.8-0.5,1.3-0.5c0.5,0,0.9,0.1,1.3,0.5
	c0.4,0.4,0.6,1,0.5,1.6h-0.8c0-0.4-0.1-0.7-0.3-1c-0.2-0.2-0.4-0.3-0.7-0.3c-0.3,0-0.5,0.1-0.8,0.3c-0.2,0.2-0.3,0.5-0.3,0.8
	c0,0.2,0,0.4,0.1,0.6c0.2,0.2,0.4,0.4,0.7,0.5l0.9,0.5c0.4,0.2,0.7,0.5,1,0.8c0.2,0.3,0.3,0.7,0.3,1.1
	C300.5,77.9,300.3,78.4,299.9,78.8z"/>
<path class="st1" d="M309,72.7v6.5h-0.8v-6.5h-0.9v-0.6h0.9v-1c0-0.5,0.2-1.1,0.5-1.5c0.4-0.3,0.9-0.5,1.5-0.5v0.7
	c-0.6-0.1-1.1,0.3-1.2,0.9c0,0.1,0,0.2,0,0.3v1h1.2v0.6H309z"/>
<path class="st1" d="M315.2,72.7c-0.7-0.1-1.3,0.5-1.4,1.2c0,0.1,0,0.1,0,0.2v5.2H313V72h0.8v0.8c0.1-0.2,0.2-0.3,0.4-0.4
	c0.3-0.3,0.8-0.4,1.2-0.4v0.7H315.2z"/>
<path class="st1" d="M321.1,78.8c-0.3,0.4-0.8,0.6-1.3,0.6c-0.5,0-1-0.2-1.3-0.6c-0.4-0.5-0.5-1.4-0.5-3.1s0.1-2.6,0.5-3.1
	c0.3-0.4,0.8-0.6,1.3-0.6c0.5,0,1,0.2,1.3,0.6c0.4,0.5,0.5,1.4,0.5,3.1S321.5,78.3,321.1,78.8z M320.5,73c-0.2-0.2-0.4-0.3-0.7-0.3
	c-0.3,0-0.5,0.1-0.7,0.3c-0.3,0.4-0.4,1.1-0.4,2.7s0,2.3,0.4,2.7c0.2,0.2,0.4,0.3,0.7,0.3c0.3,0,0.5-0.1,0.7-0.3
	c0.3-0.4,0.4-1.1,0.4-2.7S320.8,73.4,320.5,73z"/>
<path class="st1" d="M330.4,79.2v-5.4c0-0.8-0.4-1.2-1-1.2s-1,0.4-1,1.2v5.4h-0.8v-5.4c0-0.8-0.4-1.2-1-1.2s-1,0.4-1,1.2v5.4h-0.8
	V72h0.8v0.6c0.1-0.2,0.2-0.3,0.4-0.4c0.2-0.2,0.5-0.2,0.8-0.3c0.5,0,1,0.3,1.3,0.8c0.1-0.2,0.3-0.4,0.5-0.5c0.3-0.2,0.6-0.2,0.9-0.3
	c0.5,0,0.9,0.2,1.2,0.5c0.3,0.4,0.5,0.9,0.4,1.4v5.4L330.4,79.2z"/>
<path class="st1" d="M342.5,78.9c-0.9,0.7-2.1,0.6-2.9-0.1c-0.6-0.7-0.7-1.5-0.7-4.6s0.1-3.9,0.7-4.6c0.4-0.4,0.9-0.6,1.5-0.6
	c0.5,0,1.1,0.2,1.4,0.5c0.4,0.5,0.7,1.2,0.6,1.9h-0.8c0-0.5-0.1-0.9-0.4-1.3c-0.2-0.2-0.5-0.4-0.9-0.3c-0.3,0-0.7,0.1-0.9,0.4
	c-0.4,0.5-0.5,1.1-0.5,4s0.1,3.5,0.5,4c0.2,0.3,0.6,0.4,0.9,0.4c0.3,0,0.6-0.1,0.9-0.3c0.3-0.4,0.4-0.8,0.4-1.3h0.8
	C343.2,77.6,343,78.3,342.5,78.9z"/>
<path class="st1" d="M349.6,78.8c-0.4,0.4-0.9,0.6-1.5,0.6c-0.6,0-1.1-0.2-1.5-0.6c-0.6-0.7-0.7-1.5-0.7-4.6s0.1-3.9,0.7-4.6
	c0.4-0.4,0.9-0.6,1.5-0.6c0.6,0,1.1,0.2,1.5,0.6c0.6,0.7,0.7,1.5,0.7,4.6S350.3,78.1,349.6,78.8z M349,70.2
	c-0.2-0.3-0.6-0.4-0.9-0.4c-0.3,0-0.7,0.1-0.9,0.4c-0.4,0.5-0.5,1.1-0.5,4s0.1,3.5,0.5,4c0.2,0.3,0.6,0.4,0.9,0.4
	c0.3,0,0.7-0.1,0.9-0.4c0.4-0.5,0.5-1.1,0.5-4S349.4,70.7,349,70.2L349,70.2z"/>
<path class="st1" d="M355.5,74.8h-1.1v4.4h-0.8V69.2h2c1.2,0,2.2,0.4,2.2,2.8C357.6,74.1,356.9,74.8,355.5,74.8z M355.5,69.9h-1.2
	V74h1.2c1,0,1.3-0.7,1.3-2S356.5,69.9,355.5,69.9L355.5,69.9z"/>
<path class="st1" d="M360.4,79.2v-0.7l2.4-5.5c0.3-0.7,0.5-1.4,0.5-2.1c0-0.8-0.4-1.2-1-1.2s-1,0.4-1,1.2v0.7h-0.8V71
	c0-0.5,0.2-1,0.5-1.4c0.4-0.3,0.8-0.5,1.3-0.5c0.5,0,0.9,0.2,1.3,0.5c0.4,0.4,0.6,0.9,0.5,1.4c0,0.8-0.2,1.6-0.6,2.3l-2.3,5.2h2.8
	v0.7L360.4,79.2z"/>
<path class="st1" d="M370,78.8c-0.3,0.4-0.8,0.6-1.3,0.6c-0.5,0-0.9-0.2-1.3-0.5c-0.4-0.4-0.6-0.9-0.5-1.4v-0.7h0.8v0.7
	c0,0.9,0.5,1.2,1,1.2c0.3,0,0.5-0.1,0.7-0.4c0.3-0.4,0.4-0.9,0.4-2.3s-0.1-1.9-0.4-2.2c-0.2-0.2-0.4-0.4-0.7-0.3c-0.6,0-1,0.5-1,1.1
	c0,0,0,0,0,0.1v0.5H367v-5.9h3.5v0.7h-2.7v3.6c0.1-0.2,0.3-0.3,0.5-0.5c0.2-0.1,0.5-0.2,0.8-0.2c0.4,0,0.9,0.2,1.1,0.5
	c0.4,0.5,0.5,1.1,0.5,2.7S370.5,78.3,370,78.8z"/>
<path class="st1" d="M378.5,78.8c-0.4-0.4-0.6-0.9-0.5-1.5v-4.6h-0.9v-0.6h0.9v-2.2h0.8v2.2h1.2v0.6h-1.2v4.6c0,0.9,0.5,1.2,1.3,1.2
	v0.7C379.5,79.3,378.9,79.1,378.5,78.8z"/>
<path class="st1" d="M385.6,78.8c-0.7,0.7-1.9,0.7-2.6,0c0,0,0,0,0,0c-0.4-0.5-0.5-1.4-0.5-3.1s0.1-2.6,0.5-3.1
	c0.7-0.7,1.8-0.8,2.6-0.1c0,0,0.1,0.1,0.1,0.1c0.4,0.5,0.5,1.4,0.5,3.1S386,78.3,385.6,78.8z M385,73c-0.2-0.2-0.4-0.3-0.7-0.3
	c-0.3,0-0.5,0.1-0.7,0.3c-0.3,0.4-0.4,1.1-0.4,2.7s0,2.3,0.4,2.7c0.2,0.2,0.4,0.3,0.7,0.3c0.3,0,0.5-0.1,0.7-0.3
	c0.3-0.4,0.4-1.1,0.4-2.7S385.3,73.4,385,73L385,73z"/>
<path class="st1" d="M396.6,78.9c-0.9,0.7-2.1,0.6-2.9-0.1c-0.6-0.7-0.7-1.5-0.7-4.6s0.1-3.9,0.7-4.6c0.4-0.4,0.9-0.6,1.5-0.6
	c0.5,0,1.1,0.2,1.4,0.5c0.4,0.5,0.7,1.2,0.6,1.9h-0.8c0-0.5-0.1-0.9-0.4-1.3c-0.2-0.2-0.5-0.4-0.9-0.3c-0.3,0-0.7,0.1-0.9,0.4
	c-0.4,0.5-0.5,1.1-0.5,4s0.1,3.5,0.5,4c0.2,0.3,0.6,0.4,0.9,0.4c0.3,0,0.6-0.1,0.9-0.3c0.3-0.4,0.4-0.8,0.4-1.3h0.8
	C397.3,77.6,397.1,78.3,396.6,78.9z"/>
<path class="st1" d="M403.8,78.8c-0.4,0.4-0.9,0.6-1.5,0.6c-0.6,0-1.1-0.2-1.5-0.6c-0.6-0.7-0.7-1.5-0.7-4.6s0.1-3.9,0.7-4.6
	c0.4-0.4,0.9-0.6,1.5-0.6c0.6,0,1.1,0.2,1.5,0.6c0.6,0.7,0.7,1.5,0.7,4.6S404.4,78.1,403.8,78.8z M403.2,70.2
	c-0.5-0.5-1.3-0.5-1.8,0c-0.4,0.5-0.5,1.1-0.5,4s0.1,3.5,0.5,4c0.5,0.5,1.3,0.5,1.8,0c0.4-0.5,0.5-1.1,0.5-4S403.6,70.7,403.2,70.2
	L403.2,70.2z"/>
<path class="st1" d="M409.6,74.8h-1.1v4.4h-0.8V69.2h2c1.2,0,2.2,0.4,2.2,2.8C411.8,74.1,411.1,74.8,409.6,74.8z M409.6,69.9h-1.2
	V74h1.2c1,0,1.3-0.7,1.3-2S410.7,69.9,409.6,69.9L409.6,69.9z"/>
<path class="st1" d="M414.6,79.2v-0.7l2.4-5.5c0.3-0.7,0.5-1.4,0.5-2.1c0-0.8-0.4-1.2-1-1.2s-1,0.4-1,1.2v0.7h-0.8V71
	c-0.1-1,0.6-1.8,1.6-1.9c0.1,0,0.1,0,0.2,0c0.5,0,0.9,0.2,1.3,0.5c0.4,0.4,0.6,0.9,0.5,1.4c0,0.8-0.2,1.6-0.6,2.3l-2.2,5.2h2.8v0.7
	L414.6,79.2z"/>
<path class="st1" d="M424.2,78.8c-0.7,0.7-1.9,0.7-2.6,0c0,0,0,0,0,0c-0.4-0.5-0.5-1-0.5-2.5c0-0.9,0.1-1.8,0.4-2.7l1.6-4.4h0.8
	l-1.6,4.3c0.2-0.2,0.5-0.3,0.8-0.3c0.4,0,0.9,0.2,1.1,0.5c0.4,0.4,0.5,0.8,0.5,2.6C424.8,77.8,424.7,78.3,424.2,78.8z M423.6,74.2
	c-0.2-0.2-0.4-0.3-0.7-0.3c-0.3,0-0.5,0.1-0.7,0.3c-0.3,0.3-0.3,0.9-0.3,2.1s0,1.7,0.3,2.1c0.4,0.4,1,0.4,1.4,0
	c0.3-0.3,0.3-0.9,0.3-2.1S423.9,74.5,423.6,74.2z"/>
<rect x="74.2" y="60.9" class="st1" width="348.9" height="0.6"/>
<path class="st1" d="M36.9,26.9c-1.7,1.5-3.1,3.2-4.3,5.1l0.7,0.4C34.3,30.5,35.5,28.6,36.9,26.9z"/>
<g>
	<defs>
		<path id="SVGID_1_" d="M36.9,26.9c-1.7,1.5-3.1,3.2-4.3,5.1l0.7,0.4C34.3,30.5,35.5,28.6,36.9,26.9z"/>
	</defs>
	<clipPath id="SVGID_2_">
		<use xlink:href="#SVGID_1_"  style="overflow:visible;"/>
	</clipPath>
	<g class="st2">
		<polygon class="st1" points="32.6,32.1 32.7,32.4 32.6,32.4 		"/>
		<polygon class="st1" points="32.6,28.2 33.7,32.4 32.7,32.4 32.6,32.1 		"/>
		<polygon class="st1" points="32.6,27.4 33.4,27.2 34.7,32.4 33.7,32.4 32.6,28.2 		"/>
		<polygon class="st1" points="33.4,27.2 34.3,26.9 35.8,32.4 35.7,32.4 34.7,32.4 		"/>
		<polygon class="st1" points="34.3,26.9 34.4,26.9 35.4,26.9 36.7,32.1 35.8,32.4 		"/>
		<polygon class="st1" points="36.4,26.9 36.9,28.6 36.9,32.1 36.7,32.1 35.4,26.9 		"/>
		<polygon class="st1" points="36.9,28.6 36.4,26.9 36.9,26.9 		"/>
	</g>
</g>
<path class="st1" d="M31.4,37.9L30,37.6c-0.5,1.5-0.8,3-1,4.5l2.2,0.8C31.1,41.2,31.1,39.6,31.4,37.9z"/>
<g>
	<defs>
		<path id="SVGID_3_" d="M31.4,37.9L30,37.6c-0.5,1.5-0.8,3-1,4.5l2.2,0.8C31.1,41.2,31.1,39.6,31.4,37.9z"/>
	</defs>
	<clipPath id="SVGID_4_">
		<use xlink:href="#SVGID_3_"  style="overflow:visible;"/>
	</clipPath>
	<g class="st3">
		<polygon class="st1" points="29,41.9 29.2,42.9 29,42.9 		"/>
		<polygon class="st1" points="29,38 30.3,42.9 29.2,42.9 29,41.9 		"/>
		<polygon class="st1" points="29.9,37.6 31.3,42.9 30.3,42.9 29,38 29,37.6 		"/>
		<polygon class="st1" points="30.9,37.6 31.4,39.3 31.4,42.9 31.3,42.9 29.9,37.6 		"/>
		<polygon class="st1" points="31.4,39.3 30.9,37.6 31.4,37.6 		"/>
	</g>
</g>
<path class="st1" d="M27.9,52.8c0.2-0.2,0.5-0.4,0.7-0.7l-2.1-3.9c-0.8,0.7-1.7,1.2-2.7,1.5L23.6,55C25.2,54.6,26.7,53.9,27.9,52.8z
	"/>
<g>
	<defs>
		<path id="SVGID_5_" d="M27.9,52.8c0.2-0.2,0.5-0.4,0.7-0.7l-2.1-3.9c-0.8,0.7-1.7,1.2-2.7,1.5L23.6,55
			C25.2,54.6,26.7,53.9,27.9,52.8z"/>
	</defs>
	<clipPath id="SVGID_6_">
		<use xlink:href="#SVGID_5_"  style="overflow:visible;"/>
	</clipPath>
	<g class="st4">
		<polygon class="st1" points="23.5,52.5 24.2,55 23.5,55 		"/>
		<polygon class="st1" points="23.5,48.6 25.2,55 24.2,55 23.5,52.5 		"/>
		<polygon class="st1" points="23.5,48.4 24.1,48.3 24.5,48.3 26.3,55 26.3,55 25.2,55 23.5,48.6 		"/>
		<polygon class="st1" points="25.5,48.3 27.2,54.7 26.3,55 24.5,48.3 		"/>
		<polygon class="st1" points="26.5,48.3 28.2,54.5 27.2,54.7 25.5,48.3 		"/>
		<polygon class="st1" points="27.6,48.3 28.7,52.3 28.7,54.3 28.2,54.5 26.5,48.3 		"/>
		<polygon class="st1" points="28.6,48.3 28.7,48.4 28.7,52.3 27.6,48.3 		"/>
		<polygon class="st1" points="28.7,48.4 28.6,48.3 28.7,48.3 		"/>
	</g>
</g>
<path class="st1" d="M33,33l-0.7-0.4c-0.8,1.3-1.5,2.7-2,4.2l1.3,0.3C31.9,35.7,32.4,34.3,33,33z"/>
<g>
	<defs>
		<path id="SVGID_7_" d="M33,33l-0.7-0.4c-0.8,1.3-1.5,2.7-2,4.2l1.3,0.3C31.9,35.7,32.4,34.3,33,33z"/>
	</defs>
	<clipPath id="SVGID_8_">
		<use xlink:href="#SVGID_7_"  style="overflow:visible;"/>
	</clipPath>
	<g class="st5">
		<polygon class="st1" points="30.3,35.1 30.8,37.1 30.3,37.1 		"/>
		<polygon class="st1" points="30.6,32.6 31.8,37.1 30.8,37.1 30.3,35.1 30.3,32.6 		"/>
		<polygon class="st1" points="31.7,32.6 32.9,37.1 31.8,37.1 30.6,32.6 		"/>
		<polygon class="st1" points="32.7,32.6 33,33.6 33,37.1 32.9,37.1 31.7,32.6 		"/>
		<polygon class="st1" points="33,33.6 32.7,32.6 33,32.6 		"/>
	</g>
</g>
<path class="st1" d="M31.3,44.3l-2.5-0.8c0,0.1,0,0.2,0,0.3c-0.1,1-0.3,1.9-0.8,2.8l2.1,3.8C31.1,48.5,31.5,46.4,31.3,44.3z"/>
<g>
	<defs>
		<path id="SVGID_9_" d="M31.3,44.3l-2.5-0.8c0,0.1,0,0.2,0,0.3c-0.1,1-0.3,1.9-0.8,2.8l2.1,3.8C31.1,48.5,31.5,46.4,31.3,44.3z"/>
	</defs>
	<clipPath id="SVGID_10_">
		<use xlink:href="#SVGID_9_"  style="overflow:visible;"/>
	</clipPath>
	<g class="st6">
		<polygon class="st1" points="28,49.8 28.1,50.3 28,50.3 		"/>
		<polygon class="st1" points="28,45.9 29.2,50.3 28.1,50.3 28,49.8 		"/>
		<polygon class="st1" points="28.4,43.5 30.2,50.3 29.2,50.3 28,45.9 28,43.5 		"/>
		<polygon class="st1" points="29.4,43.5 31.2,50.3 30.2,50.3 28.4,43.5 		"/>
		<polygon class="st1" points="30.4,43.5 31.5,47.2 31.5,50.3 31.2,50.3 29.4,43.5 		"/>
		<polygon class="st1" points="31.5,47.2 30.4,43.5 31.5,43.5 		"/>
	</g>
</g>
<path class="st1" d="M44.6,6.5C30.6,1.4,14.9,7.6,8.1,20.9c-2.4,4.8-3.6,10.2-3.3,15.6c0.2,2.5,0.6,5,1.4,7.4c1.5,3.7,4.2,6.9,7.6,9
	l2.3-5.4c-1.1-1.2-1.9-2.8-2.3-4.4c-2-8.1,13.6-16.5,22.9-21.1l0,0c13.3-6.6,9.6-5.3,5.1,2.5c-0.4,0.7-0.8,1.5-1.1,2.3
	c-2.2,5.7-0.4,11.4,1.3,16.7c2,6.2,4,12-0.3,17l0,0l0,0c-0.4,0.5-0.4,1.3,0.2,1.8c0.3,0.3,0.8,0.4,1.2,0.2
	C58.7,57.9,67.7,41.4,63,25.8C60.3,16.8,53.5,9.6,44.6,6.5L44.6,6.5z"/>
<g>
	<defs>
		<path id="SVGID_11_" d="M44.6,6.5C30.6,1.4,14.9,7.6,8.1,20.9c-2.4,4.8-3.6,10.2-3.3,15.6c0.2,2.5,0.6,5,1.4,7.4
			c1.5,3.7,4.2,6.9,7.6,9l2.3-5.4c-1.1-1.2-1.9-2.8-2.3-4.4c-2-8.1,13.6-16.5,22.9-21.1l0,0c13.3-6.6,9.6-5.3,5.1,2.5
			c-0.4,0.7-0.8,1.5-1.1,2.3c-2.2,5.7-0.4,11.4,1.3,16.7c2,6.2,4,12-0.3,17l0,0l0,0c-0.4,0.5-0.4,1.3,0.2,1.8
			c0.3,0.3,0.8,0.4,1.2,0.2C58.7,57.9,67.7,41.4,63,25.8C60.3,16.8,53.5,9.6,44.6,6.5L44.6,6.5z"/>
	</defs>
	<clipPath id="SVGID_12_">
		<use xlink:href="#SVGID_11_"  style="overflow:visible;"/>
	</clipPath>
	<g class="st7">
		<polygon class="st1" points="4.6,59.2 5.6,63 4.6,63 		"/>
		<polygon class="st1" points="4.6,55.3 6.6,63 5.6,63 4.6,59.2 		"/>
		<polygon class="st1" points="4.6,51.4 7.7,63 6.6,63 4.6,55.3 		"/>
		<polygon class="st1" points="4.6,47.6 8.7,63 7.7,63 4.6,51.4 		"/>
		<polygon class="st1" points="4.6,43.7 9.7,63 8.7,63 4.6,47.6 		"/>
		<polygon class="st1" points="4.6,39.8 10.8,63 9.7,63 4.6,43.7 		"/>
		<polygon class="st1" points="4.6,36 11.8,63 10.8,63 4.6,39.8 		"/>
		<polygon class="st1" points="4.6,32.1 12.9,63 11.8,63 4.6,36 		"/>
		<polygon class="st1" points="4.6,28.2 13.9,63 12.9,63 4.6,32.1 		"/>
		<polygon class="st1" points="4.6,24.3 14.9,63 13.9,63 4.6,28.2 		"/>
		<polygon class="st1" points="4.6,20.5 16,63 14.9,63 4.6,24.3 		"/>
		<polygon class="st1" points="4.6,16.6 17,63 16,63 4.6,20.5 		"/>
		<polygon class="st1" points="4.6,12.7 18,63 17,63 4.6,16.6 		"/>
		<polygon class="st1" points="4.6,8.8 19.1,63 18,63 4.6,12.7 		"/>
		<polygon class="st1" points="4.6,7.7 5.2,7.5 20.1,63 19.1,63 4.6,8.8 		"/>
		<polygon class="st1" points="5.2,7.5 6.2,7.3 21.2,63 20.1,63 		"/>
		<polygon class="st1" points="6.2,7.3 7.2,7 22.2,63 21.2,63 		"/>
		<polygon class="st1" points="7.2,7 8.1,6.7 23.2,63 22.2,63 		"/>
		<polygon class="st1" points="8.1,6.7 9.1,6.5 24.3,63 23.2,63 		"/>
		<polygon class="st1" points="9.1,6.5 10.1,6.2 25.3,63 24.3,63 		"/>
		<polygon class="st1" points="10.1,6.2 11.1,6 26.3,63 25.3,63 		"/>
		<polygon class="st1" points="11.1,6 12,5.7 27.4,63 26.3,63 		"/>
		<polygon class="st1" points="12,5.7 13,5.4 28.4,63 27.4,63 		"/>
		<polygon class="st1" points="13,5.4 14,5.2 29.5,63 28.4,63 		"/>
		<polygon class="st1" points="14,5.2 14.9,4.9 30.5,63 29.5,63 		"/>
		<polygon class="st1" points="14.9,4.9 15.9,4.7 31.5,63 30.5,63 		"/>
		<polygon class="st1" points="15.9,4.7 16.9,4.4 32.6,63 31.5,63 		"/>
		<polygon class="st1" points="16.9,4.4 17.8,4.1 33.6,63 32.6,63 		"/>
		<polygon class="st1" points="17.8,4.1 18.8,3.9 34.6,63 33.6,63 		"/>
		<polygon class="st1" points="18.8,3.9 19.8,3.6 35.7,63 34.6,63 		"/>
		<polygon class="st1" points="19.8,3.6 20.7,3.4 36.7,63 35.7,63 		"/>
		<polygon class="st1" points="20.7,3.4 21.7,3.1 37.8,63 36.7,63 		"/>
		<polygon class="st1" points="21.7,3.1 22.7,2.8 38.8,63 37.8,63 		"/>
		<polygon class="st1" points="22.7,2.8 23.6,2.6 39.8,63 38.8,63 		"/>
		<polygon class="st1" points="23.6,2.6 24.6,2.3 40.9,63 39.8,63 		"/>
		<polygon class="st1" points="24.6,2.3 25.6,2.1 41.9,63 40.9,63 		"/>
		<polygon class="st1" points="25.6,2.1 26.5,1.8 43,63 41.9,63 		"/>
		<polygon class="st1" points="26.5,1.8 27.5,1.5 44,63 43,63 		"/>
		<polygon class="st1" points="27.5,1.5 28.2,1.4 28.5,1.4 45,62.8 44.3,63 44,63 		"/>
		<polygon class="st1" points="29.5,1.4 45.9,62.6 45,62.8 28.5,1.4 		"/>
		<polygon class="st1" points="30.6,1.4 46.9,62.3 45.9,62.6 29.5,1.4 		"/>
		<polygon class="st1" points="31.6,1.4 47.9,62.1 46.9,62.3 30.6,1.4 		"/>
		<polygon class="st1" points="32.7,1.4 48.9,61.8 47.9,62.1 31.6,1.4 		"/>
		<polygon class="st1" points="33.7,1.4 49.8,61.6 48.9,61.8 32.7,1.4 		"/>
		<polygon class="st1" points="34.7,1.4 50.8,61.3 49.8,61.6 33.7,1.4 		"/>
		<polygon class="st1" points="35.8,1.4 51.8,61 50.8,61.3 34.7,1.4 		"/>
		<polygon class="st1" points="36.8,1.4 52.7,60.8 51.8,61 35.8,1.4 		"/>
		<polygon class="st1" points="37.8,1.4 53.7,60.5 52.7,60.8 36.8,1.4 		"/>
		<polygon class="st1" points="38.9,1.4 54.7,60.3 53.7,60.5 37.8,1.4 		"/>
		<polygon class="st1" points="39.9,1.4 55.6,60 54.7,60.3 38.9,1.4 		"/>
		<polygon class="st1" points="41,1.4 56.6,59.7 55.6,60 39.9,1.4 		"/>
		<polygon class="st1" points="42,1.4 57.6,59.5 56.6,59.7 41,1.4 		"/>
		<polygon class="st1" points="43,1.4 58.5,59.2 57.6,59.5 42,1.4 		"/>
		<polygon class="st1" points="44.1,1.4 59.5,59 58.5,59.2 43,1.4 		"/>
		<polygon class="st1" points="45.1,1.4 60.5,58.7 59.5,59 44.1,1.4 		"/>
		<polygon class="st1" points="46.2,1.4 61.4,58.4 60.5,58.7 45.1,1.4 		"/>
		<polygon class="st1" points="47.2,1.4 62.4,58.2 61.4,58.4 46.2,1.4 		"/>
		<polygon class="st1" points="48.2,1.4 63.4,57.9 62.4,58.2 47.2,1.4 		"/>
		<polygon class="st1" points="49.3,1.4 64.3,57.7 63.4,57.9 48.2,1.4 		"/>
		<polygon class="st1" points="50.3,1.4 65.3,57.4 64.3,57.7 49.3,1.4 		"/>
		<polygon class="st1" points="51.3,1.4 66.3,57.1 65.3,57.4 50.3,1.4 		"/>
		<polygon class="st1" points="52.4,1.4 67.3,56.9 66.3,57.1 51.3,1.4 		"/>
		<polygon class="st1" points="53.4,1.4 68.2,56.6 67.3,56.9 52.4,1.4 		"/>
		<polygon class="st1" points="54.5,1.4 68.4,53.5 68.4,56.6 68.2,56.6 53.4,1.4 		"/>
		<polygon class="st1" points="55.5,1.4 68.4,49.6 68.4,53.5 54.5,1.4 		"/>
		<polygon class="st1" points="56.5,1.4 68.4,45.7 68.4,49.6 55.5,1.4 		"/>
		<polygon class="st1" points="57.6,1.4 68.4,41.9 68.4,45.7 56.5,1.4 		"/>
		<polygon class="st1" points="58.6,1.4 68.4,38 68.4,41.9 57.6,1.4 		"/>
		<polygon class="st1" points="59.6,1.4 68.4,34.1 68.4,38 58.6,1.4 		"/>
		<polygon class="st1" points="60.7,1.4 68.4,30.2 68.4,34.1 59.6,1.4 		"/>
		<polygon class="st1" points="61.7,1.4 68.4,26.4 68.4,30.2 60.7,1.4 		"/>
		<polygon class="st1" points="62.8,1.4 68.4,22.5 68.4,26.4 61.7,1.4 		"/>
		<polygon class="st1" points="68.4,22.5 62.8,1.4 68.4,1.4 		"/>
	</g>
</g>
<path class="st1" d="M16.7,54.3c1.5,0.6,3.1,0.9,4.7,0.9l0.3-5.1c-1.2,0-2.3-0.3-3.3-0.8l-2.1,4.9L16.7,54.3z"/>
<g>
	<defs>
		<path id="SVGID_13_" d="M16.7,54.3c1.5,0.6,3.1,0.9,4.7,0.9l0.3-5.1c-1.2,0-2.3-0.3-3.3-0.8l-2.1,4.9L16.7,54.3z"/>
	</defs>
	<clipPath id="SVGID_14_">
		<use xlink:href="#SVGID_13_"  style="overflow:visible;"/>
	</clipPath>
	<g class="st8">
		<polygon class="st1" points="16.3,52.7 17,55.3 16.3,55.3 		"/>
		<polygon class="st1" points="16.4,49.3 18,55.3 17,55.3 16.3,52.7 16.3,49.3 		"/>
		<polygon class="st1" points="17.5,49.3 19.1,55.3 18,55.3 16.4,49.3 		"/>
		<polygon class="st1" points="18.5,49.3 20.1,55.3 19.1,55.3 17.5,49.3 		"/>
		<polygon class="st1" points="19.5,49.3 21.2,55.3 20.1,55.3 18.5,49.3 		"/>
		<polygon class="st1" points="20.6,49.3 21.7,53.5 21.7,55.3 21.2,55.3 19.5,49.3 		"/>
		<polygon class="st1" points="21.6,49.3 21.7,49.7 21.7,53.5 20.6,49.3 		"/>
		<polygon class="st1" points="21.7,49.7 21.6,49.3 21.7,49.3 		"/>
	</g>
</g>
<path class="st1" d="M457,61.3c5.9-0.1,11.8-0.8,17.6-2.2c5.7-1.3,11.3-3.1,16.7-5.5V8.6h-56v52.8L457,61.3"/>
<path class="st9" d="M462.1,40.9c1.3,0.8,4.7,0.8,8.4,0c4.6-1,8.1-3,7.8-4.3c-0.1-0.3-0.2-0.5-0.5-0.6c-1.3-0.8-4.7-0.8-8.4,0
	s-6.8,2.3-7.6,3.5c-0.1,0.2-0.2,0.5-0.2,0.7C461.7,40.6,461.9,40.8,462.1,40.9 M447.1,49.6c0.2,0.9,0.8,1.6,1.6,2
	c3.9,2.5,13.7,2.6,24.3,0.2c7.5-1.7,14.2-4.3,18.4-7.2v-36h-56v52.8h7.9c-1.5-0.7-2.7-2-3.1-3.6c-0.1-0.3-0.1-0.6-0.1-0.9
	c0.1-1.5,0.7-3,1.7-4.1c0,0,0-0.1,0.1-0.1c0,0,0.1,0,0.1,0.1c0,0,0,0,0,0c-0.6,0.9-0.9,2.1-0.7,3.2c0.8,3.4,6.7,5.3,15.2,5.3h0.5
	c5.9-0.1,11.9-0.8,17.6-2.2c5.7-1.3,11.3-3.1,16.7-5.5v-6.5c-5.6,3.1-11.6,5.4-17.9,6.7c-11.2,2.5-21.6,2.4-25.9-0.3
	c-0.9-0.5-1.6-1.4-1.9-2.4c-0.3-1.4,0.5-3.1,2.3-4.8 M448.1,46.3C448.2,46.3,448.2,46.4,448.1,46.3
	C448.1,46.4,448.1,46.4,448.1,46.3c-0.8,0.9-1.2,2.1-1,3.3L448.1,46.3z M469.4,35.7c5.6-1.3,10.5-0.8,10.9,1c0.1,0.4,0,0.8-0.3,1.1
	c-1,1.6-4.7,3.4-9.2,4.4c-5.6,1.3-10.5,0.8-10.9-1S463.8,36.9,469.4,35.7z M455.7,41C455.7,41,455.8,41,455.7,41
	C455.8,41,455.8,41,455.7,41c-1.4,1.2-2,2.4-1.8,3.3c0.2,0.5,0.5,1,1,1.3c2.6,1.6,9.4,1.7,16.7,0c9.1-2,16-6,15.4-8.7
	c-0.2-0.9-1.3-1.6-3.1-2.1c0,0-0.1,0,0-0.1s0-0.1,0.1,0c3,0.4,4.7,1.4,5,2.8c0.1,0.7,0,1.4-0.5,2c-1.9,3-8.5,6.2-16.5,8
	s-15.4,1.7-18.3-0.2c-0.6-0.3-1.1-0.9-1.3-1.6C452.1,44.3,453.3,42.7,455.7,41L455.7,41z"/>
<path class="st1" d="M468.2,17.8L468.2,17.8l-2.3-4.1h-2.4v7.7h2.2v-4.2l0,0l2.4,4.2h2.3v-7.7h-2.2L468.2,17.8 M475.4,19.6
	c-1.1,0-1.5-1.1-1.5-2.1s0.4-2.1,1.5-2.1c0.6,0,1.2,0.5,1.2,1.1h2.3c0-1.7-1.5-3.1-3.2-3.1c-0.1,0-0.2,0-0.3,0
	c-2.1-0.1-3.8,1.5-3.9,3.5c0,0.2,0,0.3,0,0.5c-0.1,2.1,1.4,3.8,3.5,4c0.1,0,0.3,0,0.4,0c1.8,0.1,3.4-1.3,3.5-3.1c0,0,0-0.1,0-0.1
	h-2.3C476.5,19.1,476.2,19.7,475.4,19.6L475.4,19.6z M454.3,16.3c0-1.7-1-2.6-2.8-2.6h-3.9v7.7h2.3v-2.6h0.8l1.3,2.6h2.5
	c0,0-1.4-2.7-1.6-3C453.7,18,454.3,17.2,454.3,16.3z M451.3,17h-1.5v-1.5h1.5c0.4,0,0.7,0.2,0.8,0.6c0,0.1,0,0.1,0,0.2
	c0.1,0.4-0.2,0.7-0.6,0.8C451.4,17,451.3,17,451.3,17L451.3,17z M486.4,15.4v-1.8H480v7.7h6.3v-1.8h-3.8v-1.1h3.2v-1.7h-3.2v-1.2
	L486.4,15.4L486.4,15.4z M440.5,21.3h2.5v-2.6h2.8v-1.8H443v-1.5h3.5v-1.8h-6L440.5,21.3z M457.6,13.7l-2.8,7.7h2.5l0.3-1h2.5l0.3,1
	h2.5l-2.7-7.7H457.6z M458.1,18.7l0.8-2.7l0.8,2.7H458.1z"/>
<path class="st1" d="M460.5,29.9v-7h-3.6l-5.8,6.7v2.8h-5.5c2.4-1.5,5.5-2.5,5.5-5.7c0-2.7-2.1-4-5.1-4c-3.4,0-5.5,2-5.3,5.5h3.4
	c0-1.5,0.5-2.6,1.9-2.6c0.8-0.1,1.4,0.5,1.5,1.2c0,0.1,0,0.2,0,0.3c0,0.9-1.1,1.4-1.7,1.8c-1.6,1-3.4,2-4.5,3.4
	c-0.7,0.9-1,2-0.9,3.1h10.9V33h5.4v2.5h3.8V33h1.7v-3.1H460.5 M456.7,29.9h-3.1l3.1-3.5L456.7,29.9z"/>
</svg>
