<?xml version="1.0" encoding="utf-8"?>
<!-- Generator: Adobe Illustrator 24.3.0, SVG Export Plug-In . SVG Version: 6.00 Build 0)  -->
<svg version="1.1" id="Layer_1" xmlns="http://www.w3.org/2000/svg" xmlns:xlink="http://www.w3.org/1999/xlink" x="0px" y="0px"
	 width="135px" height="35px" viewBox="0 0 135 35" style="enable-background:new 0 0 135 35;" xml:space="preserve">
<style type="text/css">
	.st0{fill:#FFFFFF;}
</style>
<path class="st0" d="M27.8,15.4c0-0.3-0.1-0.5-0.2-0.7c-0.2-0.2-0.4-0.3-0.6-0.5c-0.3-0.1-0.5-0.3-0.8-0.4c-0.3-0.1-0.6-0.3-0.8-0.4
	c-0.2-0.2-0.5-0.4-0.6-0.6c-0.2-0.3-0.3-0.6-0.2-1c0-0.5,0.2-1,0.6-1.3c0.5-0.3,1-0.5,1.6-0.4c0.4,0,0.8,0,1.1,0.1
	c0.3,0,0.5,0.1,0.8,0.2l-0.2,0.7c-0.2-0.1-0.4-0.2-0.7-0.2c-0.3-0.1-0.7-0.1-1-0.1c-0.4,0-0.7,0.1-1,0.3c-0.2,0.2-0.3,0.4-0.3,0.7
	c0,0.2,0.1,0.5,0.2,0.6c0.2,0.2,0.4,0.3,0.6,0.5c0.2,0.1,0.5,0.3,0.8,0.4c0.3,0.1,0.6,0.3,0.8,0.5c0.2,0.2,0.5,0.4,0.6,0.6
	c0.2,0.3,0.3,0.6,0.2,0.9c0,0.3,0,0.6-0.1,0.8c-0.1,0.2-0.3,0.5-0.5,0.6c-0.2,0.2-0.5,0.3-0.8,0.4s-0.7,0.1-1,0.1
	c-0.4,0-0.9,0-1.3-0.1c-0.3-0.1-0.5-0.1-0.8-0.3l0.3-0.7c0.2,0.1,0.4,0.2,0.7,0.2c0.3,0.1,0.7,0.1,1,0.1c0.2,0,0.4,0,0.6-0.1
	c0.2,0,0.3-0.1,0.5-0.2c0.1-0.1,0.3-0.2,0.3-0.4C27.7,15.7,27.8,15.5,27.8,15.4z"/>
<path class="st0" d="M29.7,13.6c-0.1-0.9,0.2-1.9,0.7-2.6c0.5-0.7,1.3-1,2.1-1c0.4,0,0.9,0.1,1.3,0.3c0.4,0.2,0.7,0.4,0.9,0.7
	c0.3,0.3,0.4,0.7,0.5,1.1c0.1,0.5,0.2,1,0.2,1.5c0.1,1-0.2,1.9-0.7,2.7c-0.5,0.6-1.3,1-2.1,0.9c-0.4,0-0.9-0.1-1.3-0.2
	c-0.4-0.2-0.7-0.4-0.9-0.7c-0.2-0.3-0.4-0.7-0.5-1.1C29.7,14.6,29.7,14.1,29.7,13.6z M30.6,13.6c0,0.4,0,0.7,0.1,1.1
	c0.1,0.3,0.2,0.6,0.4,0.9c0.1,0.3,0.4,0.5,0.6,0.6c0.3,0.2,0.6,0.2,0.9,0.2c0.6,0,1.1-0.2,1.5-0.7c0.4-0.7,0.6-1.4,0.5-2.2
	c0-0.4,0-0.7-0.1-1.1c-0.1-0.3-0.2-0.6-0.4-0.9c-0.2-0.3-0.4-0.5-0.6-0.6c-0.3-0.2-0.6-0.2-0.9-0.2c-0.6,0-1.1,0.2-1.5,0.7
	C30.7,12.1,30.5,12.9,30.6,13.6z"/>
<path class="st0" d="M41,17.1h-4.2v-7h0.8v6.3H41V17.1z"/>
<path class="st0" d="M42.2,10.1H43v7h-0.8V10.1z"/>
<path class="st0" d="M49.4,16.8c-0.2,0.2-0.5,0.3-0.8,0.3c-0.3,0.1-0.7,0.1-1,0.1c-0.4,0-0.8-0.1-1.2-0.2s-0.7-0.4-1-0.7
	c-0.3-0.3-0.5-0.7-0.7-1.1c-0.2-0.5-0.3-1.1-0.2-1.6c0-0.5,0.1-1.1,0.3-1.6c0.2-0.4,0.4-0.8,0.7-1.1s0.6-0.5,1-0.6s0.7-0.2,1.1-0.2
	c0.3,0,0.7,0,1,0.1c0.2,0,0.4,0.1,0.7,0.2L49.1,11c-0.4-0.2-0.9-0.3-1.4-0.2c-0.3,0-0.6,0.1-0.8,0.1c-0.3,0.1-0.5,0.3-0.7,0.5
	c-0.2,0.3-0.4,0.6-0.5,0.9c-0.1,0.4-0.2,0.9-0.2,1.4c0,0.4,0.1,0.9,0.2,1.3c0.1,0.3,0.3,0.6,0.5,0.9c0.2,0.2,0.5,0.4,0.7,0.5
	c0.3,0.1,0.6,0.2,0.9,0.2c0.3,0,0.5,0,0.8-0.1c0.2,0,0.4-0.1,0.6-0.2L49.4,16.8z"/>
<path class="st0" d="M50.8,10.1h0.8v7h-0.8V10.1z"/>
<path class="st0" d="M58,10.9h-2.2v6.3H55v-6.3h-2.2v-0.7H58V10.9z"/>
<path class="st0" d="M61.7,15.2h-2.6l-0.7,1.9h-0.8l2.7-7.1h0.4l2.7,7.1h-0.9L61.7,15.2z M59.4,14.5h2l-0.8-2.1l-0.2-1.1l0,0
	l-0.2,1.1L59.4,14.5z"/>
<path class="st0" d="M64.2,10.2c0.3,0,0.6-0.1,0.9-0.1s0.6,0,0.9,0s0.6,0,0.9,0.1s0.5,0.2,0.7,0.3c0.2,0.2,0.4,0.4,0.5,0.6
	c0.1,0.3,0.2,0.6,0.2,0.9c0,0.5-0.1,1-0.4,1.3s-0.7,0.6-1.1,0.7l0.5,0.4l1.8,2.7h-1l-1.9-3l-1-0.1v3.2h-0.8v-7H64.2z M66,10.8h-0.5
	h-0.2h-0.2v2.6h0.8c0.4,0,0.8-0.1,1.2-0.3c0.3-0.3,0.5-0.7,0.4-1.1c0-0.3-0.1-0.7-0.4-0.9S66.4,10.7,66,10.8L66,10.8z"/>
<path class="st0" d="M73.1,10.1h0.8v7h-0.8V10.1z"/>
<path class="st0" d="M77,12.6l-0.5-1l0,0l0.1,1v4.6h-0.8V10h0.4l3.3,4.7l0.5,1l0,0l-0.1-1v-4.5h0.8v7.1h-0.4L77,12.6z"/>
<path class="st0" d="M82.5,10.1h3.8v0.7h-3v2.4h2.8V14h-2.8v3.1h-0.8V10.1z"/>
<path class="st0" d="M87.4,13.6c0-0.9,0.2-1.9,0.7-2.6c0.5-0.7,1.3-1,2.1-1c0.4,0,0.9,0.1,1.3,0.3s0.7,0.4,0.9,0.7
	c0.3,0.3,0.4,0.7,0.5,1.1c0.1,0.5,0.2,1,0.2,1.5c0.1,1-0.2,1.9-0.7,2.7c-0.5,0.6-1.3,1-2.1,0.9c-0.4,0-0.8-0.1-1.2-0.2
	c-0.4-0.2-0.7-0.4-0.9-0.7c-0.2-0.3-0.4-0.7-0.5-1.1C87.5,14.6,87.4,14.1,87.4,13.6z M88.3,13.6c0,0.4,0,0.7,0.1,1.1
	c0.1,0.3,0.2,0.6,0.3,0.9c0.2,0.3,0.4,0.5,0.6,0.6c0.3,0.2,0.6,0.2,0.9,0.2c0.6,0,1.1-0.2,1.5-0.7c0.4-0.7,0.6-1.4,0.5-2.2
	c0-0.4,0-0.7-0.1-1.1c-0.1-0.3-0.2-0.6-0.4-0.9c-0.2-0.3-0.4-0.5-0.6-0.6c-0.3-0.2-0.6-0.2-0.9-0.2c-0.6,0-1.1,0.2-1.4,0.7
	C88.4,12.1,88.2,12.9,88.3,13.6z"/>
<path class="st0" d="M94.5,10.2c0.3,0,0.6-0.1,0.9-0.1s0.6,0,0.9,0s0.6,0,0.9,0.1s0.5,0.2,0.7,0.3c0.2,0.2,0.4,0.4,0.5,0.6
	c0.1,0.3,0.2,0.6,0.2,0.9c0,0.5-0.1,1-0.4,1.3s-0.7,0.6-1.1,0.6l0.5,0.4l1.7,2.8h-1l-1.9-3l-1-0.1v3.2h-0.8L94.5,10.2z M96.3,10.8
	h-0.5h-0.2h-0.2v2.6h0.8c0.4,0,0.8-0.1,1.1-0.3c0.3-0.2,0.5-0.6,0.4-1c0-0.3-0.1-0.7-0.4-0.9C97.1,10.9,96.7,10.7,96.3,10.8z"/>
<path class="st0" d="M105.8,12.4l0.1-1l0,0l-0.4,1l-1.8,3.2h-0.2l-1.9-3.2l-0.4-0.9h-0.1l0.1,1v4.7h-0.8v-7h0.6l2.2,3.6l0.3,0.8l0,0
	l0.3-0.8l2-3.6h0.7v7h-0.8L105.8,12.4z"/>
<path class="st0" d="M111.7,15.2h-2.6l-0.7,1.9h-0.8l2.7-7.1h0.4l2.7,7.1h-0.9L111.7,15.2z M109.4,14.5h2l-0.8-2.1l-0.2-1.1l0,0
	l-0.2,1.1L109.4,14.5z"/>
<path class="st0" d="M118.4,16.8c-0.2,0.2-0.5,0.3-0.8,0.3c-0.3,0.1-0.7,0.1-1,0.1c-0.4,0-0.8-0.1-1.2-0.2c-0.4-0.1-0.7-0.4-1-0.7
	c-0.3-0.3-0.5-0.7-0.7-1.1c-0.2-0.5-0.3-1.1-0.2-1.6c0-0.6,0.2-1.1,0.4-1.6c0.1-0.4,0.4-0.8,0.7-1.1c0.3-0.3,0.6-0.5,1-0.6
	s0.7-0.2,1.1-0.2c0.3,0,0.7,0,1,0.1c0.2,0,0.4,0.1,0.7,0.2l-0.2,0.7c-0.4-0.2-0.9-0.3-1.4-0.2c-0.3,0-0.6,0.1-0.8,0.1
	c-0.3,0.1-0.5,0.3-0.7,0.5c-0.2,0.3-0.4,0.6-0.5,0.9c-0.1,0.4-0.2,0.9-0.2,1.4c0,0.4,0.1,0.9,0.2,1.3c0.1,0.3,0.3,0.6,0.5,0.9
	c0.2,0.2,0.5,0.4,0.7,0.5c0.3,0.1,0.6,0.2,0.9,0.2s0.5,0,0.8-0.1c0.2,0,0.4-0.1,0.6-0.2L118.4,16.8z"/>
<path class="st0" d="M119.9,10.1h0.8v7h-0.8V10.1z"/>
<path class="st0" d="M122.3,13.6c-0.1-0.9,0.2-1.9,0.7-2.6c0.5-0.6,1.3-1,2.1-0.9c0.4,0,0.9,0.1,1.3,0.3s0.7,0.4,0.9,0.7
	c0.3,0.3,0.4,0.7,0.5,1.1c0.1,0.5,0.2,1,0.2,1.5c0.1,1-0.2,1.9-0.7,2.7c-0.5,0.6-1.3,1-2.1,0.9c-0.4,0-0.9-0.1-1.3-0.3
	c-0.4-0.2-0.7-0.4-0.9-0.7c-0.2-0.3-0.4-0.7-0.5-1.1C122.3,14.7,122.3,14.1,122.3,13.6z M123.2,13.6c0,0.4,0,0.7,0.1,1.1
	c0.1,0.3,0.2,0.6,0.3,0.9c0.2,0.3,0.4,0.5,0.6,0.6c0.3,0.2,0.6,0.2,0.9,0.2c0.6,0,1.1-0.2,1.5-0.7c0.4-0.7,0.6-1.4,0.5-2.2
	c0-0.4,0-0.7-0.1-1.1c-0.1-0.3-0.2-0.6-0.4-0.9c-0.2-0.3-0.4-0.5-0.6-0.6c-0.3-0.2-0.6-0.2-0.9-0.2c-0.6,0-1.1,0.2-1.4,0.7
	C123.3,12.1,123.1,12.9,123.2,13.6z M125.9,8.4h1.1v0.2l-1.6,1h-0.7L125.9,8.4z"/>
<path class="st0" d="M130.7,12.6l-0.5-1l0,0l0.1,1v4.6h-0.8V10h0.4l3.4,4.7l0.5,1l0,0l-0.1-1v-4.5h0.8v7.1H134L130.7,12.6z"/>
<path class="st0" d="M28.8,27.2h-4.4v-7h1.4V26h3V27.2z"/>
<path class="st0" d="M29.6,20.2h4.1v1.2h-2.8V23h2.5v1.2h-2.5V26h2.8v1.2h-4.2v-7H29.6z"/>
<path class="st0" d="M36.5,24.6l-2.3-4.4h1.6l1.3,2.6l0.1,0.7l0,0l0.2-0.8l1.2-2.6h1.5l-2.2,4.4v2.6h-1.4
	C36.5,27.1,36.5,24.6,36.5,24.6z"/>
<path class="st0" d="M43,20.2h0.5c0.2,0,0.4,0,0.5,0h0.5H45c0.5,0,1.1,0.1,1.6,0.3c0.4,0.1,0.8,0.4,1.1,0.7c0.3,0.3,0.5,0.7,0.6,1.1
	c0.1,0.5,0.2,0.9,0.2,1.4c0,0.4-0.1,0.9-0.2,1.3c-0.1,0.4-0.3,0.8-0.6,1.2c-0.3,0.4-0.7,0.6-1.1,0.8c-0.5,0.2-1.1,0.3-1.7,0.3h-0.4
	H44h-0.5H43V20.2z M45.2,21.3h-0.4c-0.1,0-0.2,0-0.3,0V26H45c0.3,0,0.7-0.1,1-0.2c0.2-0.1,0.5-0.3,0.6-0.5c0.2-0.2,0.3-0.5,0.3-0.8
	c0.1-0.3,0.1-0.6,0.1-0.9s0-0.6-0.1-0.8c0-0.3-0.1-0.5-0.3-0.7c-0.1-0.2-0.4-0.4-0.6-0.5C45.8,21.3,45.4,21.3,45.2,21.3L45.2,21.3z"
	/>
<path class="st0" d="M49.4,20.2h4.2v1.2h-2.8V23h2.5v1.2h-2.5V26h2.8v1.2h-4.2V20.2z"/>
<path class="st0" d="M61.8,21.4h-2v5.8h-1.4v-5.8h-2v-1.2h5.5L61.8,21.4z"/>
<path class="st0" d="M62.5,20.3l0.5-0.1h0.5H64h0.5c0.3,0,0.7,0,1,0.1s0.6,0.2,0.8,0.3c0.2,0.1,0.5,0.4,0.6,0.6
	c0.2,0.3,0.2,0.7,0.2,1c0,0.5-0.1,1-0.4,1.4s-0.6,0.6-1.1,0.8l0.5,0.3l1.6,2.7h-1.6l-1.6-2.7l-0.7-0.1v2.9h-1.4v-7.2H62.5z
	 M64.6,21.3h-0.4c-0.1,0-0.2,0-0.3,0v2h0.6c0.3,0,0.6-0.1,0.9-0.3c0.2-0.2,0.4-0.5,0.3-0.9c0-0.3-0.1-0.5-0.3-0.7
	C65.2,21.3,64.9,21.3,64.6,21.3L64.6,21.3z"/>
<path class="st0" d="M71.6,25.7h-2.1L69,27.2h-1.4l2.5-7h1l2.5,7h-1.4L71.6,25.7z M69.8,24.6h1.5L70.8,23l-0.2-1.1l0,0L70.3,23
	L69.8,24.6z"/>
<path class="st0" d="M75.9,23.6l-0.6-1.1l0,0l0.2,1.1v3.6h-1.3v-7h1l2.7,3.7l0.5,1.1l0,0l-0.2-1.1v-3.7h1.3v7h-1L75.9,23.6z"/>
<path class="st0" d="M83.8,25.3c0-0.2-0.1-0.4-0.2-0.5c-0.2-0.2-0.4-0.3-0.6-0.4l-0.8-0.3c-0.3-0.1-0.5-0.3-0.8-0.4
	c-0.2-0.2-0.4-0.4-0.6-0.6c-0.2-0.3-0.3-0.7-0.2-1c0-0.3,0.1-0.6,0.2-0.9c0.1-0.2,0.3-0.5,0.5-0.6c0.2-0.2,0.5-0.3,0.7-0.4
	c0.3-0.1,0.7-0.1,1-0.1c0.4,0,0.8,0,1.2,0.1c0.3,0.1,0.6,0.2,0.9,0.3l-0.4,1.1c-0.2-0.1-0.4-0.2-0.7-0.3c-0.3-0.1-0.7-0.1-1-0.1
	s-0.5,0-0.7,0.2C82,21.6,82,21.8,82,22s0.1,0.4,0.2,0.5c0.2,0.1,0.4,0.3,0.6,0.4l0.8,0.4c0.3,0.1,0.5,0.3,0.8,0.4
	c0.2,0.2,0.4,0.4,0.6,0.6c0.2,0.3,0.2,0.6,0.2,0.9s0,0.7-0.2,1c-0.1,0.3-0.3,0.5-0.5,0.7s-0.5,0.3-0.8,0.4s-0.7,0.1-1,0.1
	c-0.4,0-0.9,0-1.3-0.1c-0.3-0.1-0.6-0.2-0.8-0.3l0.4-1.2l0.3,0.1l0.4,0.1l0.5,0.1c0.2,0,0.3,0,0.5,0c0.3,0,0.7-0.1,0.9-0.2
	C83.7,25.8,83.8,25.6,83.8,25.3z"/>
<path class="st0" d="M86.1,20.3c0.3-0.1,0.6-0.1,0.9-0.1s0.7,0,1,0c0.4,0,0.7,0,1.1,0.1c0.3,0.1,0.7,0.2,0.9,0.3
	c0.3,0.2,0.5,0.4,0.7,0.7c0.3,0.7,0.3,1.6,0,2.3c-0.1,0.3-0.3,0.6-0.6,0.8c-0.3,0.2-0.5,0.3-0.9,0.4c-0.3,0.1-0.7,0.1-1,0.1h-0.6
	h-0.2v2.4H86L86.1,20.3L86.1,20.3z M88.1,21.3h-0.4h-0.3v2.3h0.1H88c0.2,0,0.4,0,0.5,0c0.2,0,0.3-0.1,0.5-0.2
	c0.1-0.1,0.3-0.2,0.3-0.4c0.1-0.2,0.1-0.4,0.1-0.6s0-0.4-0.1-0.5s-0.2-0.3-0.3-0.3c-0.1-0.1-0.3-0.2-0.4-0.2
	C88.4,21.3,88.3,21.3,88.1,21.3L88.1,21.3z"/>
<path class="st0" d="M94.5,25.7h-2.2l-0.5,1.5h-1.4l2.5-7h1l2.5,7H95L94.5,25.7z M92.7,24.6h1.5L93.6,23l-0.2-1.1h-0.1L93.2,23
	L92.7,24.6z"/>
<path class="st0" d="M97.1,20.3l0.5-0.1h0.5h0.5h0.5c0.3,0,0.7,0,1,0.1s0.6,0.2,0.8,0.3c0.2,0.1,0.5,0.4,0.6,0.6
	c0.2,0.3,0.2,0.7,0.2,1c0,0.5-0.1,1-0.4,1.4s-0.6,0.6-1.1,0.8l0.5,0.3l1.6,2.7h-1.6l-1.6-2.7l-0.7-0.1v2.9H97L97.1,20.3L97.1,20.3z
	 M99.2,21.3h-0.4c-0.1,0-0.2,0-0.3,0v2H99c0.3,0,0.6-0.1,0.9-0.3c0.2-0.2,0.4-0.5,0.3-0.9c0-0.3-0.1-0.5-0.3-0.7
	C99.7,21.3,99.4,21.3,99.2,21.3L99.2,21.3z"/>
<path class="st0" d="M103.1,20.2h4.2v1.2h-2.8V23h2.5v1.2h-2.5V26h2.8v1.2h-4.2V20.2z"/>
<path class="st0" d="M110,23.6l-0.6-1.1l0,0l0.2,1.1v3.6h-1.3v-7h1l2.7,3.7l0.5,1.1l0,0l-0.2-1.1v-3.7h1.3v7h-1L110,23.6z"/>
<path class="st0" d="M119.6,26.9c-0.2,0.2-0.5,0.3-0.8,0.3c-0.3,0.1-0.7,0.1-1,0.1c-0.4,0-0.8-0.1-1.2-0.2c-0.4-0.1-0.7-0.3-1-0.6
	c-0.3-0.3-0.5-0.7-0.7-1.1c-0.2-0.5-0.3-1.1-0.3-1.7s0.1-1.2,0.3-1.7c0.2-0.4,0.4-0.8,0.7-1.1c0.3-0.3,0.6-0.5,1-0.6
	s0.7-0.2,1.1-0.2c0.3,0,0.7,0,1,0.1c0.2,0,0.5,0.1,0.7,0.2l-0.3,1.2c-0.2-0.1-0.4-0.1-0.5-0.2c-0.3,0-0.5-0.1-0.8,0
	c-0.5,0-1,0.2-1.3,0.6c-0.4,0.5-0.6,1.2-0.5,1.8c0,0.3,0,0.7,0.1,1s0.2,0.5,0.4,0.8c0.2,0.2,0.4,0.4,0.6,0.5
	c0.3,0.1,0.5,0.2,0.8,0.2s0.5,0,0.8-0.1c0.2-0.1,0.4-0.1,0.5-0.2L119.6,26.9z"/>
<path class="st0" d="M120.6,20.2h1.4v7h-1.4V20.2z"/>
<path class="st0" d="M126.8,25.7h-2.2l-0.5,1.5h-1.4l2.5-7h1l2.5,7h-1.4L126.8,25.7z M125,24.6h1.5L126,23l-0.2-1.1l0,0l-0.3,1.1
	L125,24.6z"/>
<path class="st0" d="M9.9,13.5c0-0.6,0.4-1,1-1s1,0.4,1,1s-0.4,1-1,1S9.9,14.1,9.9,13.5z M11.4,22.9c-0.1,0.1-0.2,0.1-0.4,0
	c-0.1-0.1-0.2-0.2-0.1-0.3l0.7-4.6c0.1-0.7-0.2-1.4-0.8-1.9c-0.6-0.4-1.4-0.5-2-0.2l-1,0.5l0.7,1.4l1-0.5c0.1-0.1,0.2-0.1,0.4,0
	c0.1,0.1,0.2,0.2,0.1,0.3l-0.7,4.6c-0.2,1.1,0.6,2.1,1.6,2.2c0.1,0,0.2,0,0.3,0c0.3,0,0.6-0.1,0.9-0.2l1-0.5l-0.7-1.4L11.4,22.9z
	 M20.8,18.5c0,5.7-4.6,10.2-10.2,10.2l0,0c-5.7,0-10.2-4.6-10.2-10.2C0.4,12.8,5,8.3,10.6,8.3C16.2,8.2,20.8,12.8,20.8,18.5z
	 M19.2,18.5c0-4.8-3.9-8.6-8.6-8.6S2,13.8,2,18.5c0,4.8,3.9,8.6,8.6,8.6S19.2,23.3,19.2,18.5z"/>
</svg>
