<?xml version="1.0" encoding="utf-8"?>
<!-- Generator: Adobe Illustrator 21.1.0, SVG Export Plug-In . SVG Version: 6.00 Build 0)  -->
<svg version="1.1" id="Capa_1" xmlns="http://www.w3.org/2000/svg" xmlns:xlink="http://www.w3.org/1999/xlink" x="0px" y="0px"
	 width="170px" height="70px" viewBox="0 0 170 70" style="enable-background:new 0 0 170 70;" xml:space="preserve">
<style type="text/css">
	.st0{fill:#15ADFF;}
	.st1{fill:#FFFFFF;}
	.st2{fill:#414042;}
</style>
<g>
	<path class="st0" d="M48,7.8h4.7l7.6,18.7h-5.4L54,24h-7.2l-1,2.4h-5.4L48,7.8z M52.6,20.1l-2.3-5.8L48,20.1H52.6z"/>
	<path class="st0" d="M62,7.8h5.1v14.1h7.1v4.6H62V7.8z"/>
	<path class="st0" d="M85.3,7.5c5.7,0,10.3,4.3,10.3,9.7s-4.6,9.6-10.3,9.6c-5.7,0-10.3-4.3-10.3-9.6S79.6,7.5,85.3,7.5z M85.3,22.3
		c2.8,0,5.1-2.3,5.1-5.1c0-2.7-2.3-5.1-5.1-5.1s-5.1,2.4-5.1,5.1C80.2,20.1,82.5,22.3,85.3,22.3z M84.7,2.6h5.1L87,6.5h-3.6
		L84.7,2.6z"/>
	<path class="st1" d="M98.8,21.7c0.9,2.3,2.7,3.8,5.3,3.8c3.3,0,4.3-2.1,4.3-3.7c0-2.4-1.6-3.4-4.5-4.6c-2.8-1.2-4.8-2.3-4.8-5.2
		c0-2.6,2-4.4,4.8-4.4c2.2,0,3.8,0.9,4.8,2.7l-1.2,0.6c-0.8-1.4-1.9-2.1-3.6-2.1c-1.9,0-3.4,1.3-3.4,3.1c0,2.3,1.7,3,4.1,4.1
		c3.4,1.5,5.2,2.7,5.2,5.8c0,2.9-2,5-5.7,5c-2.9,0-5.3-1.5-6.5-4.5L98.8,21.7z"/>
	<path class="st1" d="M116.4,9.1H111V7.8h12.2v1.3h-5.4v17.4h-1.4C116.4,26.5,116.4,9.1,116.4,9.1z"/>
	<path class="st1" d="M133.9,7.5c2.3,0,4.4,0.7,6,2l-0.8,1c-1.4-1.1-3.1-1.7-5.1-1.7c-4.7,0-8.3,3.6-8.3,8.4s3.5,8.4,8.3,8.4
		c2.2,0,4.2-0.7,5.7-2.1v-5.7h-6.1v-1.3h7.5V24c-1.8,1.8-4.3,2.8-7,2.8c-5.4,0-9.6-4.1-9.6-9.7C124.3,11.6,128.5,7.5,133.9,7.5z"/>
	<path class="st1" d="M153.7,7.5c5.4,0,9.6,4.1,9.6,9.7c0,5.5-4.3,9.6-9.6,9.6c-5.4,0-9.6-4.1-9.6-9.6C144,11.6,148.3,7.5,153.7,7.5
		z M153.7,25.5c4.7,0,8.2-3.6,8.2-8.3s-3.6-8.4-8.2-8.4c-4.7,0-8.3,3.6-8.3,8.4C145.4,21.9,148.9,25.5,153.7,25.5z"/>
</g>
<g>
	<path class="st1" d="M42.7,39.2c-0.6-0.5-0.9-1.2-0.9-2.1c0-2.4,2-4.3,4.6-4.3c2.5,0,4.6,1.9,4.6,4.3c0,0.9-0.3,1.6-0.9,2.1
		c1.1,0.7,1.9,2,1.9,3.4c0,2.8-2.5,5-5.6,5s-5.5-2.3-5.5-5C40.8,41.2,41.6,39.9,42.7,39.2z M46.4,44.1c0.9,0,1.7-0.7,1.7-1.5
		S47.3,41,46.4,41s-1.7,0.7-1.7,1.6C44.7,43.4,45.5,44.1,46.4,44.1z M47.5,37.1c0-0.5-0.5-1-1.1-1s-1.1,0.4-1.1,1s0.5,1.1,1.1,1.1
		S47.5,37.7,47.5,37.1z"/>
	<path class="st1" d="M53.3,40.2c0-1.7,0-2.3,0.1-3c0.3-2.5,2.6-4.4,5.4-4.4c2.9,0,5.3,1.9,5.6,4.4c0.1,0.7,0.1,1.3,0.1,3
		s0,2.3-0.1,3c-0.3,2.5-2.7,4.4-5.6,4.4c-2.8,0-5.1-1.9-5.4-4.4C53.3,42.6,53.3,41.9,53.3,40.2z M58.8,44.3c0.9,0,1.7-0.6,1.8-1.5
		c0.1-0.5,0.1-1.2,0.1-2.6c0-1.4,0-2-0.1-2.4c-0.1-0.9-0.9-1.5-1.8-1.5c-1,0-1.7,0.6-1.8,1.5c0,0.5,0,1.1,0,2.4c0,1.4,0,2.1,0.1,2.6
		C57.1,43.7,57.9,44.3,58.8,44.3z"/>
	<path class="st1" d="M66,40.2c0-1.7,0-2.3,0.1-3c0.3-2.5,2.6-4.4,5.4-4.4c2.9,0,5.3,1.9,5.6,4.4c0.1,0.7,0.1,1.3,0.1,3s0,2.3-0.1,3
		c-0.3,2.5-2.7,4.4-5.6,4.4c-2.8,0-5.1-1.9-5.4-4.4C66,42.6,66,41.9,66,40.2z M71.5,44.3c0.9,0,1.7-0.6,1.8-1.5
		c0.1-0.5,0.1-1.2,0.1-2.6c0-1.4,0-2-0.1-2.4c-0.1-0.9-0.9-1.5-1.8-1.5c-1,0-1.7,0.6-1.8,1.5c-0.1,0.5-0.1,1.1-0.1,2.4
		c0,1.4,0,2.1,0.1,2.6C69.8,43.7,70.6,44.3,71.5,44.3z"/>
	<path class="st1" d="M85.2,44.9l6.3-5.8c0.4-0.4,0.8-0.8,0.8-1.6s-0.7-1.4-1.5-1.4c-0.9,0-1.7,0.8-1.7,1.9h-3.5
		c0-2.9,2.3-5.2,5.1-5.2c2.7,0,4.9,2.1,4.9,4.7c0,1.7-0.9,2.9-2,3.9L91,43.9h5v3.6H85.2V44.9z"/>
	<path class="st1" d="M97.3,40.2c0-1.7,0-2.3,0.1-3c0.3-2.5,2.6-4.4,5.4-4.4c2.9,0,5.3,1.9,5.6,4.4c0.1,0.7,0.1,1.3,0.1,3
		s0,2.3-0.1,3c-0.3,2.5-2.7,4.4-5.6,4.4c-2.8,0-5.1-1.9-5.4-4.4C97.3,42.6,97.3,41.9,97.3,40.2z M102.8,44.3c0.9,0,1.7-0.6,1.8-1.5
		c0.1-0.5,0.1-1.2,0.1-2.6c0-1.4,0-2-0.1-2.4c-0.1-0.9-0.9-1.5-1.8-1.5s-1.7,0.6-1.8,1.5c-0.1,0.5-0.1,1.1-0.1,2.4
		c0,1.4,0,2.1,0.1,2.6C101.1,43.7,101.8,44.3,102.8,44.3z"/>
	<path class="st1" d="M119.3,42.9c0.6,0.8,1.3,1.2,2.3,1.2c1.1,0,2-0.6,2-1.5c0-0.8-0.8-1.5-2.3-1.5c-0.5,0-1.1,0.1-1.5,0.2
		l-1.2-1.9l3.3-2.7h-4.4V33h9.4v2.8l-2.8,2.5l0,0c2,0.3,3.4,2.1,3.4,4.1c0,2.8-2.1,5.2-5.8,5.2c-2.4,0-4.4-1.1-5.4-2.7L119.3,42.9z"
		/>
	<path class="st1" d="M128.9,40.2c0-1.7,0-2.3,0.1-3c0.3-2.5,2.6-4.4,5.4-4.4c2.9,0,5.3,1.9,5.6,4.4c0.1,0.7,0.1,1.3,0.1,3
		s0,2.3-0.1,3c-0.3,2.5-2.7,4.4-5.6,4.4c-2.8,0-5.1-1.9-5.4-4.4C128.9,42.6,128.9,41.9,128.9,40.2z M134.5,44.3
		c0.9,0,1.7-0.6,1.8-1.5c0.1-0.5,0.1-1.2,0.1-2.6c0-1.4,0-2-0.1-2.4c-0.1-0.9-0.9-1.5-1.8-1.5c-0.9,0-1.7,0.6-1.8,1.5
		c-0.1,0.5-0.1,1.1-0.1,2.4c0,1.4,0,2.1,0.1,2.6C132.8,43.7,133.5,44.3,134.5,44.3z"/>
	<path class="st1" d="M150.9,36.6h-2.2V33h6.1v14.4h-3.9L150.9,36.6L150.9,36.6z"/>
	<path class="st1" d="M158.9,36.6h-2.2V33h6.1v14.4h-3.9L158.9,36.6L158.9,36.6z"/>
</g>
<g>
	<circle class="st1" cx="11.9" cy="8.1" r="3"/>
	<circle class="st1" cx="19.6" cy="8.1" r="3"/>
	<circle class="st1" cx="27.3" cy="8.1" r="3"/>
	<circle class="st1" cx="11.9" cy="15.7" r="3"/>
	<circle class="st1" cx="19.6" cy="15.7" r="3"/>
	<circle class="st1" cx="27.3" cy="15.7" r="3"/>
	<circle class="st1" cx="11.9" cy="23.4" r="3"/>
	<circle class="st1" cx="19.6" cy="23.4" r="3"/>
	<circle class="st1" cx="27.3" cy="23.4" r="3"/>
	<path class="st1" d="M30.4,43.5c0,1.7-1.4,3-3,3l0,0c-1.7,0-3-1.4-3-3V23.4c0-1.7,1.4-3,3-3l0,0c1.7,0,3,1.4,3,3V43.5z"/>
	<path class="st1" d="M24.4,44.1c0,1.7-1.4,3-3,3l0,0c-1.7,0-3-1.4-3-3v-7c0-1.7,1.4-3,3-3l0,0c1.7,0,3,1.4,3,3V44.1z"/>
	<path class="st1" d="M18.3,45.2c0,1.7-1.4,3-3,3l0,0c-1.7,0-3-1.4-3-3v-6c0-1.7,1.4-3,3-3l0,0c1.7,0,3,1.4,3,3V45.2z"/>
	<path class="st1" d="M12.3,45.5c0,1.7-1.4,3-3,3l0,0c-1.7,0-3-4-3-5.7v-1.3c0-1.7,1.4-3,3-3l0,0c1.7,0,3,1.4,3,3V45.5z"/>
	<polygon class="st1" points="34.9,42.7 6.3,42.7 7.5,63.2 32.9,63.2 	"/>
	<path class="st1" d="M37.7,35.5c0,0-2.7-1.4-4.4,1c-0.9,1.3-1.3,3.8-2.1,5c-1,1.5-1.5,0.9-1.5,0.9l-1.6,20.7l4.8,0.1L37.7,35.5z"/>
</g>
<g>
	<path class="st2" d="M13.4,54.6c1.9,0,3.4,1.4,3.4,3.3c0,1.8-1.5,3.3-3.4,3.3S10,59.8,10,57.9S11.5,54.6,13.4,54.6z M13.4,59.9
		c1.1,0,2-0.9,2-2s-0.9-2-2-2s-2,0.9-2,2S12.2,59.9,13.4,59.9z"/>
	<path class="st2" d="M17.9,54.7h1.4V61h-1.4V54.7z"/>
	<path class="st2" d="M20.8,54.7h2.6c1.2,0,2.1,0.9,2.1,2.1c0,0.8-0.5,1.5-1.1,1.8L26,61h-1.6l-1.3-2.1l0,0h-0.9V61h-1.4L20.8,54.7
		L20.8,54.7z M23.3,57.7c0.5,0,0.9-0.3,0.9-0.9c0-0.5-0.3-0.8-0.8-0.8h-1.2v1.7H23.3z"/>
	<path class="st2" d="M27.5,59c0.3,0.5,0.9,0.8,1.6,0.8s0.9-0.3,0.9-0.6c0-0.6-0.7-0.7-1.6-1s-1.5-0.8-1.5-1.8c0-1.1,1-1.8,2.1-1.8
		s1.7,0.5,2.1,1l-0.9,0.7c-0.2-0.3-0.6-0.5-1.1-0.5s-0.8,0.2-0.8,0.5c0,0.5,0.5,0.5,1.5,0.9c1.1,0.4,1.6,1,1.6,1.9
		c0,1.1-0.7,1.9-2.3,1.9c-1.4,0-2.2-0.6-2.6-1.4L27.5,59z"/>
</g>
<g>
	<path class="st1" d="M41.6,54h0.6l3.7,6.4l3.7-6.4h0.6v9.2h-0.7v-7.8l-3.6,6.3l-3.6-6.3v7.8h-0.7V54L41.6,54z"/>
	<path class="st1" d="M56.9,53.8c2.6,0,4.8,2,4.8,4.8c0,2.7-2.1,4.8-4.8,4.8s-4.8-2-4.8-4.8C52.1,55.8,54.3,53.8,56.9,53.8z
		 M56.9,62.7c2.3,0,4.1-1.8,4.1-4.1s-1.8-4.1-4.1-4.1s-4.1,1.8-4.1,4.1C52.8,60.9,54.6,62.7,56.9,62.7z M57.3,51.4h0.9L57,53.3h-0.5
		L57.3,51.4z"/>
	<path class="st1" d="M62.4,54h0.7l3.2,8.1l3.2-8.1h0.7l-3.7,9.2H66L62.4,54z"/>
	<path class="st1" d="M72.1,54h0.7v9.2h-0.7V54z"/>
	<path class="st1" d="M75.4,54h0.7v8.6h4v0.6h-4.7V54z"/>
	<path class="st1" d="M81.3,58c0-0.3,0.2-0.5,0.5-0.5c0.2,0,0.5,0.2,0.5,0.5s-0.2,0.5-0.5,0.5S81.3,58.3,81.3,58z M81.3,61.7
		c0-0.3,0.2-0.5,0.5-0.5c0.2,0,0.5,0.2,0.5,0.5s-0.2,0.5-0.5,0.5S81.3,62,81.3,61.7z"/>
	<path class="st0" d="M88.3,61.9l4.1-4c0.3-0.3,0.5-0.7,0.5-1.1c0-0.6-0.5-1.1-1.2-1.1s-1.2,0.6-1.2,1.3h-1.8c0-1.7,1.4-3.1,3.1-3.1
		s3,1.3,3,2.9c0,0.9-0.4,1.7-1.2,2.4l-2.3,2.3h3.6v1.9h-6.6V61.9L88.3,61.9z"/>
	<path class="st0" d="M95.4,61.9l4.1-4c0.3-0.3,0.5-0.7,0.5-1.1c0-0.6-0.5-1.1-1.2-1.1s-1.2,0.6-1.2,1.3h-1.8c0-1.7,1.4-3.1,3.1-3.1
		s3,1.3,3,2.9c0,0.9-0.4,1.7-1.2,2.4l-2.3,2.3h3.6v1.9h-6.6V61.9L95.4,61.9z"/>
	<path class="st0" d="M112.2,55.8h-4.4V54h6.5v1.6l-3.8,7.6h-2.1L112.2,55.8z"/>
	<path class="st0" d="M116.4,55.8H115V54h3.4v9.2h-2V55.8z"/>
	<path class="st0" d="M121,60.5c0.4,0.6,1,1,1.8,1c0.9,0,1.6-0.5,1.6-1.3c0-0.7-0.7-1.3-1.8-1.3c-0.3,0-0.7,0-1,0.1l-0.6-1.1
		l2.4-2.1h-3.2V54h5.9v1.5l-2.1,1.9l0,0c1.4,0.1,2.5,1.3,2.5,2.7c0,1.8-1.4,3.2-3.6,3.2c-1.6,0-2.8-0.7-3.5-1.8L121,60.5z"/>
	<path class="st0" d="M133.5,56.8l1.8-2.8h2.2l-1.9,2.8c0.1,0,0.2,0,0.4,0c1.3,0,3.1,1.1,3.1,3.2c0,1.9-1.6,3.3-3.5,3.3
		s-3.5-1.5-3.5-3.3C132.1,58.9,132.7,58,133.5,56.8z M135.6,61.4c0.8,0,1.5-0.7,1.5-1.5s-0.7-1.4-1.5-1.4s-1.4,0.6-1.4,1.4
		C134.2,60.8,134.8,61.4,135.6,61.4z"/>
	<path class="st0" d="M139.9,58.6c0-1.1,0-1.5,0-1.9c0.2-1.6,1.6-2.8,3.4-2.8c1.8,0,3.2,1.2,3.4,2.8c0,0.4,0,0.8,0,1.9s0,1.5,0,1.9
		c-0.2,1.6-1.6,2.8-3.4,2.8c-1.8,0-3.2-1.2-3.4-2.8C139.9,60.1,139.9,59.7,139.9,58.6z M143.4,61.5c0.7,0,1.3-0.5,1.4-1.2
		c0-0.3,0-0.8,0-1.7s0-1.3,0-1.6c-0.1-0.7-0.7-1.3-1.4-1.3s-1.3,0.5-1.4,1.3c0,0.3,0,0.7,0,1.6c0,0.9,0,1.4,0,1.7
		C142.1,61,142.7,61.5,143.4,61.5z"/>
	<path class="st0" d="M147.9,58.6c0-1.1,0-1.5,0-1.9c0.2-1.6,1.6-2.8,3.4-2.8c1.8,0,3.2,1.2,3.4,2.8c0,0.4,0,0.8,0,1.9s0,1.5,0,1.9
		c-0.2,1.6-1.6,2.8-3.4,2.8c-1.8,0-3.2-1.2-3.4-2.8C147.9,60.1,147.9,59.7,147.9,58.6z M151.4,61.5c0.7,0,1.3-0.5,1.4-1.2
		c0-0.3,0-0.8,0-1.7s0-1.3,0-1.6c-0.1-0.7-0.7-1.3-1.4-1.3s-1.3,0.5-1.4,1.3c0,0.3,0,0.7,0,1.6c0,0.9,0,1.4,0,1.7
		C150,61,150.6,61.5,151.4,61.5z"/>
	<path class="st0" d="M155.8,58.6c0-1.1,0-1.5,0-1.9c0.2-1.6,1.6-2.8,3.4-2.8c1.8,0,3.2,1.2,3.4,2.8c0,0.4,0,0.8,0,1.9s0,1.5,0,1.9
		c-0.2,1.6-1.6,2.8-3.4,2.8c-1.8,0-3.2-1.2-3.4-2.8C155.8,60.1,155.8,59.7,155.8,58.6z M159.3,61.5c0.7,0,1.3-0.5,1.4-1.2
		c0-0.3,0-0.8,0-1.7s0-1.3,0-1.6c-0.1-0.7-0.7-1.3-1.4-1.3s-1.3,0.5-1.4,1.3c0,0.3,0,0.7,0,1.6c0,0.9,0,1.4,0,1.7
		C158,61,158.6,61.5,159.3,61.5z"/>
</g>
</svg>
