<?xml version="1.0" encoding="utf-8"?>
<!-- Generator: Adobe Illustrator 24.3.0, SVG Export Plug-In . SVG Version: 6.00 Build 0)  -->
<svg version="1.1" id="Layer_1" xmlns="http://www.w3.org/2000/svg" xmlns:xlink="http://www.w3.org/1999/xlink" x="0px" y="0px"
	 width="150px" height="35px" viewBox="0 0 150 35" style="enable-background:new 0 0 150 35;" xml:space="preserve">
<style type="text/css">
	.st0{fill:#FFFFFF;}
	.st1{fill:#EF4625;}
</style>
<path class="st0" d="M34.7,10.1h0.4h0.5h1c0.5,0,1,0.1,1.5,0.3c0.4,0.1,0.7,0.3,1,0.6s0.5,0.7,0.6,1.1c0.1,0.5,0.2,0.9,0.2,1.4
	s-0.1,1-0.2,1.5c-0.1,0.4-0.3,0.8-0.6,1.1s-0.6,0.6-1,0.8c-0.5,0.2-1,0.3-1.5,0.3H36h-0.5H35c-0.1,0-0.2,0-0.3,0V10.1z M36.6,10.8
	H36h-0.3h-0.2v5.6h0.2h0.8c0.4,0,0.8-0.1,1.2-0.2c0.3-0.1,0.6-0.4,0.8-0.6c0.2-0.3,0.3-0.6,0.4-0.9C39,14.3,39,14,39,13.6
	c0-0.3,0-0.7-0.1-1s-0.2-0.6-0.4-0.9c-0.2-0.3-0.4-0.5-0.7-0.6C37.4,10.8,37,10.7,36.6,10.8z"/>
<path class="st0" d="M41.2,10.1H45v0.7h-3v2.3h2.7v0.7H42v2.5h3V17h-3.8V10.1z"/>
<path class="st0" d="M51,16.8c-0.2,0.2-0.5,0.3-0.8,0.3c-0.3,0.1-0.7,0.1-1,0.1c-0.4,0-0.8-0.1-1.1-0.2c-0.4-0.1-0.7-0.4-1-0.7
	c-0.3-0.3-0.5-0.7-0.7-1.1c-0.2-0.5-0.3-1.1-0.2-1.6c0-0.5,0.1-1.1,0.3-1.6c0.2-0.4,0.4-0.8,0.7-1.1s0.6-0.5,1-0.6s0.7-0.2,1.1-0.2
	c0.3,0,0.7,0,1,0.1c0.2,0,0.4,0.1,0.7,0.2L50.8,11c-0.4-0.2-0.9-0.3-1.4-0.2c-0.3,0-0.6,0.1-0.8,0.1c-0.3,0.1-0.5,0.3-0.7,0.5
	c-0.2,0.3-0.4,0.6-0.5,0.9c-0.1,0.4-0.2,0.9-0.2,1.4c0,0.4,0.1,0.9,0.2,1.3c0.1,0.3,0.3,0.6,0.5,0.9c0.2,0.2,0.5,0.4,0.7,0.5
	c0.3,0.1,0.6,0.2,0.9,0.2c0.3,0,0.5,0,0.8-0.1c0.2,0,0.4-0.1,0.6-0.2L51,16.8z"/>
<path class="st0" d="M56.4,17.1h-4.1v-7h0.8v6.3h3.3V17.1z"/>
<path class="st0" d="M60.8,15.2h-2.6l-0.7,1.9h-0.8l2.7-7.1h0.4l2.7,7.1h-0.9L60.8,15.2z M58.5,14.5h2l-0.8-2.1l-0.2-1.1l0,0
	l-0.2,1.1L58.5,14.5z"/>
<path class="st0" d="M63.3,10.2c0.3,0,0.5-0.1,0.9-0.1c0.3,0,0.6,0,0.9,0s0.6,0,0.9,0.1s0.5,0.2,0.7,0.3c0.2,0.2,0.4,0.4,0.5,0.6
	c0.1,0.3,0.2,0.6,0.2,0.9c0,0.5-0.1,0.9-0.4,1.3c-0.3,0.3-0.7,0.6-1.1,0.7l0.5,0.4l1.7,2.8h-1l-1.9-3l-1-0.1v3.2h-0.8L63.3,10.2z
	 M65.2,10.8h-0.5h-0.2h-0.2v2.6H65c0.4,0,0.8-0.1,1.1-0.3c0.3-0.3,0.4-0.6,0.4-1c0-0.3-0.1-0.7-0.4-0.9
	C65.9,10.9,65.5,10.7,65.2,10.8z"/>
<path class="st0" d="M72.4,15.2h-2.6l-0.7,1.9h-0.8l2.6-7.1h0.4l2.7,7.1h-0.9L72.4,15.2z M70.1,14.5h2.1l-0.8-2.1l-0.2-1.1l0,0
	L71,12.4L70.1,14.5z"/>
<path class="st0" d="M79.1,16.8c-0.2,0.2-0.5,0.3-0.8,0.3c-0.3,0.1-0.7,0.1-1,0.1c-0.4,0-0.8-0.1-1.2-0.2c-0.4-0.1-0.7-0.4-1-0.7
	c-0.3-0.3-0.5-0.7-0.7-1.1c-0.2-0.5-0.3-1.1-0.2-1.6c0-0.5,0.1-1.1,0.3-1.6c0.2-0.4,0.4-0.8,0.7-1.1c0.3-0.3,0.6-0.5,1-0.6
	s0.7-0.2,1.1-0.2c0.3,0,0.7,0,1,0.1c0.2,0,0.4,0.1,0.7,0.2L78.9,11c-0.4-0.2-0.9-0.3-1.4-0.2c-0.3,0-0.6,0.1-0.8,0.1
	c-0.3,0.1-0.5,0.3-0.7,0.5c-0.2,0.3-0.4,0.6-0.5,0.9c-0.1,0.4-0.2,0.9-0.2,1.4c0,0.4,0.1,0.9,0.2,1.3c0.1,0.3,0.3,0.6,0.5,0.9
	c0.2,0.2,0.5,0.4,0.7,0.5c0.3,0.1,0.6,0.2,0.9,0.2s0.5,0,0.8-0.1c0.2,0,0.4-0.1,0.6-0.2L79.1,16.8z"/>
<path class="st0" d="M80.5,10.1h0.8v7h-0.8V10.1z"/>
<path class="st0" d="M83,13.6c-0.1-0.9,0.2-1.9,0.7-2.6c0.5-0.7,1.3-1,2.1-1c0.4,0,0.9,0.1,1.3,0.3s0.7,0.4,0.9,0.7
	c0.3,0.3,0.4,0.7,0.5,1.1c0.1,0.5,0.2,1,0.2,1.5c0.1,1-0.2,1.9-0.7,2.7c-0.5,0.6-1.3,1-2.1,0.9c-0.5,0-0.9-0.1-1.3-0.2
	c-0.4-0.2-0.7-0.4-0.9-0.7c-0.2-0.3-0.4-0.7-0.5-1.1C83,14.6,83,14.1,83,13.6z M83.9,13.6c0,0.4,0,0.7,0.1,1.1
	c0.1,0.3,0.2,0.6,0.3,0.9c0.2,0.3,0.4,0.5,0.6,0.6c0.3,0.2,0.6,0.2,0.9,0.2c0.6,0,1.1-0.2,1.5-0.7c0.4-0.7,0.6-1.4,0.5-2.2
	c0-0.4,0-0.7-0.1-1.1c-0.1-0.3-0.2-0.6-0.4-0.9c-0.2-0.3-0.4-0.5-0.6-0.6c-0.3-0.2-0.6-0.2-0.9-0.2c-0.6,0-1.1,0.2-1.4,0.7
	C84,12.1,83.8,12.9,83.9,13.6L83.9,13.6z"/>
<path class="st0" d="M91.4,12.6l-0.5-1l0,0l0.1,1v4.6h-0.8V10h0.4l3.3,4.7l0.5,1l0,0l-0.1-1v-4.5h0.8v7.1h-0.4L91.4,12.6z"/>
<path class="st0" d="M96.8,10.1h3.8v0.7h-3v2.3h2.7v0.7h-2.7v2.5h3V17h-3.8V10.1z"/>
<path class="st0" d="M105.3,15.4c0-0.3-0.1-0.5-0.2-0.7c-0.2-0.2-0.4-0.3-0.6-0.5c-0.3-0.1-0.5-0.3-0.8-0.4
	c-0.3-0.1-0.6-0.3-0.8-0.4c-0.2-0.2-0.5-0.4-0.6-0.6c-0.2-0.3-0.3-0.6-0.2-1c0-0.5,0.2-1,0.6-1.3c0.5-0.3,1-0.5,1.6-0.5
	c0.4,0,0.7,0,1.1,0.1c0.3,0,0.5,0.1,0.8,0.2L106,11c-0.2-0.1-0.4-0.2-0.7-0.2c-0.3-0.1-0.7-0.1-1-0.1c-0.4,0-0.7,0.1-1,0.3
	c-0.2,0.2-0.3,0.4-0.3,0.7c0,0.2,0.1,0.5,0.2,0.6c0.2,0.2,0.4,0.3,0.6,0.5c0.2,0.1,0.5,0.3,0.8,0.4c0.3,0.1,0.6,0.3,0.8,0.5
	c0.2,0.2,0.5,0.4,0.6,0.6c0.2,0.3,0.3,0.6,0.2,0.9c0,0.3,0,0.6-0.2,0.8c-0.1,0.2-0.3,0.5-0.5,0.6c-0.2,0.2-0.5,0.3-0.8,0.4
	s-0.7,0.1-1,0.1c-0.4,0-0.8,0-1.2-0.1c-0.3-0.1-0.5-0.1-0.8-0.3L102,16c0.2,0.1,0.4,0.2,0.7,0.2c0.3,0.1,0.7,0.1,1,0.1
	c0.2,0,0.4,0,0.6-0.1c0.2,0,0.3-0.1,0.5-0.2c0.1-0.1,0.3-0.2,0.3-0.4C105.3,15.7,105.3,15.5,105.3,15.4z"/>
<path class="st0" d="M110.2,10.1h0.4h0.5h1c0.5,0,1,0.1,1.5,0.3c0.4,0.2,0.7,0.4,1,0.7s0.5,0.7,0.6,1.1c0.1,0.5,0.2,0.9,0.2,1.4
	s-0.1,0.9-0.2,1.4c-0.1,0.4-0.3,0.8-0.6,1.2c-0.3,0.3-0.6,0.6-1,0.8c-0.5,0.2-1,0.3-1.6,0.3h-0.4h-0.5h-0.5c-0.1,0-0.2,0-0.3,0
	L110.2,10.1z M112.1,10.8h-0.6h-0.3H111v5.6h0.2h0.8c0.4,0,0.8-0.1,1.2-0.2c0.3-0.1,0.6-0.4,0.8-0.6c0.2-0.3,0.3-0.6,0.4-0.9
	c0.1-0.4,0.1-0.7,0.1-1.1c0-0.3,0-0.7-0.1-1s-0.2-0.6-0.4-0.9c-0.2-0.3-0.4-0.5-0.7-0.6C112.9,10.8,112.5,10.7,112.1,10.8z"/>
<path class="st0" d="M116.7,10.1h3.8v0.7h-3v2.3h2.7v0.7h-2.7v2.5h3V17h-3.9L116.7,10.1z"/>
<path class="st0" d="M34.6,20.2H36v7h-1.4V20.2z"/>
<path class="st0" d="M39,23.6l-0.5-1.1l0,0l0.2,1.1v3.6h-1.3v-7h1l2.6,3.7l0.5,1.1h0.1l-0.2-1.1v-3.7h1.3v7h-1L39,23.6z"/>
<path class="st0" d="M48.8,21.4h-2v5.8h-1.4v-5.8h-2v-1.2h5.4V21.4z"/>
<path class="st0" d="M49.5,20.2h4.2v1.2h-2.8V23h2.5v1.2h-2.5V26h2.8v1.2h-4.2V20.2z"/>
<path class="st0" d="M54.7,20.3l0.5-0.1h0.5h0.5h0.5c0.3,0,0.7,0,1,0.1s0.6,0.2,0.8,0.3c0.2,0.1,0.5,0.4,0.6,0.6
	c0.2,0.3,0.2,0.7,0.2,1c0,0.5-0.1,1-0.4,1.4c-0.3,0.4-0.6,0.6-1.1,0.8l0.5,0.3l1.6,2.6h-1.6l-1.6-2.7L56,24.5v2.9h-1.4v-7.1H54.7z
	 M56.8,21.3h-0.4c-0.1,0-0.2,0-0.3,0v2h0.6c0.3,0,0.6-0.1,0.9-0.3c0.2-0.2,0.4-0.5,0.3-0.9c0-0.3-0.1-0.5-0.3-0.7
	C57.4,21.3,57.1,21.3,56.8,21.3L56.8,21.3z"/>
<path class="st0" d="M60.8,20.2H65v1.2h-2.8V23h2.5v1.2h-2.5V26H65v1.2h-4.2V20.2z"/>
<path class="st0" d="M69,25.3c0-0.2-0.1-0.4-0.2-0.5c-0.2-0.2-0.4-0.3-0.6-0.4l-0.8-0.3c-0.3-0.1-0.5-0.3-0.8-0.4
	c-0.3-0.2-0.5-0.4-0.6-0.7c-0.2-0.3-0.3-0.7-0.2-1c0-0.3,0.1-0.6,0.2-0.9c0.1-0.2,0.3-0.5,0.5-0.6c0.2-0.2,0.5-0.3,0.7-0.4
	c0.3-0.1,0.7-0.1,1-0.1c0.4,0,0.8,0,1.2,0.1c0.3,0.1,0.6,0.2,0.9,0.3l-0.4,1.1c-0.2-0.1-0.4-0.2-0.7-0.3c-0.3-0.1-0.7-0.1-1-0.1
	s-0.5,0-0.7,0.2c-0.2,0.1-0.3,0.3-0.3,0.5s0.1,0.4,0.2,0.5c0.2,0.1,0.4,0.3,0.6,0.4l0.8,0.4c0.3,0.1,0.5,0.3,0.8,0.4
	c0.2,0.2,0.4,0.4,0.6,0.6c0.2,0.3,0.2,0.6,0.2,0.9s0,0.7-0.2,1c-0.1,0.3-0.3,0.5-0.5,0.7s-0.5,0.3-0.8,0.4s-0.7,0.1-1,0.1
	c-0.4,0-0.9,0-1.3-0.1c-0.3-0.1-0.6-0.2-0.8-0.3l0.4-1.2l0.3,0.1l0.4,0.1l0.5,0.1c0.2,0,0.3,0,0.5,0c0.3,0,0.7-0.1,0.9-0.2
	C68.9,25.8,69,25.6,69,25.3z"/>
<path class="st0" d="M71.3,20.2h4.2v1.2h-2.8V23h2.5v1.2h-2.5V26h2.8v1.2h-4.2V20.2z"/>
<path class="st0" d="M79.5,25.3c0-0.2-0.1-0.4-0.2-0.5c-0.2-0.2-0.4-0.3-0.6-0.4l-0.8-0.3c-0.3-0.1-0.5-0.3-0.8-0.4
	c-0.2-0.2-0.4-0.4-0.6-0.6c-0.2-0.3-0.3-0.7-0.2-1c0-0.3,0.1-0.6,0.2-0.9c0.1-0.2,0.3-0.5,0.5-0.6c0.2-0.2,0.5-0.3,0.7-0.4
	c0.3-0.1,0.7-0.1,1-0.1c0.4,0,0.8,0,1.2,0.1c0.3,0.1,0.6,0.2,0.9,0.3l-0.4,1.1c-0.2-0.1-0.4-0.2-0.7-0.3c-0.3-0.1-0.6-0.1-0.9-0.1
	s-0.5,0-0.7,0.2c-0.2,0.1-0.3,0.3-0.3,0.5s0.1,0.4,0.2,0.5c0.2,0.1,0.4,0.3,0.6,0.4l0.8,0.4c0.3,0.1,0.5,0.3,0.8,0.4
	c0.2,0.2,0.4,0.4,0.6,0.6c0.2,0.3,0.2,0.6,0.2,0.9s0,0.7-0.2,1c-0.1,0.3-0.3,0.5-0.5,0.7s-0.5,0.3-0.8,0.4s-0.7,0.1-1.1,0.1
	c-0.5,0-0.9,0-1.4-0.1c-0.3-0.1-0.6-0.2-0.8-0.3l0.4-1.2l0.3,0.1l0.4,0.1l0.5,0.1c0.2,0,0.3,0,0.5,0c0.3,0,0.7-0.1,0.9-0.2
	C79.4,25.8,79.5,25.6,79.5,25.3z"/>
<path class="st0" d="M85.7,24.6l-2.3-4.4H85l1.3,2.6l0.1,0.7l0,0l0.2-0.8l1.2-2.6h1.5l-2.2,4.4v2.6h-1.4V24.6z"/>
<path class="st0" d="M92.2,20.3c0.3-0.1,0.6-0.1,0.9-0.1s0.7,0,1,0c0.4,0,0.7,0,1.1,0.1c0.3,0.1,0.7,0.2,0.9,0.3
	c0.3,0.2,0.5,0.4,0.7,0.7c0.3,0.7,0.3,1.6,0,2.3c-0.1,0.3-0.3,0.6-0.6,0.8c-0.3,0.2-0.5,0.3-0.9,0.4c-0.3,0.1-0.7,0.1-1,0.1h-0.6
	h-0.2v2.4h-1.4L92.2,20.3L92.2,20.3z M94.2,21.3h-0.4h-0.3v2.3h0.1h0.5c0.2,0,0.4,0,0.5,0c0.2,0,0.3-0.1,0.5-0.2
	c0.1-0.1,0.3-0.2,0.3-0.4c0.1-0.2,0.1-0.4,0.1-0.6s0-0.4-0.1-0.5s-0.2-0.3-0.3-0.3c-0.1-0.1-0.3-0.2-0.4-0.2
	C94.6,21.3,94.4,21.3,94.2,21.3L94.2,21.3z"/>
<path class="st0" d="M100.6,25.7h-2.2l-0.5,1.5h-1.4l2.5-7h1l2.5,7h-1.4L100.6,25.7z M98.8,24.6h1.5L99.8,23l-0.2-1.1l0,0L99.3,23
	L98.8,24.6z"/>
<path class="st0" d="M107.4,21.4h-2v5.8H104v-5.8h-2v-1.2h5.5L107.4,21.4z"/>
<path class="st0" d="M108.1,20.3l0.5-0.1h0.5h0.5h0.5c0.3,0,0.7,0,1,0.1s0.6,0.2,0.8,0.3c0.2,0.1,0.5,0.4,0.6,0.6
	c0.2,0.3,0.2,0.7,0.2,1c0,0.5-0.1,1-0.4,1.4s-0.6,0.6-1.1,0.8l0.5,0.3l1.6,2.7h-1.6l-1.6-2.7l-0.7-0.1v2.9H108L108.1,20.3
	L108.1,20.3z M110.2,21.3h-0.4c-0.1,0-0.2,0-0.3,0v2h0.6c0.3,0,0.6-0.1,0.9-0.3c0.2-0.2,0.4-0.5,0.3-0.9c0-0.3-0.1-0.5-0.3-0.7
	C110.8,21.3,110.5,21.3,110.2,21.3L110.2,21.3z"/>
<path class="st0" d="M114.3,20.2h1.4v7h-1.4V20.2z"/>
<path class="st0" d="M122.4,23.6l0.2-1.4h-0.1l-0.4,1.1l-1.5,2.6h-0.4l-1.6-2.6l-0.4-1.1h-0.1l0.2,1.4v3.6H117v-7h1.2l1.9,3.2
	l0.3,0.8l0,0l0.3-0.8l1.8-3.2h1.2v7h-1.4L122.4,23.6L122.4,23.6z"/>
<path class="st0" d="M124.8,23.7c-0.1-1,0.2-1.9,0.8-2.7c0.5-0.6,1.4-1,2.2-0.9c0.5,0,0.9,0.1,1.3,0.3c0.4,0.2,0.7,0.4,0.9,0.7
	c0.3,0.3,0.4,0.7,0.6,1.1c0.1,0.5,0.2,1,0.2,1.5c0.1,1-0.2,1.9-0.8,2.7c-0.5,0.7-1.3,1-2.2,1c-0.5,0-0.9-0.1-1.3-0.3
	c-0.4-0.2-0.7-0.4-0.9-0.7c-0.3-0.3-0.4-0.7-0.6-1.1C124.8,24.7,124.7,24.2,124.8,23.7z M126.2,23.7c0,0.3,0,0.7,0.1,1
	c0,0.3,0.1,0.5,0.3,0.8c0.1,0.2,0.3,0.4,0.5,0.5s0.4,0.2,0.7,0.2c0.5,0,0.9-0.2,1.1-0.6c0.3-0.6,0.5-1.2,0.4-1.9c0-0.3,0-0.6-0.1-1
	c-0.1-0.3-0.1-0.5-0.3-0.8c-0.1-0.2-0.3-0.4-0.5-0.5s-0.5-0.2-0.7-0.2c-0.5,0-0.9,0.2-1.1,0.6C126.3,22.5,126.2,23.1,126.2,23.7z"/>
<path class="st0" d="M133.4,23.6l-0.6-1.1h-0.1l0.2,1.1v3.6h-1.3v-7h1l2.6,3.7l0.5,1.1h0.1l-0.2-1.1v-3.7h1.3v7h-1L133.4,23.6z"/>
<path class="st0" d="M138.4,20.2h1.4v7h-1.4V20.2z"/>
<path class="st0" d="M140.9,23.7c-0.1-1,0.2-1.9,0.8-2.7c0.5-0.6,1.4-1,2.2-0.9c0.5,0,0.9,0.1,1.3,0.3c0.4,0.2,0.7,0.4,0.9,0.7
	c0.3,0.3,0.4,0.7,0.6,1.1c0.1,0.5,0.2,1,0.2,1.5c0.1,1-0.2,1.9-0.8,2.7c-0.5,0.7-1.3,1-2.2,1c-0.5,0-0.9-0.1-1.3-0.3
	c-0.4-0.2-0.7-0.4-0.9-0.7c-0.3-0.3-0.4-0.7-0.6-1.1C140.9,24.7,140.8,24.2,140.9,23.7z M142.3,23.7c0,0.3,0,0.7,0.1,1
	s0.1,0.5,0.3,0.8c0.1,0.2,0.3,0.4,0.5,0.5s0.4,0.2,0.7,0.2c0.5,0,0.9-0.2,1.1-0.6c0.3-0.6,0.5-1.2,0.4-1.9c0-0.3,0-0.6-0.1-1
	c-0.1-0.3-0.2-0.5-0.3-0.8c-0.1-0.2-0.3-0.4-0.5-0.5s-0.5-0.2-0.7-0.2c-0.5,0-0.9,0.2-1.1,0.6C142.4,22.4,142.3,23.1,142.3,23.7z"/>
<path class="st0" d="M1.9,12c0.3,0,0.5-0.1,0.8-0.1s0.6,0,1-0.1h1h0.8c1,0,1.9,0.1,2.8,0.5c0.7,0.3,1.4,0.7,1.9,1.3s0.9,1.3,1.1,2
	c0.2,0.8,0.3,1.7,0.3,2.5s-0.1,1.6-0.3,2.4s-0.6,1.5-1.1,2.1c-0.6,0.6-1.3,1.1-2,1.4c-0.9,0.4-2,0.6-3,0.5H4.5h-1l-1-0.1
	c-0.2,0-0.5,0-0.7-0.1L1.9,12z M5.7,14H4.9c-0.2,0-0.4,0-0.6,0.1v8.3c0.1,0,0.2,0,0.2,0h0.4h0.4h0.3c0.6,0,1.2-0.1,1.7-0.4
	c0.4-0.2,0.8-0.6,1.1-1s0.5-0.9,0.6-1.4c0-0.5,0-1,0-1.5s0-1-0.1-1.5s-0.3-0.9-0.5-1.3c-0.2-0.4-0.6-0.8-1-1C6.8,14.1,6.3,14,5.7,14
	z"/>
<path class="st0" d="M14.3,12h2.4v12.4h-2.4C14.3,24.4,14.3,12,14.3,12z"/>
<path class="st0" d="M19.3,12.1c0.5-0.1,1-0.2,1.6-0.2s1.2-0.1,1.8-0.1c0.6,0,1.2,0.1,1.8,0.1c0.6,0.1,1.2,0.3,1.7,0.6
	s0.9,0.7,1.2,1.2c0.3,0.6,0.5,1.4,0.5,2.1s-0.1,1.4-0.4,2c-0.3,0.5-0.6,1-1.1,1.3s-1,0.6-1.5,0.7C24.3,20,23.7,20,23.1,20h-0.7H22
	h-0.3v4.2h-2.4C19.3,24.2,19.3,12.1,19.3,12.1z M22.9,13.9c-0.2,0-0.5,0-0.7,0s-0.3,0-0.5,0.1v4H22h0.3h0.5c0.3,0,0.6,0,0.9-0.1
	s0.6-0.2,0.8-0.3c0.3-0.2,0.5-0.4,0.6-0.7c0.2-0.3,0.2-0.7,0.2-1.1c0-0.3-0.1-0.7-0.2-1c-0.1-0.2-0.3-0.4-0.5-0.6
	c-0.2-0.2-0.5-0.3-0.8-0.3C23.5,13.9,23.2,13.9,22.9,13.9z"/>
<circle class="st1" cx="30.7" cy="22.6" r="1.9"/>
</svg>
