<?xml version="1.0" encoding="UTF-8"?>
<svg id="Capa_1" xmlns="http://www.w3.org/2000/svg" width="200.1" height="200.1" version="1.1" viewBox="0 0 200.1 200.1">
  <!-- Generator: Adobe Illustrator 29.5.1, SVG Export Plug-In . SVG Version: 2.1.0 Build 141)  -->
  <defs>
    <style>
      .st0 {
        fill: #333;
      }

      .st1 {
        fill: #ffc100;
      }
    </style>
  </defs>
  <rect class="st1" x="-20" y="-22" width="244.4" height="244.4"/>
  <g>
    <path class="st0" d="M25.3,122.9v-16.3h4.3v16.3h-4.3ZM34.2,122.9l-6-7.8v-.8l6.3-7.8h5.4l-6.9,8.6v-.8l6.8,8.6h-5.6Z"/>
    <path class="st0" d="M44.7,122.9h-4.3v-16.3h4.3v16.3Z"/>
    <path class="st0" d="M46.1,114.8c0-1.2.2-2.4.6-3.4.4-1,1-1.9,1.7-2.7.7-.8,1.6-1.3,2.6-1.8s2.2-.6,3.4-.6,2.4.2,3.4.6c1,.4,1.9,1,2.7,1.8s1.3,1.7,1.7,2.7.6,2.2.6,3.4-.2,2.4-.6,3.4-1,1.9-1.7,2.7c-.7.8-1.6,1.3-2.7,1.8-1,.4-2.2.6-3.4.6s-2.4-.2-3.4-.6c-1-.4-1.9-1-2.6-1.8-.7-.8-1.3-1.7-1.7-2.7-.4-1-.6-2.2-.6-3.4ZM50.5,114.8c0,.9.2,1.7.5,2.3.3.6.8,1.1,1.4,1.4.6.3,1.3.5,2,.5s1.5-.2,2.1-.5c.6-.3,1.1-.8,1.4-1.4s.5-1.4.5-2.3-.2-1.7-.5-2.3-.8-1.1-1.4-1.4c-.6-.3-1.3-.5-2.1-.5s-1.4.2-2,.5c-.6.3-1.1.8-1.4,1.4-.3.6-.5,1.4-.5,2.3Z"/>
    <path class="st0" d="M70.1,123.4c-1,0-2-.1-2.8-.4-.8-.3-1.6-.7-2.2-1.3-.6-.6-1.2-1.2-1.6-2l3.3-2.1c.4.6,1,1.1,1.6,1.4s1.3.5,2,.5.9-.1,1.2-.3c.3-.2.4-.5.4-.8s0-.4-.2-.6-.4-.3-.7-.5c-.4-.2-.9-.3-1.5-.4-1.4-.3-2.5-.7-3.4-1.2-.8-.5-1.4-1.1-1.8-1.8-.4-.7-.5-1.5-.5-2.4s.3-1.9.8-2.7c.5-.8,1.2-1.5,2.2-1.9,1-.5,2.1-.7,3.4-.7s2.7.3,3.8.9c1,.6,1.8,1.3,2.4,2.2l-3.3,2.4c-.4-.5-.9-.9-1.5-1.1-.6-.2-1.2-.3-1.8-.3s-.9,0-1.2.3-.4.4-.4.8.2.6.5.8c.3.2,1,.4,2,.6,1.3.3,2.4.7,3.3,1.2.9.5,1.5,1.1,1.9,1.8.4.7.6,1.5.6,2.6s-.3,1.9-.8,2.7c-.5.8-1.2,1.4-2.2,1.9-1,.4-2.1.7-3.4.7Z"/>
    <path class="st0" d="M77.9,122.9v-16.3h4.3v16.3h-4.3ZM86.7,122.9l-6-7.8v-.8l6.3-7.8h5.4l-6.9,8.6v-.8l6.8,8.6h-5.6Z"/>
    <path class="st0" d="M91,114.8c0-1.2.2-2.4.6-3.4.4-1,1-1.9,1.7-2.7.7-.8,1.6-1.3,2.6-1.8s2.2-.6,3.4-.6,2.4.2,3.4.6c1,.4,1.9,1,2.7,1.8s1.3,1.7,1.7,2.7.6,2.2.6,3.4-.2,2.4-.6,3.4-1,1.9-1.7,2.7c-.7.8-1.6,1.3-2.7,1.8-1,.4-2.2.6-3.4.6s-2.4-.2-3.4-.6c-1-.4-1.9-1-2.6-1.8-.7-.8-1.3-1.7-1.7-2.7-.4-1-.6-2.2-.6-3.4ZM95.4,114.8c0,.9.2,1.7.5,2.3.3.6.8,1.1,1.4,1.4.6.3,1.3.5,2,.5s1.5-.2,2.1-.5c.6-.3,1.1-.8,1.4-1.4s.5-1.4.5-2.3-.2-1.7-.5-2.3-.8-1.1-1.4-1.4c-.6-.3-1.3-.5-2.1-.5s-1.4.2-2,.5c-.6.3-1.1.8-1.4,1.4-.3.6-.5,1.4-.5,2.3Z"/>
    <path class="st0" d="M25.3,146.9v-16.3h6c1.8,0,3.3.3,4.5,1,1.2.6,2.2,1.6,2.8,2.8.6,1.2,1,2.7,1,4.4s-.3,3.2-1,4.4c-.6,1.2-1.6,2.2-2.8,2.8-1.2.6-2.7,1-4.5,1h-6ZM29.7,144.6l-1.9-1.9h3.2c.9,0,1.7-.1,2.3-.4.6-.3,1.1-.7,1.4-1.3.3-.6.5-1.3.5-2.3s-.2-1.7-.5-2.3c-.3-.6-.8-1-1.4-1.3-.6-.3-1.4-.4-2.3-.4h-3.4l2.1-1.1v10.9Z"/>
    <path class="st0" d="M45.2,146.9h-4.3v-16.3h4.3v16.3Z"/>
    <path class="st0" d="M54.9,147.3c-1.7,0-3.1-.4-4.4-1.1-1.3-.7-2.2-1.7-2.9-2.9-.7-1.2-1-2.7-1-4.3s.2-2.5.6-3.6c.4-1.1,1-2,1.7-2.7.7-.8,1.6-1.4,2.6-1.8s2.2-.6,3.4-.6c1.9,0,3.4.4,4.7,1.2,1.3.8,2.2,2,2.8,3.6l-3.8,1.7c-.4-.8-.8-1.4-1.4-1.8-.6-.4-1.3-.6-2.2-.6s-1.4.2-2,.5c-.6.3-1.1.8-1.4,1.5-.3.7-.5,1.5-.5,2.5s.2,1.6.5,2.3c.3.6.8,1.1,1.4,1.5.6.3,1.3.5,2,.5s1.3-.1,1.8-.3c.5-.2.9-.5,1.2-1,.3-.4.5-1,.6-1.6l1.5,1.1h-5.5v-3.8h7.9c0,.3.1.6.2,1,0,.4,0,.7,0,1.1,0,1.2-.2,2.3-.6,3.2-.4.9-1,1.7-1.8,2.4-.7.6-1.6,1.1-2.5,1.5-.9.3-1.9.5-2.9.5Z"/>
    <path class="st0" d="M68.5,146.9h-4.3v-16.3h4.3v16.3Z"/>
    <path class="st0" d="M69.7,134.8v-4.2h13.6v4.2h-13.6ZM74.3,146.9v-14.8h4.4v14.8h-4.4Z"/>
    <path class="st0" d="M81,146.9l5.8-16.3h4.3l5.3,16.3h-4.4l-3.9-13.4h1.7l-4.5,13.4h-4.3ZM84.9,140.5h6.8v4h-6.8v-4Z"/>
    <path class="st0" d="M107.7,146.9h-10.3v-16.3h4.3v14.2l-1.3-2h7.3v4.2Z"/>
  </g>
  <g>
    <circle class="st0" cx="50.5" cy="33.4" r="9.9"/>
    <path class="st0" d="M57.7,44.7c-2.1,1.4-4.6,2.2-7.3,2.2s-5.2-.8-7.3-2.2c-2.3.9-4.5,2.2-6.3,3.9l13.6,5.1,13.6-5.1c-1.9-1.7-4-3-6.3-3.9h0Z"/>
    <path class="st0" d="M71.5,59.7h-1.2c-1,0-1.8.8-1.8,1.8v4.7c0,1,.8,1.8,1.8,1.8h1.2c2.3,0,4.1-1.8,4.1-4.1s-1.8-4.1-4.1-4.1Z"/>
    <path class="st0" d="M30.8,50.8c-.5.3-.8.9-.8,1.4v3.9h.6c2.9,0,5.3,2.4,5.3,5.3v4.7c0,2.9-2.4,5.3-5.3,5.3h-.6v3.7c0,.7.5,1.4,1.1,1.6l17.5,6.6v-26.5l-16.3-6.1c-.5-.2-1.1-.1-1.6.2h0Z"/>
    <path class="st0" d="M65,66.1v-4.7c0-2.9,2.4-5.3,5.3-5.3h.6v-3.9c0-.6-.3-1.1-.8-1.4-.5-.3-1.1-.4-1.6-.2l-16.3,6.1v26.5l17.5-6.6c.7-.3,1.1-.9,1.1-1.6v-3.7h-.6c-2.9,0-5.3-2.4-5.3-5.3h0Z"/>
    <path class="st0" d="M32.4,66.1v-4.7c0-1-.8-1.8-1.8-1.8h-1.2c-2.3,0-4.1,1.8-4.1,4.1s1.8,4.1,4.1,4.1h1.2c1,0,1.8-.8,1.8-1.8Z"/>
  </g>
</svg>