<?xml version="1.0" encoding="utf-8"?>
<!-- Generator: Adobe Illustrator 24.3.0, SVG Export Plug-In . SVG Version: 6.00 Build 0)  -->
<svg version="1.1" id="Layer_1" xmlns="http://www.w3.org/2000/svg" xmlns:xlink="http://www.w3.org/1999/xlink" x="0px" y="0px"
	 width="135px" height="35px" viewBox="0 0 135 35" style="enable-background:new 0 0 135 35;" xml:space="preserve">
<style type="text/css">
	.st0{fill:#FFFFFF;}
</style>
<path class="st0" d="M27.8,15.4c0-0.3-0.1-0.5-0.2-0.7c-0.2-0.2-0.4-0.3-0.6-0.5c-0.3-0.1-0.5-0.3-0.8-0.4c-0.3-0.1-0.6-0.3-0.8-0.4
	c-0.2-0.2-0.5-0.4-0.6-0.6c-0.2-0.3-0.3-0.6-0.2-1c0-0.5,0.2-1,0.6-1.3c0.5-0.3,1-0.5,1.6-0.4c0.4,0,0.7,0,1.1,0.1
	c0.3,0,0.5,0.1,0.8,0.2l-0.2,0.7c-0.2-0.1-0.4-0.2-0.7-0.2c-0.3-0.1-0.7-0.1-1-0.1c-0.4,0-0.7,0.1-1,0.3c-0.2,0.2-0.3,0.4-0.3,0.7
	c0,0.2,0.1,0.5,0.2,0.6c0.2,0.2,0.4,0.3,0.6,0.5c0.2,0.1,0.5,0.3,0.8,0.4c0.3,0.1,0.6,0.3,0.8,0.5c0.2,0.2,0.5,0.4,0.6,0.6
	c0.2,0.3,0.3,0.6,0.2,0.9c0,0.3,0,0.6-0.2,0.8c-0.1,0.2-0.3,0.5-0.5,0.6c-0.2,0.2-0.5,0.3-0.8,0.4s-0.7,0.1-1,0.1
	c-0.4,0-0.9,0-1.3-0.1c-0.3-0.1-0.5-0.1-0.8-0.3l0.3-0.7c0.2,0.1,0.4,0.2,0.7,0.2c0.3,0.1,0.7,0.1,1,0.1c0.2,0,0.4,0,0.6-0.1
	c0.2,0,0.3-0.1,0.5-0.2c0.1-0.1,0.3-0.2,0.3-0.4C27.8,15.7,27.8,15.5,27.8,15.4z"/>
<path class="st0" d="M29.7,13.6c0-0.9,0.2-1.9,0.7-2.6c0.5-0.7,1.3-1,2.1-1c0.4,0,0.9,0.1,1.3,0.3c0.4,0.2,0.7,0.4,0.9,0.7
	c0.3,0.3,0.4,0.7,0.5,1.1c0.1,0.5,0.2,1,0.2,1.5c0.1,1-0.2,1.9-0.7,2.7c-0.5,0.6-1.3,1-2.1,0.9c-0.4,0-0.9-0.1-1.3-0.2
	c-0.4-0.2-0.7-0.4-0.9-0.7c-0.2-0.3-0.4-0.7-0.5-1.1C29.7,14.6,29.7,14.1,29.7,13.6z M30.6,13.6c0,0.4,0,0.7,0.1,1.1
	c0.1,0.3,0.2,0.6,0.4,0.9c0.2,0.3,0.4,0.5,0.6,0.6c0.3,0.2,0.6,0.2,0.9,0.2c0.6,0,1.1-0.2,1.5-0.7c0.4-0.7,0.6-1.4,0.5-2.2
	c0-0.4,0-0.7-0.1-1.1c-0.1-0.3-0.2-0.6-0.4-0.9c-0.2-0.3-0.4-0.5-0.6-0.6c-0.3-0.2-0.6-0.2-0.9-0.2c-0.6,0-1.1,0.2-1.4,0.7
	C30.7,12.1,30.5,12.9,30.6,13.6z"/>
<path class="st0" d="M41,17.1h-4.2v-7h0.8v6.3H41V17.1z"/>
<path class="st0" d="M42.2,10.1H43v7h-0.8V10.1z"/>
<path class="st0" d="M49.4,16.8c-0.2,0.2-0.5,0.3-0.8,0.3c-0.3,0.1-0.7,0.1-1,0.1c-0.4,0-0.8-0.1-1.2-0.2s-0.7-0.4-1-0.7
	c-0.3-0.3-0.5-0.7-0.7-1.1c-0.2-0.5-0.3-1.1-0.2-1.6c0-0.5,0.1-1.1,0.3-1.6c0.2-0.4,0.4-0.8,0.7-1.1s0.6-0.5,1-0.6s0.7-0.2,1.1-0.2
	c0.3,0,0.7,0,1,0.1c0.2,0,0.4,0.1,0.7,0.2L49.1,11c-0.4-0.2-0.9-0.3-1.4-0.2c-0.3,0-0.6,0.1-0.8,0.1c-0.3,0.1-0.5,0.3-0.7,0.5
	c-0.2,0.3-0.4,0.6-0.5,0.9c-0.1,0.4-0.2,0.9-0.2,1.4c0,0.4,0.1,0.9,0.2,1.3c0.1,0.3,0.3,0.6,0.5,0.9c0.2,0.2,0.5,0.4,0.7,0.5
	c0.3,0.1,0.6,0.2,0.9,0.2c0.3,0,0.5,0,0.8-0.1c0.2,0,0.4-0.1,0.6-0.2L49.4,16.8z"/>
<path class="st0" d="M50.8,10.1h0.8v7h-0.8V10.1z"/>
<path class="st0" d="M58,10.9h-2.2v6.3H55v-6.3h-2.2v-0.7H58V10.9z"/>
<path class="st0" d="M61.7,15.2h-2.6l-0.7,1.9h-0.8l2.7-7.1h0.4l2.7,7.1h-0.9L61.7,15.2z M59.4,14.5h2l-0.8-2.1l-0.2-1.1l0,0
	l-0.2,1.1L59.4,14.5z"/>
<path class="st0" d="M64.2,10.2c0.3,0,0.6-0.1,0.9-0.1s0.6,0,0.9,0s0.6,0,0.9,0.1s0.5,0.2,0.7,0.3c0.2,0.2,0.4,0.4,0.5,0.6
	c0.1,0.3,0.2,0.6,0.2,0.9c0,0.5-0.1,1-0.4,1.3s-0.7,0.6-1.1,0.7l0.5,0.4l1.8,2.7h-1l-1.9-3l-1-0.1v3.2h-0.8v-7H64.2z M66,10.8h-0.5
	h-0.2h-0.2v2.6h0.8c0.4,0,0.8-0.1,1.2-0.3c0.3-0.3,0.5-0.7,0.4-1.1c0-0.3-0.1-0.7-0.4-0.9S66.4,10.7,66,10.8L66,10.8z"/>
<path class="st0" d="M73.1,10.1h0.8v7h-0.8V10.1z"/>
<path class="st0" d="M77,12.6l-0.5-1l0,0l0.1,1v4.6h-0.8V10h0.4l3.3,4.7l0.5,1l0,0l-0.1-1v-4.5h0.8v7.1h-0.4L77,12.6z"/>
<path class="st0" d="M82.5,10.1h3.8v0.7h-3v2.4h2.8V14h-2.8v3.1h-0.8V10.1z"/>
<path class="st0" d="M87.4,13.6c0-0.9,0.2-1.9,0.7-2.6c0.5-0.7,1.3-1,2.1-1c0.4,0,0.9,0.1,1.3,0.3s0.7,0.4,0.9,0.7
	c0.3,0.3,0.4,0.7,0.5,1.1c0.1,0.5,0.2,1,0.2,1.5c0.1,1-0.2,1.9-0.7,2.7c-0.5,0.6-1.3,1-2.1,0.9c-0.4,0-0.8-0.1-1.2-0.2
	c-0.4-0.2-0.7-0.4-0.9-0.7c-0.2-0.3-0.4-0.7-0.5-1.1C87.5,14.6,87.4,14.1,87.4,13.6z M88.3,13.6c0,0.4,0,0.7,0.1,1.1
	c0.1,0.3,0.2,0.6,0.3,0.9c0.2,0.3,0.4,0.5,0.6,0.6c0.3,0.2,0.6,0.2,0.9,0.2c0.6,0,1.1-0.2,1.5-0.7c0.4-0.7,0.6-1.4,0.5-2.2
	c0-0.4,0-0.7-0.1-1.1c-0.1-0.3-0.2-0.6-0.4-0.9c-0.2-0.3-0.4-0.5-0.6-0.6c-0.3-0.2-0.6-0.2-0.9-0.2c-0.6,0-1.1,0.2-1.4,0.7
	C88.4,12.1,88.2,12.9,88.3,13.6z"/>
<path class="st0" d="M94.5,10.2c0.3,0,0.6-0.1,0.9-0.1s0.6,0,0.9,0s0.6,0,0.9,0.1s0.5,0.2,0.7,0.3c0.2,0.2,0.4,0.4,0.5,0.6
	c0.1,0.3,0.2,0.6,0.2,0.9c0,0.5-0.1,1-0.4,1.3s-0.7,0.6-1.1,0.6l0.5,0.4l1.7,2.8h-1l-1.9-3l-1-0.1v3.2h-0.8L94.5,10.2z M96.3,10.8
	h-0.5h-0.2h-0.2v2.6h0.8c0.4,0,0.8-0.1,1.1-0.3c0.3-0.2,0.5-0.6,0.4-1c0-0.3-0.1-0.7-0.4-0.9C97.1,10.9,96.7,10.7,96.3,10.8z"/>
<path class="st0" d="M105.8,12.4l0.1-1l0,0l-0.4,1l-1.8,3.2h-0.2l-1.9-3.2l-0.4-0.9h-0.1l0.1,1v4.7h-0.8v-7h0.6l2.2,3.6l0.3,0.8l0,0
	l0.3-0.8l2-3.6h0.7v7h-0.8L105.8,12.4z"/>
<path class="st0" d="M111.7,15.2h-2.6l-0.7,1.9h-0.8l2.7-7.1h0.4l2.7,7.1h-0.9L111.7,15.2z M109.4,14.5h2l-0.8-2.1l-0.2-1.1l0,0
	l-0.2,1.1L109.4,14.5z"/>
<path class="st0" d="M118.4,16.8c-0.2,0.2-0.5,0.3-0.8,0.3c-0.3,0.1-0.7,0.1-1,0.1c-0.4,0-0.8-0.1-1.2-0.2c-0.4-0.1-0.7-0.4-1-0.7
	c-0.3-0.3-0.5-0.7-0.7-1.1c-0.2-0.5-0.3-1.1-0.2-1.6c0-0.6,0.2-1.1,0.4-1.6c0.1-0.4,0.4-0.8,0.7-1.1c0.3-0.3,0.6-0.5,1-0.6
	s0.7-0.2,1.1-0.2c0.3,0,0.7,0,1,0.1c0.2,0,0.4,0.1,0.7,0.2l-0.2,0.7c-0.4-0.2-0.9-0.3-1.4-0.2c-0.3,0-0.6,0.1-0.8,0.1
	c-0.3,0.1-0.5,0.3-0.7,0.5c-0.2,0.3-0.4,0.6-0.5,0.9c-0.1,0.4-0.2,0.9-0.2,1.4c0,0.4,0.1,0.9,0.2,1.3c0.1,0.3,0.3,0.6,0.5,0.9
	c0.2,0.2,0.5,0.4,0.7,0.5c0.3,0.1,0.6,0.2,0.9,0.2s0.5,0,0.8-0.1c0.2,0,0.4-0.1,0.6-0.2L118.4,16.8z"/>
<path class="st0" d="M119.9,10.1h0.8v7h-0.8V10.1z"/>
<path class="st0" d="M122.3,13.6c-0.1-0.9,0.2-1.9,0.7-2.6c0.5-0.6,1.3-1,2.1-0.9c0.4,0,0.9,0.1,1.3,0.3s0.7,0.4,0.9,0.7
	c0.3,0.3,0.4,0.7,0.5,1.1c0.1,0.5,0.2,1,0.2,1.5c0.1,1-0.2,1.9-0.7,2.7c-0.5,0.6-1.3,1-2.1,0.9c-0.4,0-0.9-0.1-1.3-0.3
	c-0.4-0.2-0.7-0.4-0.9-0.7c-0.2-0.3-0.4-0.7-0.5-1.1C122.3,14.7,122.3,14.1,122.3,13.6z M123.2,13.6c0,0.4,0,0.7,0.1,1.1
	c0.1,0.3,0.2,0.6,0.3,0.9c0.2,0.3,0.4,0.5,0.6,0.6c0.3,0.2,0.6,0.2,0.9,0.2c0.6,0,1.1-0.2,1.5-0.7c0.4-0.7,0.6-1.4,0.5-2.2
	c0-0.4,0-0.7-0.1-1.1c-0.1-0.3-0.2-0.6-0.4-0.9c-0.2-0.3-0.4-0.5-0.6-0.6c-0.3-0.2-0.6-0.2-0.9-0.2c-0.6,0-1.1,0.2-1.4,0.7
	C123.3,12.1,123.1,12.9,123.2,13.6z M125.9,8.4h1.1v0.2l-1.6,1h-0.7L125.9,8.4z"/>
<path class="st0" d="M130.7,12.6l-0.5-1l0,0l0.1,1v4.6h-0.8V10h0.4l3.4,4.7l0.5,1l0,0l-0.1-1v-4.5h0.8v7.1H134L130.7,12.6z"/>
<path class="st0" d="M28.8,27.2h-4.4v-7h1.4V26h3.1v1.2H28.8z"/>
<path class="st0" d="M29.5,20.2h4.2v1.2h-2.8V23h2.5v1.2h-2.5V26h2.8v1.2h-4.2V20.2z"/>
<path class="st0" d="M36.5,24.6l-2.3-4.4h1.6l1.3,2.6l0.1,0.7l0,0l0.2-0.8l1.2-2.6h1.5l-2.2,4.4v2.6h-1.4
	C36.5,27.1,36.5,24.6,36.5,24.6z"/>
<path class="st0" d="M43,20.2h0.5c0.2,0,0.4,0,0.5,0h0.5H45c0.5,0,1.1,0.1,1.6,0.3c0.4,0.1,0.8,0.4,1.1,0.7c0.3,0.3,0.5,0.7,0.6,1.1
	c0.1,0.5,0.2,0.9,0.2,1.4c0,0.4-0.1,0.9-0.2,1.3c-0.1,0.4-0.3,0.8-0.6,1.2c-0.3,0.4-0.7,0.6-1.1,0.8c-0.5,0.2-1.1,0.3-1.7,0.3h-0.4
	H44h-0.5H43V20.2z M45.2,21.3h-0.4c-0.1,0-0.2,0-0.3,0V26H45c0.3,0,0.7-0.1,1-0.2c0.2-0.1,0.5-0.3,0.6-0.5c0.2-0.2,0.3-0.5,0.3-0.8
	c0.1-0.3,0.1-0.6,0.1-0.9s0-0.6-0.1-0.8c0-0.3-0.1-0.5-0.3-0.7c-0.1-0.2-0.4-0.4-0.6-0.5C45.8,21.3,45.4,21.3,45.2,21.3L45.2,21.3z"
	/>
<path class="st0" d="M49.4,20.2h4.2v1.2h-2.8V23h2.5v1.2h-2.5V26h2.8v1.2h-4.2V20.2z"/>
<path class="st0" d="M59.1,27.2h-4.4v-7H56V26h3.1V27.2z"/>
<path class="st0" d="M66.2,27.2h-4.4v-7h1.4V26h3.1L66.2,27.2z"/>
<path class="st0" d="M65.8,23.7c-0.1-1,0.2-1.9,0.8-2.7c0.5-0.6,1.4-1,2.2-0.9c0.5,0,0.9,0.1,1.3,0.3c0.4,0.2,0.7,0.4,0.9,0.7
	c0.3,0.3,0.4,0.7,0.6,1.1c0.1,0.5,0.2,1,0.2,1.5c0.1,1-0.2,1.9-0.7,2.7c-0.5,0.7-1.3,1-2.2,1c-0.5,0-0.9-0.1-1.3-0.3
	c-0.4-0.2-0.7-0.4-0.9-0.7c-0.3-0.4-0.5-0.8-0.6-1.2C65.9,24.7,65.8,24.2,65.8,23.7z M67.2,23.7c0,0.3,0,0.7,0.1,1s0.1,0.5,0.3,0.8
	c0.1,0.2,0.3,0.4,0.5,0.5s0.4,0.2,0.7,0.2c0.5,0,0.9-0.2,1.1-0.6c0.3-0.6,0.5-1.2,0.4-1.9c0-0.3,0-0.6-0.1-1
	c-0.1-0.3-0.1-0.5-0.3-0.8c-0.1-0.2-0.3-0.4-0.5-0.5s-0.5-0.2-0.7-0.2c-0.5,0-0.9,0.2-1.1,0.6C67.3,22.5,67.2,23.1,67.2,23.7z"/>
<path class="st0" d="M77.4,21.8c0,0.2,0,0.3-0.1,0.5c0,0.2-0.1,0.3-0.2,0.5s-0.2,0.3-0.4,0.4c-0.2,0.1-0.4,0.2-0.6,0.2v0.1
	c0.2,0,0.4,0.1,0.6,0.2s0.3,0.2,0.5,0.3c0.1,0.1,0.2,0.3,0.3,0.5c0.1,0.2,0.1,0.5,0.1,0.7c0,0.3-0.1,0.6-0.2,0.9s-0.4,0.5-0.6,0.6
	c-0.3,0.2-0.6,0.3-0.9,0.4s-0.7,0.1-1,0.1h-0.4h-0.6h-0.6c-0.2,0-0.4,0-0.6-0.1v-6.9l0.4-0.1h0.5c0.2,0,0.4,0,0.6,0h0.6
	c0.3,0,0.7,0,1,0.1c0.3,0,0.6,0.1,0.8,0.3c0.2,0.1,0.4,0.3,0.6,0.5C77.4,21.3,77.4,21.6,77.4,21.8z M74.5,23.1h0.3h0.3
	c0.2-0.1,0.5-0.2,0.7-0.4c0.2-0.2,0.3-0.4,0.3-0.6c0-0.1,0-0.3-0.1-0.4s-0.2-0.2-0.3-0.3c-0.1-0.1-0.2-0.1-0.4-0.1
	c-0.1,0-0.3,0-0.4,0h-0.5c-0.1,0-0.2,0-0.3,0v1.9L74.5,23.1z M74.9,26.1c0.2,0,0.3,0,0.5-0.1c0.1,0,0.3-0.1,0.4-0.2s0.2-0.2,0.3-0.3
	c0.1-0.1,0.1-0.3,0.1-0.4c0-0.2,0-0.4-0.1-0.5s-0.2-0.2-0.3-0.3c-0.1-0.1-0.3-0.1-0.5-0.1s-0.3,0-0.5,0h-0.7v1.9h0.2H74.9L74.9,26.1
	z"/>
<path class="st0" d="M83.3,21.8c0,0.2,0,0.3-0.1,0.5c0,0.2-0.1,0.3-0.2,0.5s-0.2,0.3-0.4,0.4c-0.2,0.1-0.4,0.2-0.6,0.2v0.1
	c0.2,0,0.4,0.1,0.6,0.2s0.3,0.2,0.5,0.3c0.1,0.1,0.2,0.3,0.3,0.5c0.1,0.2,0.1,0.5,0.1,0.7c0,0.3-0.1,0.6-0.2,0.9s-0.4,0.5-0.6,0.6
	c-0.3,0.2-0.6,0.3-0.9,0.4s-0.7,0.1-1,0.1h-0.4h-0.6h-0.6c-0.2,0-0.4,0-0.6-0.1v-6.9l0.4-0.1h0.5c0.2,0,0.4,0,0.6,0h0.6
	c0.3,0,0.7,0,1,0.1c0.3,0,0.6,0.1,0.8,0.3c0.2,0.1,0.4,0.3,0.6,0.5C83.3,21.3,83.3,21.6,83.3,21.8z M80.4,23.1h0.3H81
	c0.2-0.1,0.5-0.2,0.7-0.4c0.2-0.2,0.3-0.4,0.3-0.6c0-0.1,0-0.3-0.1-0.4s-0.2-0.2-0.3-0.3c-0.1-0.1-0.2-0.1-0.4-0.1
	c-0.1,0-0.3,0-0.4,0h-0.5c-0.1,0-0.2,0-0.3,0v1.9L80.4,23.1z M80.8,26.1c0.2,0,0.3,0,0.5-0.1c0.1,0,0.3-0.1,0.4-0.2s0.2-0.2,0.3-0.3
	c0.1-0.1,0.1-0.3,0.1-0.4c0-0.2,0-0.4-0.1-0.5s-0.2-0.2-0.3-0.3c-0.1-0.1-0.3-0.1-0.5-0.1s-0.3,0-0.5,0H80v1.9h0.2H80.8L80.8,26.1z"
	/>
<path class="st0" d="M86.2,24.6l-2.3-4.4h1.6l1.3,2.6l0.1,0.7l0,0l0.2-0.8l1.2-2.6h1.5l-2.3,4.4v2.6h-1.4v-2.5H86.2z"/>
<path class="st0" d="M5.8,20.6v-4.2c0-0.3,0-0.6,0.1-0.9H3.1c-0.9,0-1.6,0.7-1.6,1.7v3.3c0,0.4,0.1,0.8,0.4,1.1
	C2,21.7,2.2,21.9,2.4,22v4.8c0,0.4,0.3,0.6,0.6,0.6h3.9V23C6.2,22.3,5.8,21.5,5.8,20.6z"/>
<path class="st0" d="M4.9,14.8c1.4,0,2.5-1.1,2.5-2.5S6.3,9.8,4.9,9.8s-2.5,1.1-2.5,2.5S3.5,14.8,4.9,14.8z"/>
<path class="st0" d="M13.5,14.5H9c-0.5,0-1,0.2-1.3,0.6c-0.4,0.4-0.6,0.8-0.6,1.3v4.2c0,0.7,0.4,1.4,1.1,1.7v6.1
	c0,0.3,0.3,0.6,0.6,0.6l0,0h4.9c0.3,0,0.6-0.3,0.6-0.6l0,0v-6.1c0.2-0.1,0.4-0.3,0.6-0.5c0.3-0.3,0.5-0.8,0.4-1.2v-4.2
	c0-0.5-0.2-1-0.6-1.3C14.5,14.7,14,14.5,13.5,14.5z"/>
<path class="st0" d="M11.2,13.2c1.7,0,3-1.3,3-3s-1.3-3-3-3s-3,1.3-3,3S9.6,13.2,11.2,13.2z"/>
<path class="st0" d="M20.6,16c-0.3-0.3-0.7-0.5-1.2-0.5h-2.9c0.1,0.3,0.1,0.6,0.1,0.9v4.2c0,0.9-0.4,1.8-1.1,2.4v4.4h4
	c0.3,0,0.6-0.3,0.6-0.6V22c0.2-0.1,0.3-0.2,0.5-0.4c0.3-0.3,0.4-0.7,0.4-1.1v-3.3C21.1,16.7,20.9,16.3,20.6,16z"/>
<path class="st0" d="M17.6,14.8c1.4,0,2.5-1.1,2.5-2.5S19,9.8,17.6,9.8s-2.5,1.1-2.5,2.5l0,0C15.2,13.7,16.3,14.8,17.6,14.8z"/>
</svg>
