<?xml version="1.0" encoding="utf-8"?>
<!-- Generator: Adobe Illustrator 24.2.3, SVG Export Plug-In . SVG Version: 6.00 Build 0)  -->
<svg version="1.1" id="Capa_1" xmlns="http://www.w3.org/2000/svg" xmlns:xlink="http://www.w3.org/1999/xlink" x="0px" y="0px"
	 width="180px" height="30px" viewBox="0 0 180 30" style="enable-background:new 0 0 180 30;" xml:space="preserve">
<style type="text/css">
	.st0{fill:#2D4228;}
	.st1{fill:#FFFFFF;}
	.st2{fill:url(#shape_3_2_);}
	.st3{fill:url(#SVGID_1_);}
	.st4{fill-rule:evenodd;clip-rule:evenodd;fill:#FFFFFF;}
</style>
<g>
	<path class="st1" d="M35.3,13h3.2l5.2,12.7h-3.6L39.3,24h-4.8l-0.7,1.6h-3.6L35.3,13z M38.4,21.3l-1.5-3.9l-1.5,3.9H38.4L38.4,21.3
		z M44.7,13h3.5v9.5H53v3.1h-8.2V13z M60.5,12.8c3.9,0,7,2.9,7,6.5s-3.1,6.5-7,6.5c-3.9,0-7-2.9-7-6.5S56.6,12.8,60.5,12.8z
		 M60.5,22.8c1.9,0,3.5-1.6,3.5-3.5c0-1.9-1.6-3.5-3.5-3.5S57,17.5,57,19.4C57,21.3,58.6,22.8,60.5,22.8z M60.1,9.5h3.4l-1.9,2.7
		h-2.4L60.1,9.5L60.1,9.5z M69.6,22.4c0.6,1.6,1.8,2.5,3.6,2.5c2.2,0,2.9-1.4,2.9-2.5c0-1.6-1.1-2.3-3-3.1c-1.9-0.8-3.3-1.6-3.3-3.5
		c0-1.7,1.4-3,3.2-3c1.5,0,2.6,0.6,3.2,1.8L75.4,15c-0.5-0.9-1.3-1.4-2.4-1.4c-1.3,0-2.3,0.9-2.3,2.1c0,1.5,1.1,2.1,2.8,2.8
		c2.3,1,3.5,1.8,3.5,3.9c0,2-1.4,3.4-3.8,3.4c-2,0-3.6-1-4.4-3L69.6,22.4L69.6,22.4z M81.5,13.9h-3.7V13h8.3v0.9h-3.7v11.8h-0.9
		L81.5,13.9L81.5,13.9z M93.4,12.8c1.6,0,2.9,0.5,4,1.4l-0.6,0.7c-0.9-0.7-2.1-1.2-3.5-1.2c-3.2,0-5.6,2.5-5.6,5.7
		c0,3.2,2.4,5.7,5.6,5.7c1.5,0,2.8-0.5,3.8-1.4v-3.8H93v-0.9h5.1v5c-1.2,1.2-2.9,1.9-4.8,1.9c-3.7,0-6.5-2.8-6.5-6.5
		C86.8,15.6,89.7,12.8,93.4,12.8L93.4,12.8z M106.7,12.8c3.6,0,6.5,2.8,6.5,6.5c0,3.8-2.9,6.5-6.5,6.5c-3.7,0-6.5-2.8-6.5-6.5
		C100.2,15.6,103.1,12.8,106.7,12.8L106.7,12.8z M106.7,25c3.2,0,5.6-2.4,5.6-5.6c0-3.2-2.4-5.7-5.6-5.7c-3.2,0-5.6,2.4-5.6,5.7
		C101.1,22.5,103.5,25,106.7,25z"/>
</g>
<g>
	<g>
		<circle class="st1" cx="134.8" cy="6.7" r="1.6"/>
		<circle class="st1" cx="139" cy="6.7" r="1.6"/>
		<circle class="st1" cx="143.1" cy="6.7" r="1.6"/>
		<circle class="st1" cx="134.8" cy="10.9" r="1.6"/>
		<circle class="st1" cx="139" cy="10.9" r="1.6"/>
		<circle class="st1" cx="143.1" cy="10.9" r="1.6"/>
		<circle class="st1" cx="134.8" cy="15" r="1.6"/>
		<circle class="st1" cx="139" cy="15" r="1.6"/>
		<path class="st1" d="M144.8,25.9c0,0.9-0.7,1.6-1.6,1.6c-0.9,0-1.6-0.7-1.6-1.6V15c0-0.9,0.7-1.6,1.6-1.6c0.9,0,1.6,0.7,1.6,1.6
			V25.9z M141.5,26.2c0,0.9-0.7,1.6-1.6,1.6c-0.9,0-1.6-0.7-1.6-1.6v-3.8c0-0.9,0.7-1.6,1.6-1.6c0.9,0,1.6,0.7,1.6,1.6V26.2z
			 M138.3,26.8c0,0.9-0.7,1.6-1.6,1.6s-1.6-0.7-1.6-1.6v-3.2c0-0.9,0.7-1.6,1.6-1.6s1.6,0.7,1.6,1.6V26.8z M135,26.9
			c0,0.9-0.7,1.6-1.6,1.6c-0.9,0-1.6-0.7-1.6-1.6v-2.1c0-0.9,0.7-1.6,1.6-1.6c0.9,0,1.6,0.7,1.6,1.6V26.9z M131.8,25.5h15.5V29
			h-15.5V25.5z M148.7,21.6c0,0-1.5-0.8-2.4,0.6c-0.5,0.7-0.7,2.1-1.1,2.7c-0.5,0.8-0.8,0.5-0.8,0.5V29h3.4L148.7,21.6L148.7,21.6z"
			/>
	</g>
	<rect x="143.7" y="25.5" class="st1" width="3.6" height="3.6"/>
	<rect x="143.7" y="25.3" class="st1" width="1.2" height="0.2"/>
</g>
</svg>
