<?xml version="1.0" encoding="UTF-8"?>
<svg id="Capa_1" xmlns="http://www.w3.org/2000/svg" width="200.1" height="200.1" version="1.1" viewBox="0 0 200.1 200.1">
  <!-- Generator: Adobe Illustrator 29.5.1, SVG Export Plug-In . SVG Version: 2.1.0 Build 141)  -->
  <defs>
    <style>
      .st0 {
        fill: #fff;
      }

      .st1 {
        fill: #1a1e21;
      }
    </style>
  </defs>
  <rect class="st1" x="-22.1" y="-22.1" width="244.4" height="244.4"/>
  <g>
    <path class="st0" d="M22.3,54.5v5.7c0,2.5,1.9,4.6,4.5,4.6,0-.8-.1-1.5-.1-2.3v-10.6c0-.8,0-1.5.1-2.3-2.5,0-4.5,2.1-4.5,4.6h0v.2Z"/>
    <path class="st0" d="M79.5,49.8c.2,2.3,0,11.5.1,13.9,0,.4,0,.9-.1,1.2,2.5,0,4.5-2.1,4.5-4.6v-5.7c0-2.5-1.9-4.6-4.5-4.6h0Z"/>
    <path class="st0" d="M31.1,46.9c-1,.6-1.7,1.6-2,2.8v15c.3,1.2,1.1,2.1,2,2.8,2.3,1.4,5.3.8,6.8-1.5.5-.8.8-1.6.8-2.6v-12.6c0-2.7-2.3-4.8-4.9-4.8s-1.8.3-2.6.8h0Z"/>
    <path class="st0" d="M53.1,25.1c11.1,0,20.5,8.3,21.8,19.3.9.3,1.6.9,2.4,1.5-2.6-30.5-45.7-30.5-48.3,0,.6-.6,1.5-1.2,2.4-1.5,1.4-11.1,10.7-19.3,21.8-19.3h0Z"/>
    <path class="st0" d="M75.1,46.9c-2.3-1.4-5.3-.8-6.8,1.5-.5.8-.8,1.6-.8,2.6v12.6c0,2.7,2.3,4.8,4.9,4.8s4.1-1.5,4.6-3.5c.3-.6,0-15,0-15-.3-1.2-1.1-2.1-2-2.8h0Z"/>
    <path class="st0" d="M52.2,71.4h-4.6c-1.4,0-2.7,1-3.1,2.4h-9.8c-1.9,0-3.5-1.6-3.5-3.5h0c-.3-.3-1.3-.5-2.1-1.5v1.5c0,3.2,2.6,5.8,5.8,5.8h9.8c.4,1.4,1.7,2.4,3.1,2.4h4.6c4.4,0,4.4-6.8,0-6.8h0v-.2s-.1,0-.1,0Z"/>
    <path class="st0" d="M63.3,63.7c1.9-2.8,2.7-6.2,2-9.4-1.3-6.8-7.8-11.3-14.6-10-.5,0-1.1.2-1.6.4-6.6,2.1-10.2,9.2-8.1,15.8s9.2,10.2,15.8,8.1l5.7,3.9c.3.2.6.2,1,.2.8-.1,1.2-.8,1.1-1.5l-1.3-7.2s0-.2,0-.2ZM48.6,58.6c-.8,0-1.4-.6-1.4-1.4s.6-1.4,1.4-1.4,1.4.6,1.4,1.4-.6,1.4-1.4,1.4ZM53.1,58.6c-.8,0-1.4-.6-1.4-1.4s.6-1.4,1.4-1.4,1.4.6,1.4,1.4-.6,1.4-1.4,1.4ZM57.6,58.6c-.8,0-1.4-.6-1.4-1.4s.6-1.4,1.4-1.4,1.4.6,1.4,1.4-.6,1.4-1.4,1.4Z"/>
  </g>
  <g>
    <path class="st0" d="M22.4,122.7l5.8-16.3h4.3l5.3,16.3h-4.4l-3.9-13.4h1.7l-4.5,13.4h-4.3ZM26.3,116.3h6.8v4h-6.8v-4Z"/>
    <path class="st0" d="M49.1,122.7h-10.3v-16.3h4.3v14.2l-1.3-2h7.3v4.2Z"/>
    <path class="st0" d="M49.4,114.6c0-1.2.2-2.4.6-3.4.4-1,1-1.9,1.7-2.7.7-.8,1.6-1.3,2.6-1.8s2.2-.6,3.4-.6,2.4.2,3.4.6c1,.4,1.9,1,2.7,1.8s1.3,1.7,1.7,2.7.6,2.2.6,3.4-.2,2.4-.6,3.4-1,1.9-1.7,2.7c-.7.8-1.6,1.3-2.7,1.8-1,.4-2.2.6-3.4.6s-2.4-.2-3.4-.6c-1-.4-1.9-1-2.6-1.8-.7-.8-1.3-1.7-1.7-2.7-.4-1-.6-2.2-.6-3.4ZM53.8,114.6c0,.9.2,1.7.5,2.3.3.6.8,1.1,1.4,1.4.6.3,1.3.5,2,.5s1.5-.2,2.1-.5c.6-.3,1.1-.8,1.4-1.4s.5-1.4.5-2.3-.2-1.7-.5-2.3-.8-1.1-1.4-1.4c-.6-.3-1.3-.5-2.1-.5s-1.4.2-2,.5c-.6.3-1.1.8-1.4,1.4-.3.6-.5,1.4-.5,2.3ZM57.7,105.1l-2-2.1,4-3.6,2,2-4,3.7Z"/>
    <path class="st0" d="M73.6,123.1c-.8,0-1.7-.1-2.5-.4-.8-.3-1.5-.7-2.2-1.3-.7-.6-1.2-1.4-1.7-2.4l2-1.1c.6,1,1.2,1.7,1.8,2.2.7.4,1.5.7,2.5.7s1.7-.2,2.2-.6c.5-.4.8-1,.8-1.8s-.1-.8-.3-1.2c-.2-.3-.6-.6-1.1-.9-.5-.3-1.3-.6-2.3-.8-1.2-.3-2.2-.7-2.9-1.2-.7-.5-1.2-1-1.5-1.6-.3-.6-.4-1.3-.4-2s.2-1.7.6-2.3,1-1.2,1.8-1.6,1.7-.6,2.8-.6,2.3.2,3.2.7c.8.5,1.5,1.2,2.1,2l-2,1.3c-.5-.6-1-1-1.5-1.3s-1.1-.4-1.7-.4c-.9,0-1.6.2-2.1.6-.5.4-.7.9-.7,1.6s.2,1.1.7,1.5c.5.4,1.3.8,2.7,1.1,1.3.3,2.4.7,3.2,1.2.8.5,1.3,1,1.6,1.6.3.6.5,1.4.5,2.3s-.2,1.7-.7,2.4c-.4.7-1.1,1.3-1.9,1.7s-1.8.6-2.9.6Z"/>
    <path class="st0" d="M79.7,108.6v-2.3h12.9v2.3h-12.9ZM84.8,122.7v-14.5h2.4v14.5h-2.4Z"/>
    <path class="st0" d="M101,123c-1.6,0-3.1-.4-4.3-1.1-1.2-.7-2.2-1.7-2.9-3-.7-1.3-1-2.7-1-4.3s.2-2.3.6-3.4c.4-1,1-1.9,1.7-2.7s1.6-1.3,2.6-1.8c1-.4,2.1-.6,3.3-.6,1.9,0,3.4.4,4.6,1.1,1.2.8,2.2,1.8,2.9,3.1l-2.4.7c-.7-1-1.5-1.7-2.4-2.1-.8-.4-1.8-.5-2.7-.5s-2.1.3-3,.8c-.9.5-1.6,1.2-2.1,2.2-.5.9-.8,2-.8,3.1s.3,2.2.8,3.1c.5.9,1.2,1.6,2.1,2.2.9.5,1.9.8,3,.8s2-.2,2.9-.7c.9-.5,1.6-1.1,2.1-1.9.5-.8.8-1.7.8-2.8l.4,1.4h-6.2v-2.3h8c0,.2,0,.3.1.6s0,.4,0,.6c0,1-.2,2-.6,2.9-.4.9-1,1.7-1.7,2.4-.7.7-1.6,1.2-2.5,1.6-1,.4-2,.6-3.2.6Z"/>
    <path class="st0" d="M110.5,114.6c0-1.2.2-2.3.6-3.4.4-1,1-1.9,1.8-2.7s1.7-1.3,2.7-1.8c1-.4,2.2-.6,3.4-.6s2.3.2,3.3.6,1.9,1,2.7,1.8c.8.8,1.4,1.6,1.8,2.7.4,1,.6,2.1.6,3.4s-.2,2.3-.6,3.3c-.4,1-1,1.9-1.8,2.7-.8.8-1.7,1.3-2.7,1.8s-2.1.6-3.3.6-2.3-.2-3.4-.6c-1-.4-1.9-1-2.7-1.8-.8-.8-1.4-1.7-1.8-2.7-.4-1-.6-2.1-.6-3.3ZM112.9,114.6c0,1.2.3,2.2.8,3.1.5.9,1.2,1.6,2.2,2.2.9.5,1.9.8,3.1.8s2.2-.3,3.1-.8c.9-.5,1.6-1.3,2.1-2.2.5-.9.8-2,.8-3.1s-.3-2.2-.8-3.1c-.5-.9-1.2-1.6-2.1-2.2-.9-.5-1.9-.8-3.1-.8s-2.2.3-3.1.8-1.6,1.2-2.2,2.2-.8,2-.8,3.1Z"/>
    <path class="st0" d="M29,146.1c-1.3,0-2.4-.2-3.4-.6-.9-.4-1.6-1-2.1-1.8-.5-.8-.7-1.6-.7-2.7s.1-1.2.4-1.8c.3-.6.8-1.2,1.4-1.7.6-.5,1.4-.9,2.3-1.1v1.7c-1-.3-1.7-.7-2.3-1.1s-1-1-1.2-1.6c-.3-.6-.4-1.1-.4-1.6,0-.8.2-1.6.6-2.3.4-.7,1.1-1.3,1.9-1.8s2-.7,3.3-.7,2.5.2,3.3.7,1.5,1,1.9,1.8c.4.7.6,1.5.6,2.3s-.1,1.1-.4,1.6-.7,1.1-1.2,1.6-1.3.9-2.2,1.1v-1.7c.9.2,1.7.6,2.3,1.1.6.5,1.1,1,1.4,1.7.3.6.4,1.2.4,1.8,0,1-.2,1.9-.7,2.7-.5.8-1.1,1.4-2.1,1.8s-2,.6-3.4.6ZM29,142c.5,0,1-.1,1.3-.4.3-.3.4-.6.4-1s-.1-.8-.4-1.1c-.3-.3-.7-.4-1.3-.4s-.9.1-1.2.4c-.3.3-.4.6-.4,1.1s.1.8.4,1,.7.4,1.2.4ZM29,135.2c.5,0,.8,0,1.1-.3s.4-.5.4-.8-.1-.6-.4-.8c-.2-.2-.6-.3-1.1-.3s-.8,0-1,.3c-.2.2-.4.4-.4.8s.1.6.4.8c.2.2.6.3,1,.3Z"/>
    <path class="st0" d="M42.7,146.1c-1.2,0-2.3-.3-3.3-1-1-.7-1.7-1.6-2.2-2.9-.5-1.3-.8-2.8-.8-4.6s.3-3.3.8-4.6,1.3-2.3,2.2-2.9c1-.7,2.1-1,3.3-1s2.4.3,3.3,1c.9.7,1.7,1.7,2.2,2.9s.8,2.8.8,4.6-.3,3.3-.8,4.6c-.5,1.3-1.3,2.2-2.2,2.9-.9.7-2,1-3.3,1ZM42.7,141.8c.5,0,.9-.2,1.1-.6.3-.4.4-.9.6-1.5.1-.6.2-1.3.2-2.1s0-1.3-.1-2c0-.6-.3-1.2-.5-1.6s-.7-.6-1.2-.6-.9.2-1.2.6c-.3.4-.5.9-.6,1.6,0,.6-.1,1.3-.1,2s0,1.4.2,2.1c.1.6.3,1.2.6,1.5.3.4.7.6,1.2.6Z"/>
    <path class="st0" d="M56.6,146.1c-1.2,0-2.3-.3-3.3-1-1-.7-1.7-1.6-2.2-2.9-.5-1.3-.8-2.8-.8-4.6s.3-3.3.8-4.6,1.3-2.3,2.2-2.9c1-.7,2.1-1,3.3-1s2.4.3,3.3,1c.9.7,1.7,1.7,2.2,2.9s.8,2.8.8,4.6-.3,3.3-.8,4.6c-.5,1.3-1.3,2.2-2.2,2.9-.9.7-2,1-3.3,1ZM56.6,141.8c.5,0,.9-.2,1.1-.6.3-.4.4-.9.6-1.5.1-.6.2-1.3.2-2.1s0-1.3-.1-2c0-.6-.3-1.2-.5-1.6s-.7-.6-1.2-.6-.9.2-1.2.6c-.3.4-.5.9-.6,1.6,0,.6-.1,1.3-.1,2s0,1.4.2,2.1c.1.6.3,1.2.6,1.5.3.4.7.6,1.2.6Z"/>
    <path class="st0" d="M81.6,133.8c0,.7,0,1.4-.3,2-.2.6-.5,1.3-1,1.9-.5.7-1.1,1.4-2,2.3l-3.2,3.2-.6-1.7h7.1v4.2h-11v-3.7l4.2-4.1c.7-.7,1.2-1.2,1.6-1.7.4-.4.6-.8.7-1.1.1-.3.2-.6.2-.8s0-.6-.3-.8-.5-.3-.8-.3-.9.2-1.4.5c-.5.3-1,.8-1.6,1.5l-3-2.4c.4-.7.9-1.3,1.5-1.9.6-.6,1.3-1.1,2.1-1.5.8-.4,1.7-.6,2.7-.6s2,.2,2.8.6c.8.4,1.3,1,1.7,1.7.4.7.6,1.5.6,2.4Z"/>
    <path class="st0" d="M89.6,146.1c-1.2,0-2.3-.3-3.3-1-1-.7-1.7-1.6-2.2-2.9-.5-1.3-.8-2.8-.8-4.6s.3-3.3.8-4.6,1.3-2.3,2.2-2.9c1-.7,2.1-1,3.3-1s2.4.3,3.3,1c.9.7,1.7,1.7,2.2,2.9s.8,2.8.8,4.6-.3,3.3-.8,4.6c-.5,1.3-1.3,2.2-2.2,2.9-.9.7-2,1-3.3,1ZM89.6,141.8c.5,0,.9-.2,1.1-.6.3-.4.4-.9.6-1.5.1-.6.2-1.3.2-2.1s0-1.3-.1-2c0-.6-.3-1.2-.5-1.6s-.7-.6-1.2-.6-.9.2-1.2.6c-.3.4-.5.9-.6,1.6,0,.6-.1,1.3-.1,2s0,1.4.2,2.1c.1.6.3,1.2.6,1.5.3.4.7.6,1.2.6Z"/>
    <path class="st0" d="M109.5,146.1c-1.4,0-2.6-.3-3.7-.8-1-.5-2-1.3-2.8-2.4l2.8-2.5c.4.5.9.8,1.5,1.1.5.2,1.1.4,1.8.4s1.1-.1,1.5-.4c.4-.2.5-.6.5-1s0-.5-.3-.7c-.2-.2-.5-.3-.8-.5s-.8-.2-1.4-.2-.4,0-.6,0c-.2,0-.4,0-.7,0v-3.7c.2,0,.5,0,.7,0,.2,0,.4,0,.5,0,.7,0,1.1-.1,1.5-.3.3-.2.5-.5.5-.9s-.1-.6-.4-.8c-.3-.2-.6-.3-1.1-.3s-1,.1-1.5.4-1,.7-1.4,1.3l-2.8-2.9c.9-1.1,1.9-1.9,2.8-2.4,1-.5,2.1-.7,3.3-.7s2.1.2,2.9.6c.8.4,1.4.9,1.8,1.6s.6,1.4.6,2.3c0,1.4-.5,2.4-1.4,3.3-1,.8-2.3,1.2-4.2,1.2v-1.6c1.4,0,2.5.2,3.4.6s1.6.9,2.1,1.6.7,1.5.7,2.5-.2,1.8-.7,2.5c-.5.8-1.1,1.4-2,1.8-.9.4-2,.7-3.2.7Z"/>
    <path class="st0" d="M123,146.1c-1.2,0-2.3-.3-3.3-1-1-.7-1.7-1.6-2.2-2.9-.5-1.3-.8-2.8-.8-4.6s.3-3.3.8-4.6,1.3-2.3,2.2-2.9c1-.7,2.1-1,3.3-1s2.4.3,3.3,1c.9.7,1.7,1.7,2.2,2.9s.8,2.8.8,4.6-.3,3.3-.8,4.6c-.5,1.3-1.3,2.2-2.2,2.9-.9.7-2,1-3.3,1ZM123,141.8c.5,0,.9-.2,1.1-.6.3-.4.4-.9.6-1.5.1-.6.2-1.3.2-2.1s0-1.3-.1-2c0-.6-.3-1.2-.5-1.6s-.7-.6-1.2-.6-.9.2-1.2.6c-.3.4-.5.9-.6,1.6,0,.6-.1,1.3-.1,2s0,1.4.2,2.1c.1.6.3,1.2.6,1.5.3.4.7.6,1.2.6Z"/>
    <path class="st0" d="M139.5,132.5l1.5,1.4c0,.3-.4.5-.8.8-.4.3-1,.5-1.6.7-.6.2-1.3.3-2,.3v-4.1c.5,0,1.1,0,1.6-.3.5-.2,1-.4,1.4-.8.4-.3.7-.7.8-1.2h3.5v16.3h-4.4v-13.2Z"/>
    <path class="st0" d="M148.6,132.5l1.5,1.4c0,.3-.4.5-.8.8-.4.3-1,.5-1.6.7-.6.2-1.3.3-2,.3v-4.1c.5,0,1.1,0,1.6-.3.5-.2,1-.4,1.4-.8.4-.3.7-.7.8-1.2h3.5v16.3h-4.4v-13.2Z"/>
    <path class="st0" d="M22.9,168.7l2.3-12.6h1.6l3.5,9.2h0l3.5-9.2h1.6l2.3,12.6h-1.9l-1-6c-.1-.9-.3-1.7-.4-2.6,0-.8-.2-1.7-.2-2.5h.5c-.2,1-.5,1.9-.7,2.7-.2.8-.5,1.6-.8,2.4l-2.2,5.8h-1.4l-2.2-5.8c-.3-.8-.6-1.6-.8-2.4-.2-.8-.5-1.7-.7-2.7h.5c0,.9,0,1.7-.2,2.5,0,.8-.2,1.7-.4,2.6l-1,6h-1.9Z"/>
    <path class="st0" d="M39,162.4c0-.9.2-1.8.5-2.6.3-.8.8-1.5,1.4-2.1.6-.6,1.3-1,2.1-1.4.8-.3,1.7-.5,2.6-.5s1.8.2,2.6.5c.8.3,1.5.8,2.1,1.4.6.6,1,1.3,1.4,2.1.3.8.5,1.7.5,2.6s-.2,1.8-.5,2.6c-.3.8-.8,1.5-1.4,2.1-.6.6-1.3,1-2.1,1.4-.8.3-1.6.5-2.6.5s-1.8-.2-2.6-.5-1.5-.8-2.1-1.4c-.6-.6-1.1-1.3-1.4-2.1-.3-.8-.5-1.6-.5-2.6ZM40.9,162.4c0,.9.2,1.7.6,2.4.4.7,1,1.3,1.7,1.7.7.4,1.5.6,2.4.6s1.7-.2,2.4-.6c.7-.4,1.2-1,1.6-1.7.4-.7.6-1.5.6-2.4s-.2-1.7-.6-2.4c-.4-.7-.9-1.3-1.6-1.7-.7-.4-1.5-.6-2.4-.6s-1.7.2-2.4.6c-.7.4-1.3,1-1.7,1.7-.4.7-.6,1.5-.6,2.4ZM45.4,154.8l-.9-1,2.8-2.6.9.9-2.8,2.6Z"/>
    <path class="st0" d="M56.8,168.7l-4.5-12.6h1.9l4,11.3h-.3l4-11.3h1.9l-4.5,12.6h-2.5Z"/>
    <path class="st0" d="M67.4,168.7h-1.9v-12.6h1.9v12.6Z"/>
    <path class="st0" d="M77.8,168.7h-7.3v-12.6h1.9v11.1l-.2-.3h5.7v1.7Z"/>
    <path class="st0" d="M80.8,162.6c-.3,0-.5,0-.7-.2-.2-.1-.4-.3-.5-.5-.1-.2-.2-.5-.2-.7s0-.5.2-.7c.1-.2.3-.4.5-.5.2-.1.5-.2.7-.2s.5,0,.7.2c.2.1.4.3.5.5s.2.5.2.7,0,.5-.2.7c-.1.2-.3.4-.5.5-.2.1-.5.2-.7.2ZM80.8,168.8c-.3,0-.5,0-.7-.2-.2-.1-.4-.3-.5-.5-.1-.2-.2-.5-.2-.7s0-.5.2-.7c.1-.2.3-.4.5-.5.2-.1.5-.2.7-.2s.5,0,.7.2c.2.1.4.3.5.5s.2.5.2.7,0,.5-.2.7-.3.4-.5.5c-.2.1-.5.2-.7.2Z"/>
    <path class="st0" d="M97.1,159.5c0,.5,0,1.1-.2,1.5s-.4,1-.7,1.5c-.4.5-.9,1.1-1.6,1.8l-2.5,2.5-.5-1.3h5.5v3.3h-8.5v-2.8l3.2-3.1c.5-.5.9-1,1.2-1.3.3-.3.5-.6.5-.8,0-.2.1-.4.1-.6s0-.4-.2-.6-.4-.2-.6-.2-.7.1-1,.4c-.4.3-.8.7-1.2,1.2l-2.3-1.8c.3-.5.7-1,1.2-1.5.5-.5,1-.8,1.6-1.1.6-.3,1.3-.4,2.1-.4s1.6.2,2.2.5c.6.3,1,.8,1.3,1.3.3.6.5,1.2.5,1.8Z"/>
    <path class="st0" d="M107,159.5c0,.5,0,1.1-.2,1.5s-.4,1-.7,1.5c-.4.5-.9,1.1-1.6,1.8l-2.5,2.5-.5-1.3h5.5v3.3h-8.5v-2.8l3.2-3.1c.5-.5.9-1,1.2-1.3.3-.3.5-.6.5-.8,0-.2.1-.4.1-.6s0-.4-.2-.6-.4-.2-.6-.2-.7.1-1,.4c-.4.3-.8.7-1.2,1.2l-2.3-1.8c.3-.5.7-1,1.2-1.5.5-.5,1-.8,1.6-1.1.6-.3,1.3-.4,2.1-.4s1.6.2,2.2.5c.6.3,1,.8,1.3,1.3.3.6.5,1.2.5,1.8Z"/>
    <path class="st0" d="M113.4,168.7l4.8-10.1v.7c.1,0-5,0-5,0v-3.3h8.3v2.8l-4.5,9.8h-3.7Z"/>
    <path class="st0" d="M124.7,158.5l1.1,1.1c0,.2-.3.4-.6.6s-.7.4-1.2.5c-.5.1-1,.2-1.6.2v-3.1c.4,0,.8,0,1.2-.2.4-.1.8-.3,1.1-.6.3-.3.5-.6.6-.9h2.7v12.6h-3.4v-10.2Z"/>
    <path class="st0" d="M134.3,169c-1.1,0-2-.2-2.8-.6-.8-.4-1.5-1-2.2-1.8l2.1-2c.3.4.7.6,1.1.8s.9.3,1.4.3.8,0,1.1-.3.4-.4.4-.7,0-.4-.2-.5c-.1-.1-.4-.3-.6-.4-.3,0-.6-.1-1-.1s-.3,0-.5,0c-.2,0-.3,0-.6,0v-2.9c.2,0,.4,0,.5,0s.3,0,.4,0c.5,0,.9,0,1.1-.2.3-.2.4-.4.4-.7s0-.5-.3-.6-.5-.2-.8-.2-.8.1-1.2.3-.8.5-1.1,1l-2.1-2.2c.7-.9,1.4-1.5,2.2-1.8.8-.4,1.6-.6,2.6-.6s1.6.2,2.3.5c.6.3,1.1.7,1.4,1.2.3.5.5,1.1.5,1.8,0,1-.4,1.9-1.1,2.5-.7.6-1.8.9-3.2.9v-1.2c1.1,0,1.9.1,2.6.4.7.3,1.3.7,1.6,1.2.4.5.6,1.2.6,1.9s-.2,1.4-.5,1.9c-.4.6-.9,1-1.6,1.4-.7.3-1.5.5-2.5.5Z"/>
    <path class="st0" d="M144.8,162.8c0-1.5.2-2.8.7-3.8.4-1,1.1-1.8,1.9-2.3s1.8-.8,2.9-.8,1.5.2,2.3.5c.7.3,1.3.7,1.9,1.2l-1.9,2.3c-.3-.3-.7-.5-1-.6-.4-.1-.7-.2-1.1-.2s-.8.1-1.1.3c-.3.2-.6.6-.8,1.2-.2.6-.2,1.4-.2,2.5h-.8c.4-.8.8-1.3,1.4-1.7.6-.4,1.3-.6,2-.6s1.2.2,1.8.5c.5.3,1,.8,1.3,1.4.3.6.5,1.3.5,2s-.2,1.6-.5,2.2c-.4.7-.9,1.2-1.6,1.6-.7.4-1.5.6-2.5.6s-1.8-.2-2.6-.7c-.8-.5-1.3-1.2-1.8-2.1s-.6-2-.6-3.4ZM148.4,164.6c0,.4.1.7.4.9s.6.3,1,.3.7-.1,1-.3c.3-.2.4-.5.4-.9s-.1-.7-.4-.9c-.3-.2-.6-.3-1-.3s-.7.1-1,.3c-.3.2-.4.5-.4.9Z"/>
    <path class="st0" d="M160.3,169c-1,0-1.8-.3-2.5-.8-.7-.5-1.3-1.3-1.7-2.2-.4-1-.6-2.1-.6-3.5s.2-2.5.6-3.5c.4-1,1-1.7,1.7-2.3.7-.5,1.6-.8,2.5-.8s1.8.3,2.5.8,1.3,1.3,1.7,2.3c.4,1,.6,2.2.6,3.5s-.2,2.5-.6,3.5c-.4,1-1,1.7-1.7,2.2-.7.5-1.6.8-2.5.8ZM160.3,165.7c.4,0,.7-.2.9-.5.2-.3.3-.7.4-1.2,0-.5.1-1,.1-1.6s0-1-.1-1.5c0-.5-.2-.9-.4-1.2-.2-.3-.5-.5-.9-.5s-.7.2-.9.5c-.2.3-.4.7-.4,1.2,0,.5-.1,1-.1,1.5s0,1.1.1,1.6c0,.5.2.9.4,1.2.2.3.5.5.9.5Z"/>
    <path class="st0" d="M171,169c-1,0-1.8-.3-2.5-.8-.7-.5-1.3-1.3-1.7-2.2-.4-1-.6-2.1-.6-3.5s.2-2.5.6-3.5c.4-1,1-1.7,1.7-2.3.7-.5,1.6-.8,2.5-.8s1.8.3,2.5.8,1.3,1.3,1.7,2.3c.4,1,.6,2.2.6,3.5s-.2,2.5-.6,3.5c-.4,1-1,1.7-1.7,2.2-.7.5-1.6.8-2.5.8ZM171,165.7c.4,0,.7-.2.9-.5.2-.3.3-.7.4-1.2,0-.5.1-1,.1-1.6s0-1-.1-1.5c0-.5-.2-.9-.4-1.2-.2-.3-.5-.5-.9-.5s-.7.2-.9.5c-.2.3-.4.7-.4,1.2,0,.5-.1,1-.1,1.5s0,1.1.1,1.6c0,.5.2.9.4,1.2.2.3.5.5.9.5Z"/>
    <path class="st0" d="M181.7,169c-1,0-1.8-.3-2.5-.8-.7-.5-1.3-1.3-1.7-2.2-.4-1-.6-2.1-.6-3.5s.2-2.5.6-3.5c.4-1,1-1.7,1.7-2.3.7-.5,1.6-.8,2.5-.8s1.8.3,2.5.8,1.3,1.3,1.7,2.3c.4,1,.6,2.2.6,3.5s-.2,2.5-.6,3.5c-.4,1-1,1.7-1.7,2.2-.7.5-1.6.8-2.5.8ZM181.7,165.7c.4,0,.7-.2.9-.5.2-.3.3-.7.4-1.2,0-.5.1-1,.1-1.6s0-1-.1-1.5c0-.5-.2-.9-.4-1.2-.2-.3-.5-.5-.9-.5s-.7.2-.9.5c-.2.3-.4.7-.4,1.2,0,.5-.1,1-.1,1.5s0,1.1.1,1.6c0,.5.2.9.4,1.2.2.3.5.5.9.5Z"/>
  </g>
</svg>