<?xml version="1.0" encoding="utf-8"?>
<!-- Generator: Adobe Illustrator 24.3.0, SVG Export Plug-In . SVG Version: 6.00 Build 0)  -->
<svg version="1.1" id="Layer_1" xmlns="http://www.w3.org/2000/svg" xmlns:xlink="http://www.w3.org/1999/xlink" x="0px" y="0px"
	 width="130px" height="35px" viewBox="0 0 130 35" style="enable-background:new 0 0 130 35;" xml:space="preserve">
<style type="text/css">
	.st0{fill:#FFFFFF;}
</style>
<path class="st0" d="M29.2,10.9H27v6.3h-0.8v-6.3H24v-0.7h5.2V10.9z"/>
<path class="st0" d="M30.2,10.2c0.3,0,0.5-0.1,0.9-0.1s0.6,0,0.9,0s0.6,0,0.9,0.1c0.3,0.1,0.5,0.2,0.7,0.3c0.2,0.2,0.4,0.4,0.5,0.6
	c0.1,0.3,0.2,0.6,0.2,0.9c0,0.5-0.1,1-0.5,1.3c-0.3,0.3-0.7,0.6-1.1,0.6l0.5,0.4l1.7,2.8H34l-1.9-3L31,14v3.2h-0.8V10.2z M32,10.8
	h-0.5h-0.2H31v2.6h0.8c0.4,0,0.8-0.1,1.2-0.3c0.3-0.3,0.5-0.7,0.4-1.1c0-0.3-0.1-0.7-0.4-0.9C32.8,10.9,32.4,10.7,32,10.8L32,10.8z"
	/>
<path class="st0" d="M39.2,15.2h-2.6L36,17.1h-0.8l2.6-7.1h0.4l2.7,7.1H40L39.2,15.2z M36.9,14.5h2l-0.8-2.1L38,11.3l0,0l-0.2,1.1
	L36.9,14.5z"/>
<path class="st0" d="M43,12.6l-0.5-1l0,0l0.1,1v4.6h-0.8V10h0.4l3.3,4.7l0.5,1l0,0l-0.1-1v-4.5h0.8v7.1h-0.4L43,12.6z"/>
<path class="st0" d="M51.6,15.4c0-0.3-0.1-0.5-0.2-0.7c-0.2-0.2-0.4-0.3-0.6-0.5c-0.3-0.1-0.5-0.3-0.8-0.4c-0.3-0.1-0.6-0.3-0.8-0.4
	c-0.2-0.2-0.5-0.4-0.6-0.6c-0.2-0.3-0.3-0.6-0.2-1c0-0.5,0.2-1,0.6-1.3c0.5-0.3,1-0.5,1.6-0.4c0.4,0,0.7,0,1.1,0.1
	c0.3,0,0.5,0.1,0.8,0.2l-0.2,0.7c-0.2-0.1-0.4-0.2-0.7-0.2c-0.3-0.1-0.7-0.1-1-0.1c-0.4,0-0.7,0.1-1,0.3c-0.2,0.2-0.3,0.4-0.3,0.7
	c0,0.2,0.1,0.5,0.2,0.6c0.2,0.2,0.4,0.3,0.6,0.5c0.2,0.1,0.5,0.3,0.8,0.4c0.3,0.1,0.6,0.3,0.8,0.5s0.5,0.4,0.6,0.6
	c0.2,0.3,0.3,0.6,0.2,0.9c0,0.3,0,0.6-0.2,0.8c-0.1,0.2-0.3,0.5-0.5,0.6c-0.2,0.2-0.5,0.3-0.8,0.4s-0.7,0.1-1,0.1
	c-0.4,0-0.8,0-1.2-0.1C48.5,17,48.3,17,48,16.8l0.3-0.7c0.2,0.1,0.4,0.2,0.7,0.2c0.3,0.1,0.7,0.1,1,0.1c0.2,0,0.4,0,0.6-0.1
	c0.2,0,0.3-0.1,0.5-0.2c0.1-0.1,0.3-0.2,0.3-0.4C51.6,15.7,51.6,15.5,51.6,15.4z"/>
<path class="st0" d="M53.8,10.2c0.3-0.1,0.5-0.1,0.8-0.1h0.9c0.3,0,0.6,0,0.9,0.1c0.3,0.1,0.6,0.2,0.9,0.3c0.3,0.2,0.5,0.4,0.6,0.7
	c0.2,0.3,0.3,0.7,0.2,1.1c0,0.4-0.1,0.7-0.2,1.1c-0.1,0.3-0.4,0.5-0.6,0.7c-0.3,0.2-0.6,0.3-0.9,0.4c-0.3,0.1-0.7,0.1-1,0.1H55h-0.2
	h-0.2v2.7h-0.8V10.2z M55.5,10.8H55c-0.1,0-0.3,0-0.4,0.1v2.9c0.1,0,0.1,0,0.2,0h0.6c0.2,0,0.5,0,0.7-0.1c0.2,0,0.4-0.1,0.6-0.2
	c0.2-0.1,0.3-0.3,0.4-0.5c0.1-0.2,0.2-0.5,0.2-0.8c0-0.2,0-0.5-0.2-0.7c-0.1-0.2-0.2-0.3-0.4-0.4c-0.2-0.1-0.4-0.2-0.6-0.2
	C55.9,10.8,55.7,10.8,55.5,10.8z"/>
<path class="st0" d="M62.1,15.2h-2.6l-0.7,1.9H58l2.6-7.1H61l2.7,7.1h-0.9L62.1,15.2z M59.8,14.5h2L61,12.3l-0.2-1.1l0,0l-0.2,1.1
	L59.8,14.5z"/>
<path class="st0" d="M64.6,10.2c0.3,0,0.6-0.1,0.9-0.1s0.6,0,0.9,0s0.6,0,0.9,0.1s0.5,0.2,0.7,0.3c0.2,0.2,0.4,0.4,0.5,0.6
	c0.1,0.3,0.2,0.6,0.2,0.9c0,0.5-0.1,1-0.4,1.3s-0.7,0.6-1.1,0.7l0.5,0.4l1.7,2.8h-1l-1.9-3l-1-0.1v3.2h-0.8L64.6,10.2L64.6,10.2z
	 M66.4,10.8h-0.5h-0.2h-0.2v2.6h0.8c0.4,0,0.8-0.1,1.1-0.3c0.3-0.2,0.5-0.6,0.5-1c0-0.3-0.1-0.7-0.4-0.9
	C67.1,10.9,66.8,10.7,66.4,10.8z"/>
<path class="st0" d="M70.6,10.1h3.8v0.7h-3v2.3h2.7v0.7h-2.7v2.5h3V17h-3.8V10.1z"/>
<path class="st0" d="M77.2,12.6l-0.5-1l0,0l0.1,1v4.6H76V10h0.4l3.3,4.7l0.5,1l0,0l-0.1-1v-4.5h0.8v7.1h-0.4L77.2,12.6z"/>
<path class="st0" d="M87.1,16.8c-0.2,0.2-0.5,0.3-0.8,0.3c-0.3,0.1-0.7,0.1-1,0.1c-0.4,0-0.8-0.1-1.2-0.2c-0.4-0.1-0.7-0.4-1-0.7
	c-0.3-0.3-0.5-0.7-0.7-1.1c-0.2-0.5-0.3-1.1-0.2-1.6c0-0.5,0.1-1.1,0.3-1.6c0.2-0.4,0.4-0.8,0.7-1.1c0.3-0.3,0.6-0.5,1-0.6
	s0.7-0.2,1.1-0.2c0.3,0,0.7,0,1,0.1c0.2,0,0.4,0.1,0.7,0.2L86.9,11c-0.4-0.2-0.9-0.3-1.4-0.2c-0.3,0-0.6,0.1-0.8,0.1
	c-0.3,0.1-0.5,0.3-0.7,0.5c-0.2,0.3-0.4,0.6-0.5,0.9c-0.1,0.4-0.2,0.9-0.2,1.4c0,0.4,0.1,0.9,0.2,1.3c0.1,0.3,0.3,0.6,0.5,0.9
	c0.2,0.2,0.5,0.4,0.7,0.5c0.3,0.1,0.6,0.2,0.9,0.2s0.5,0,0.8-0.1c0.2,0,0.4-0.1,0.6-0.2L87.1,16.8z"/>
<path class="st0" d="M88.5,10.1h0.8v7h-0.8V10.1z"/>
<path class="st0" d="M94.6,15.2H92l-0.7,1.9h-0.8l2.7-7.1h0.4l2.7,7.1h-0.9L94.6,15.2z M92.3,14.5h2l-0.8-2.1l-0.2-1.1l0,0L93,12.4
	L92.3,14.5z"/>
<path class="st0" d="M102.4,15.2h-2.6l-0.7,1.9h-0.8L101,10h0.4l2.7,7.1h-0.9L102.4,15.2z M100.1,14.5h2l-0.8-2.1l-0.2-1.1l0,0
	l-0.2,1.1L100.1,14.5z"/>
<path class="st0" d="M109.1,16.8c-0.2,0.2-0.5,0.3-0.8,0.3c-0.3,0.1-0.7,0.1-1,0.1c-0.4,0-0.8-0.1-1.2-0.2c-0.4-0.1-0.7-0.4-1-0.7
	c-0.3-0.3-0.5-0.7-0.7-1.1c-0.2-0.5-0.3-1.1-0.2-1.6c0-0.6,0.1-1.1,0.3-1.7c0.2-0.4,0.4-0.8,0.7-1.1c0.3-0.3,0.6-0.5,1-0.6
	s0.7-0.2,1.1-0.2c0.3,0,0.7,0,1,0.1c0.2,0,0.4,0.1,0.7,0.2l-0.2,0.7c-0.4-0.2-0.9-0.3-1.4-0.2c-0.3,0-0.6,0.1-0.8,0.1
	c-0.3,0.1-0.5,0.3-0.7,0.5c-0.2,0.3-0.4,0.6-0.5,0.9c-0.1,0.4-0.2,0.9-0.2,1.4c0,0.4,0.1,0.9,0.2,1.3c0.1,0.3,0.3,0.6,0.5,0.9
	c0.2,0.2,0.5,0.4,0.7,0.5c0.3,0.1,0.6,0.2,0.9,0.2s0.5,0,0.8-0.1c0.2,0,0.4-0.1,0.6-0.2L109.1,16.8z"/>
<path class="st0" d="M114.6,10.9h-2.2v6.3h-0.8v-6.3h-2.2v-0.7h5.2V10.9z"/>
<path class="st0" d="M115.8,10.1h0.8v7h-0.8V10.1z"/>
<path class="st0" d="M120.4,14.9l0.2,1.1l0,0l0.3-1.1l1.7-4.8h0.8l-2.7,7.1h-0.4l-2.7-7.1h0.9L120.4,14.9z"/>
<path class="st0" d="M127.1,15.2h-2.6l-0.7,1.9H123l2.7-7.1h0.3l2.7,7.1h-0.9L127.1,15.2z M124.8,14.5h2l-0.8-2.1l-0.2-1.1l0,0
	l-0.2,1.1L124.8,14.5z"/>
<path class="st0" d="M28.8,27.2h-4.4v-7h1.4V26h3.1v1.2H28.8z"/>
<path class="st0" d="M29.5,20.2h4.2v1.2h-2.8V23h2.5v1.2h-2.5V26h2.8v1.2h-4.2V20.2z"/>
<path class="st0" d="M36.5,24.6l-2.3-4.4h1.6l1.3,2.6l0.1,0.7l0,0l0.2-0.8l1.2-2.6h1.5l-2.2,4.4v2.6h-1.4
	C36.5,27.1,36.5,24.6,36.5,24.6z"/>
<path class="st0" d="M43,20.2h0.5c0.2,0,0.4,0,0.5,0h0.5H45c0.5,0,1.1,0.1,1.6,0.3c0.4,0.1,0.8,0.4,1.1,0.7c0.3,0.3,0.5,0.7,0.6,1.1
	c0.1,0.5,0.2,0.9,0.2,1.4c0,0.4-0.1,0.9-0.2,1.3c-0.1,0.4-0.3,0.8-0.6,1.2c-0.3,0.4-0.7,0.6-1.1,0.8c-0.5,0.2-1.1,0.3-1.7,0.3h-0.4
	H44h-0.5H43V20.2z M45.2,21.3h-0.4c-0.1,0-0.2,0-0.3,0V26H45c0.3,0,0.7-0.1,1-0.2c0.2-0.1,0.5-0.3,0.6-0.5c0.2-0.2,0.3-0.5,0.3-0.8
	c0.1-0.3,0.1-0.6,0.1-0.9s0-0.6-0.1-0.8c0-0.3-0.1-0.5-0.3-0.7c-0.1-0.2-0.4-0.4-0.6-0.5C45.8,21.3,45.4,21.3,45.2,21.3L45.2,21.3z"
	/>
<path class="st0" d="M49.4,20.2h4.2v1.2h-2.8V23h2.5v1.2h-2.5V26h2.8v1.2h-4.2V20.2z"/>
<path class="st0" d="M61.8,21.4h-2v5.8h-1.4v-5.8h-2v-1.2h5.5L61.8,21.4z"/>
<path class="st0" d="M62.5,20.3l0.5-0.1h0.5H64h0.5c0.3,0,0.7,0,1,0.1s0.6,0.2,0.8,0.3c0.2,0.1,0.5,0.4,0.6,0.6
	c0.2,0.3,0.2,0.7,0.2,1c0,0.5-0.1,1-0.4,1.4s-0.6,0.6-1.1,0.8l0.5,0.3l1.6,2.7h-1.6l-1.6-2.7l-0.7-0.1v2.9h-1.4v-7.2H62.5z
	 M64.6,21.3h-0.4c-0.1,0-0.2,0-0.3,0v2h0.6c0.3,0,0.6-0.1,0.9-0.3c0.2-0.2,0.4-0.5,0.3-0.9c0-0.3-0.1-0.5-0.3-0.7
	C65.2,21.3,64.9,21.3,64.6,21.3L64.6,21.3z"/>
<path class="st0" d="M71.6,25.7h-2.1L69,27.2h-1.4l2.5-7h1l2.5,7h-1.4L71.6,25.7z M69.8,24.6h1.5L70.8,23l-0.2-1.1l0,0L70.3,23
	L69.8,24.6z"/>
<path class="st0" d="M75.9,23.6l-0.6-1.1l0,0l0.2,1.1v3.6h-1.3v-7h1l2.7,3.7l0.5,1.1l0,0l-0.2-1.1v-3.7h1.3v7h-1L75.9,23.6z"/>
<path class="st0" d="M83.8,25.3c0-0.2-0.1-0.4-0.2-0.5c-0.2-0.2-0.4-0.3-0.6-0.4l-0.8-0.3c-0.3-0.1-0.5-0.3-0.8-0.4
	c-0.2-0.2-0.4-0.4-0.6-0.6c-0.2-0.3-0.3-0.7-0.2-1c0-0.3,0.1-0.6,0.2-0.9c0.1-0.2,0.3-0.5,0.5-0.6c0.2-0.2,0.5-0.3,0.7-0.4
	c0.3-0.1,0.7-0.1,1-0.1c0.4,0,0.8,0,1.2,0.1c0.3,0.1,0.6,0.2,0.9,0.3l-0.4,1.1c-0.2-0.1-0.4-0.2-0.7-0.3c-0.3-0.1-0.7-0.1-1-0.1
	s-0.5,0-0.7,0.2C82,21.6,82,21.8,82,22s0.1,0.4,0.2,0.5c0.2,0.1,0.4,0.3,0.6,0.4l0.8,0.4c0.3,0.1,0.5,0.3,0.8,0.4
	c0.2,0.2,0.4,0.4,0.6,0.6c0.2,0.3,0.2,0.6,0.2,0.9s0,0.7-0.2,1c-0.1,0.3-0.3,0.5-0.5,0.7s-0.5,0.3-0.8,0.4s-0.7,0.1-1,0.1
	c-0.4,0-0.9,0-1.3-0.1c-0.3-0.1-0.6-0.2-0.8-0.3l0.4-1.2l0.3,0.1l0.4,0.1l0.5,0.1c0.2,0,0.3,0,0.5,0c0.3,0,0.7-0.1,0.9-0.2
	C83.7,25.8,83.8,25.6,83.8,25.3z"/>
<path class="st0" d="M86.1,20.3c0.3-0.1,0.6-0.1,0.9-0.1s0.7,0,1,0c0.4,0,0.7,0,1.1,0.1c0.3,0.1,0.7,0.2,0.9,0.3
	c0.3,0.2,0.5,0.4,0.7,0.7c0.3,0.7,0.3,1.6,0,2.3c-0.1,0.3-0.3,0.6-0.6,0.8c-0.3,0.2-0.5,0.3-0.9,0.4c-0.3,0.1-0.7,0.1-1,0.1h-0.6
	h-0.2v2.4H86L86.1,20.3L86.1,20.3z M88.1,21.3h-0.4h-0.3v2.3h0.1H88c0.2,0,0.4,0,0.5,0c0.2,0,0.3-0.1,0.5-0.2
	c0.1-0.1,0.3-0.2,0.3-0.4c0.1-0.2,0.1-0.4,0.1-0.6s0-0.4-0.1-0.5s-0.2-0.3-0.3-0.3c-0.1-0.1-0.3-0.2-0.4-0.2
	C88.4,21.3,88.3,21.3,88.1,21.3L88.1,21.3z"/>
<path class="st0" d="M94.5,25.7h-2.2l-0.5,1.5h-1.4l2.5-7h1l2.5,7H95L94.5,25.7z M92.7,24.6h1.5L93.6,23l-0.2-1.1h-0.1L93.2,23
	L92.7,24.6z"/>
<path class="st0" d="M97.1,20.3l0.5-0.1h0.5h0.5h0.5c0.3,0,0.7,0,1,0.1s0.6,0.2,0.8,0.3c0.2,0.1,0.5,0.4,0.6,0.6
	c0.2,0.3,0.2,0.7,0.2,1c0,0.5-0.1,1-0.4,1.4s-0.6,0.6-1.1,0.8l0.5,0.3l1.6,2.7h-1.6l-1.6-2.7l-0.7-0.1v2.9H97L97.1,20.3L97.1,20.3z
	 M99.2,21.3h-0.4c-0.1,0-0.2,0-0.3,0v2H99c0.3,0,0.6-0.1,0.9-0.3c0.2-0.2,0.4-0.5,0.3-0.9c0-0.3-0.1-0.5-0.3-0.7
	C99.7,21.3,99.4,21.3,99.2,21.3L99.2,21.3z"/>
<path class="st0" d="M103.1,20.2h4.2v1.2h-2.8V23h2.5v1.2h-2.5V26h2.8v1.2h-4.2V20.2z"/>
<path class="st0" d="M110,23.6l-0.6-1.1l0,0l0.2,1.1v3.6h-1.3v-7h1l2.7,3.7l0.5,1.1l0,0l-0.2-1.1v-3.7h1.3v7h-1L110,23.6z"/>
<path class="st0" d="M119.6,26.9c-0.2,0.2-0.5,0.3-0.8,0.3c-0.3,0.1-0.7,0.1-1,0.1c-0.4,0-0.8-0.1-1.2-0.2c-0.4-0.1-0.7-0.3-1-0.6
	c-0.3-0.3-0.5-0.7-0.7-1.1c-0.2-0.5-0.3-1.1-0.3-1.7s0.1-1.2,0.3-1.7c0.2-0.4,0.4-0.8,0.7-1.1c0.3-0.3,0.6-0.5,1-0.6
	s0.7-0.2,1.1-0.2c0.3,0,0.7,0,1,0.1c0.2,0,0.5,0.1,0.7,0.2l-0.3,1.2c-0.2-0.1-0.4-0.1-0.5-0.2c-0.3,0-0.5-0.1-0.8,0
	c-0.5,0-1,0.2-1.3,0.6c-0.4,0.5-0.6,1.2-0.5,1.8c0,0.3,0,0.7,0.1,1s0.2,0.5,0.4,0.8c0.2,0.2,0.4,0.4,0.6,0.5
	c0.3,0.1,0.5,0.2,0.8,0.2s0.5,0,0.8-0.1c0.2-0.1,0.4-0.1,0.5-0.2L119.6,26.9z"/>
<path class="st0" d="M120.6,20.2h1.4v7h-1.4V20.2z"/>
<path class="st0" d="M126.8,25.7h-2.2l-0.5,1.5h-1.4l2.5-7h1l2.5,7h-1.4L126.8,25.7z M125,24.6h1.5L126,23l-0.2-1.1l0,0l-0.3,1.1
	L125,24.6z"/>
<path class="st0" d="M16.2,17.5v-5.9c0-0.5-0.2-1-0.6-1.3l-2.3-2.2c-0.3-0.3-0.8-0.5-1.2-0.5H2.4c-1,0-1.8,0.8-1.8,1.8v16.9
	c0,1,0.8,1.8,1.8,1.8h12c1,0,1.8-0.8,1.8-1.8C16.2,26.3,16.2,17.5,16.2,17.5z M14.9,11.2h-2.3V9.1C15,11.4,14.9,11.2,14.9,11.2z
	 M15,24.4v1.9c0,0.3-0.3,0.6-0.6,0.6l0,0h-12c-0.3,0-0.6-0.3-0.6-0.6l0,0V9.4c0-0.3,0.3-0.6,0.6-0.6l0,0h9v3c0,0.3,0.3,0.6,0.6,0.6
	l0,0h3V24.4L15,24.4z M3,15.3c0-0.3,0.3-0.6,0.6-0.6l0,0h9.6c0.3,0,0.6,0.3,0.6,0.6s-0.3,0.6-0.6,0.6H3.6C3.3,15.9,3,15.7,3,15.3
	L3,15.3z M3,19.7c0-0.3,0.3-0.6,0.6-0.6l0,0h9.6c0.3,0,0.6,0.3,0.6,0.6s-0.3,0.6-0.6,0.6H3.6C3.3,20.3,3,20,3,19.7L3,19.7z M3,24
	c0-0.3,0.3-0.6,0.6-0.6l0,0h9.6c0.3,0,0.6,0.3,0.6,0.6l0,0c0,0.3-0.3,0.6-0.6,0.6l0,0H3.6C3.3,24.6,3,24.4,3,24L3,24z"/>
</svg>
